<svg width="51" height="51" viewBox="0 0 51 51" fill="none" xmlns="http://www.w3.org/2000/svg">
<circle cx="25.5" cy="25.5" r="25.5" fill="#9FC8E1"/>
<path d="M27.1728 33.24C25.8928 33.24 24.7795 32.9733 23.8328 32.44C22.8995 31.9067 22.1795 31.1267 21.6728 30.1C21.1661 29.0733 20.9128 27.8067 20.9128 26.3C20.9128 24.6867 21.2128 23.32 21.8128 22.2C22.4261 21.08 23.2661 20.2267 24.3328 19.64C25.4128 19.0533 26.6528 18.76 28.0528 18.76C28.7995 18.76 29.5128 18.84 30.1928 19C30.8728 19.16 31.4595 19.4 31.9528 19.72L30.7528 22.1C30.3661 21.8333 29.9528 21.6533 29.5128 21.56C29.0728 21.4533 28.6128 21.4 28.1328 21.4C26.9195 21.4 25.9595 21.7667 25.2528 22.5C24.5461 23.2333 24.1928 24.32 24.1928 25.76C24.1928 26 24.1928 26.2667 24.1928 26.56C24.2061 26.8533 24.2461 27.1467 24.3128 27.44L23.4128 26.6C23.6661 26.08 23.9928 25.6467 24.3928 25.3C24.7928 24.94 25.2661 24.6733 25.8128 24.5C26.3728 24.3133 26.9861 24.22 27.6528 24.22C28.5595 24.22 29.3728 24.4 30.0928 24.76C30.8128 25.12 31.3861 25.6267 31.8128 26.28C32.2528 26.9333 32.4728 27.7 32.4728 28.58C32.4728 29.5267 32.2328 30.3533 31.7528 31.06C31.2861 31.7533 30.6528 32.2933 29.8528 32.68C29.0661 33.0533 28.1728 33.24 27.1728 33.24ZM26.9928 30.82C27.4461 30.82 27.8461 30.74 28.1928 30.58C28.5528 30.4067 28.8328 30.16 29.0328 29.84C29.2328 29.52 29.3328 29.1533 29.3328 28.74C29.3328 28.1 29.1128 27.5933 28.6728 27.22C28.2461 26.8333 27.6728 26.64 26.9528 26.64C26.4728 26.64 26.0528 26.7333 25.6928 26.92C25.3328 27.0933 25.0461 27.34 24.8328 27.66C24.6328 27.9667 24.5328 28.3267 24.5328 28.74C24.5328 29.14 24.6328 29.5 24.8328 29.82C25.0328 30.1267 25.3128 30.3733 25.6728 30.56C26.0328 30.7333 26.4728 30.82 26.9928 30.82Z" fill="white"/>
</svg>
