<svg width="58" height="29" viewBox="0 0 58 29" fill="none" xmlns="http://www.w3.org/2000/svg">
<rect x="58" y="29" width="58" height="29" transform="rotate(180 58 29)" fill="#DBE3F3"/>
<path d="M43 16C43.5523 16 44 15.5523 44 15C44 14.4477 43.5523 14 43 14V16ZM13.2929 14.2929C12.9024 14.6834 12.9024 15.3166 13.2929 15.7071L19.6569 22.0711C20.0474 22.4616 20.6805 22.4616 21.0711 22.0711C21.4616 21.6805 21.4616 21.0474 21.0711 20.6569L15.4142 15L21.0711 9.34315C21.4616 8.95262 21.4616 8.31946 21.0711 7.92893C20.6805 7.53841 20.0474 7.53841 19.6569 7.92893L13.2929 14.2929ZM43 14L14 14L14 16L43 16V14Z" fill="white"/>
</svg>
