<svg width="24" height="23" viewBox="0 0 24 23" fill="none" xmlns="http://www.w3.org/2000/svg">
<path d="M0 10.2982C0.0609378 9.88099 0.103125 9.4638 0.182813 9.0513C0.923442 5.39504 2.95314 2.68096 6.32347 1.10127C9.90473 -0.576865 13.4438 -0.309677 16.8423 1.71533C17.147 1.89815 17.311 2.15127 17.2641 2.50752C17.1891 3.06065 16.6126 3.29971 16.0969 3.02784C15.4641 2.69502 14.836 2.33409 14.1657 2.09033C8.85004 0.163763 2.96251 3.4169 1.73438 8.93411C0.62344 13.9404 3.61877 18.8857 8.57348 20.217C13.711 21.5998 19.0876 18.3513 20.2548 13.1623C20.4798 12.1638 20.5407 11.156 20.4563 10.1388C20.4188 9.68412 20.7188 9.3138 21.1595 9.28099C21.5673 9.25287 21.9048 9.56224 21.947 10.0076C22.4907 15.4966 18.7501 20.6107 13.336 21.7826C7.56566 23.0295 1.8422 19.5092 0.351564 13.7763C0.196876 13.181 0.140626 12.5623 0.0421877 11.9576C0.0328127 11.8873 0.0140626 11.8216 0 11.7513C0 11.2685 0 10.781 0 10.2982Z" fill="#00A911"/>
<path d="M24.0002 1.95463C23.8736 2.12807 23.7658 2.32495 23.6158 2.47495C20.0627 6.03278 16.5049 9.5906 12.947 13.1484C12.9049 13.1906 12.858 13.2375 12.8158 13.2797C12.4548 13.6266 12.033 13.6266 11.6767 13.2703C10.2048 11.8031 8.73764 10.3359 7.27045 8.86404C6.92826 8.52185 6.9142 8.06716 7.21889 7.75778C7.52358 7.44841 7.98295 7.46247 8.32514 7.79997C9.57202 9.04216 10.8095 10.2844 12.0517 11.5266C12.1127 11.5875 12.1548 11.6625 12.2673 11.8125C12.3517 11.6766 12.3892 11.5875 12.4548 11.5219C15.8392 8.13279 19.2236 4.74839 22.608 1.364C22.8377 1.13432 23.0815 0.989003 23.419 1.05932C23.719 1.12025 23.8643 1.34525 24.0002 1.58432C24.0002 1.70619 24.0002 1.82807 24.0002 1.95463Z" fill="#00A911"/>
</svg>
