<svg width="75" height="76" viewBox="0 0 75 76" fill="none" xmlns="http://www.w3.org/2000/svg">
<path d="M57.526 75.3913C56.0349 74.9597 54.4456 74.7046 53.0329 74.0767C46.7935 71.3102 43.4973 64.3057 45.3024 57.7131C45.4593 57.1637 45.3612 56.8302 44.9688 56.4378C41.751 53.2592 38.5725 50.0611 35.394 46.8825C35.2174 46.706 35.0408 46.549 34.825 46.3528C34.6091 46.549 34.4129 46.7256 34.2363 46.9218C30.3711 50.7871 26.5058 54.6523 22.6406 58.5372C22.3266 58.8511 22.0716 59.2043 21.8557 59.5771C20.5215 61.9119 19.2462 64.286 17.8924 66.6209C17.6373 67.0525 17.2056 67.4842 16.774 67.7C14.6353 68.8184 12.4378 69.8779 10.2796 70.957C9.31816 71.4279 8.94537 71.3887 8.19978 70.6235C6.86558 69.2893 5.53138 67.9551 4.19718 66.6209C3.47121 65.8753 3.41235 65.5221 3.86362 64.6C4.96238 62.4025 6.04151 60.2049 7.15989 58.0467C7.37572 57.615 7.76813 57.203 8.19978 56.9675C10.5935 55.5745 13.0265 54.2403 15.4398 52.8865C15.6949 52.7491 15.9499 52.5725 16.1461 52.3763C20.2076 48.3149 24.2691 44.273 28.3305 40.2115C28.3894 40.1527 28.4286 40.0938 28.5071 39.9957C28.3502 39.8191 28.1932 39.6425 28.0362 39.4856C24.995 36.4444 21.9538 33.4228 18.9323 30.3816C18.5595 30.0088 18.2652 29.8911 17.7158 30.0481C8.23902 32.5791 -0.806084 24.9859 0.0572232 15.2345C0.155326 14.0376 0.508498 12.8408 0.861669 11.6635C1.25408 10.3882 2.27435 10.1724 3.21614 11.1142C5.70796 13.5864 8.18016 16.0782 10.6524 18.5504C10.8093 18.7073 10.9663 18.8447 11.084 18.9428C12.8891 17.1377 14.655 15.3522 16.4797 13.5471C16.3423 13.4098 16.1658 13.2136 15.9892 13.0174C13.5758 10.604 11.1625 8.19068 8.76878 5.77735C7.70927 4.69821 7.92509 3.75642 9.3574 3.24629C18.6576 -0.0695972 28.4875 7.11155 28.0951 16.9611C28.0559 18.0599 27.8008 19.139 27.585 20.2181C27.5065 20.6498 27.5261 20.9245 27.84 21.258C36.6104 30.0088 45.3612 38.7596 54.112 47.53C54.4456 47.8636 54.7399 47.9421 55.2108 47.8243C60.7046 46.4705 65.5116 47.7655 69.318 51.9643C73.0067 56.0454 73.87 60.8328 72.1434 66.0715C71.6725 67.5038 70.6915 67.7196 69.6123 66.6405C67.199 64.2272 64.7857 61.8138 62.3919 59.4005C62.1957 59.2043 62.0976 58.9492 61.9799 58.7923C60.0571 60.7151 58.2716 62.5006 56.4076 64.3645C56.7804 64.6981 57.1925 65.0709 57.5849 65.4633C59.7824 67.6608 61.9995 69.8583 64.197 72.0754C65.2566 73.1546 65.0603 74.1356 63.628 74.6065C62.5685 74.94 61.4502 75.1559 60.371 75.4305C59.4096 75.3913 58.4678 75.3913 57.526 75.3913ZM61.097 72.6052C60.8223 72.3109 60.6653 72.1343 60.4887 71.9773C58.2912 69.7798 56.0741 67.5823 53.8766 65.3652C53.0133 64.5019 52.9937 63.9132 53.8766 63.0499C56.0937 60.8328 58.3108 58.6157 60.528 56.3985C61.4698 55.4568 62.0388 55.4568 63.0002 56.4182C65.1781 58.5764 67.3363 60.7543 69.4946 62.9126C69.6712 63.0892 69.8674 63.2658 70.1225 63.5208C70.2009 63.1677 70.2598 62.9322 70.299 62.6575C71.2212 54.1618 63.1375 47.7066 55.0342 50.5124C54.1905 50.8067 53.5627 50.6497 52.9348 50.0022C43.7327 40.7805 34.5307 31.5785 25.309 22.3764C24.6615 21.7289 24.5241 21.1207 24.8184 20.277C27.3888 12.7819 22.0323 5.12987 14.1056 4.9729C13.3796 4.95328 12.634 5.071 11.7315 5.14949C12.065 5.50266 12.2416 5.69887 12.4378 5.89507C14.6157 8.07296 16.8132 10.2705 18.9911 12.4484C19.8348 13.292 19.8348 13.9395 18.9911 14.7636C16.774 16.9807 14.5569 19.1979 12.3397 21.415C11.4176 22.3372 10.8486 22.3372 9.9264 21.415C7.74851 19.2371 5.551 17.0592 3.37311 14.8617C3.19652 14.6851 3.11804 14.3908 3.00032 14.1357C2.90221 14.2142 2.80411 14.3123 2.70601 14.3908C2.39208 15.7642 2.4117 17.1377 2.68639 18.5111C4.07945 25.5549 11.0448 29.5968 17.8531 27.2619C18.638 26.9872 19.2266 27.0853 19.8348 27.6936C29.0761 36.9741 38.3371 46.2154 47.6176 55.4764C48.2259 56.0846 48.3436 56.6732 48.0493 57.4581C45.9695 63.4424 48.8537 69.7209 54.7399 72.0362C56.7804 72.8406 58.8406 73.0368 61.097 72.6052ZM30.1356 41.7812C29.9983 41.9578 29.8806 42.2128 29.6844 42.409C26.6039 45.5091 23.4646 48.5307 20.4627 51.6896C18.481 53.7694 16.3031 55.5352 13.7132 56.791C12.3986 57.4384 11.1429 58.2036 9.86754 58.9296C9.61247 59.0866 9.3574 59.322 9.22005 59.5771C8.33713 61.3037 7.49344 63.0303 6.61051 64.7569C6.4143 65.1297 6.49279 65.3652 6.76748 65.6399C7.59154 66.4443 8.41561 67.2487 9.20043 68.0924C9.49474 68.4064 9.73019 68.4064 10.0834 68.2298C11.7315 67.3861 13.4189 66.5816 15.067 65.7183C15.4005 65.5418 15.7341 65.2278 15.9303 64.8943C17.2253 62.6183 18.5006 60.3227 19.7956 58.0467C20.031 57.6543 20.3057 57.2619 20.6393 56.9479C24.5634 53.0042 28.5071 49.0801 32.4313 45.1363C32.6078 44.9597 32.7844 44.7635 32.9414 44.6066C32.0388 43.6844 31.1755 42.8211 30.1356 41.7812Z" fill="#595959"/>
<path d="M74.7724 12.743C74.7724 14.8227 74.0464 16.6278 72.6926 18.1779C70.554 20.6501 68.4349 23.1223 66.2963 25.5748C66.0216 25.8888 65.6292 26.1635 65.2564 26.3793C61.2538 28.8122 57.2512 31.206 53.2486 33.6585C52.9347 33.8547 52.66 34.2275 52.5226 34.5807C52.0321 35.9149 51.6201 37.2687 51.1688 38.6226C50.7175 39.9568 49.7169 40.1922 48.7162 39.1916C44.3604 34.8358 40.0047 30.4996 35.6685 26.1438C34.6286 25.1039 34.8641 24.1229 36.2375 23.6716C37.5913 23.2204 38.9452 22.7887 40.2597 22.2982C40.6129 22.1609 40.9857 21.8862 41.1819 21.5722C43.5756 17.6285 45.9301 13.6847 48.3042 9.741C48.5593 9.30935 48.9124 8.89731 49.2852 8.56376C51.7182 6.42512 54.1708 4.30609 56.6233 2.20668C60.0962 -0.795274 64.8444 -0.638309 68.1014 2.59909C69.5337 4.01178 70.966 5.42446 72.3591 6.87639C74.0072 8.5049 74.7724 10.4473 74.7724 12.743ZM38.8471 25.4767C42.3395 28.9888 45.832 32.4813 49.3441 35.9934C49.6384 35.1301 49.9719 34.2472 50.227 33.325C50.4428 32.5598 50.8549 32.0693 51.5416 31.6572C55.6227 29.2243 59.6841 26.7521 63.7456 24.2995C64.0988 24.0837 64.4323 23.809 64.707 23.5147C66.728 21.1994 68.7293 18.8842 70.7109 16.5494C72.8692 14.0183 72.7515 10.8398 70.4166 8.48528C69.0628 7.11184 67.6894 5.73839 66.3159 4.38457C64.0007 2.08896 60.8025 1.97123 58.3107 4.10988C55.9366 6.15043 53.5625 8.21059 51.208 10.2904C50.8745 10.5847 50.5998 10.9182 50.3644 11.291C47.951 15.2936 45.5181 19.2962 43.144 23.3381C42.7516 24.0052 42.261 24.3976 41.5351 24.6134C40.5933 24.8685 39.6711 25.2021 38.8471 25.4767Z" fill="#00A911"/>
</svg>
