<svg width="64" height="74" viewBox="0 0 64 74" fill="none" xmlns="http://www.w3.org/2000/svg">
<path d="M13.8439 53.7612C17.3273 50.4769 20.7609 47.2257 24.2442 43.9414C24.5428 44.2566 24.8082 44.5386 25.1566 44.9035C23.6305 46.3466 22.121 47.7731 20.6282 49.1996C18.8035 50.9247 16.9789 52.6664 15.1377 54.3584C14.6898 54.773 14.6401 55.138 14.8557 55.7185C16.3652 59.7825 14.0927 64.2943 9.96241 65.4886C5.74918 66.716 1.4862 64.1947 0.507533 59.882C-0.437955 55.7019 2.33216 51.6048 6.61173 50.8916C9.16621 50.4769 11.3558 51.2399 13.197 53.0314C13.3794 53.247 13.5785 53.4792 13.8439 53.7612ZM12.6662 58.273C12.6662 55.6024 10.4932 53.3963 7.83921 53.3797C5.16862 53.3631 2.9459 55.6024 2.96248 58.3062C2.97907 60.9934 5.13545 63.1332 7.82262 63.1332C10.4766 63.1497 12.6662 60.9436 12.6662 58.273Z" fill="#595959"/>
<path d="M43.2871 43.2608C43.5525 42.8627 43.7516 42.5475 44.0004 42.166C46.0241 43.7584 48.0146 45.3342 50.0382 46.9266C51.7467 45.0191 53.8202 43.9906 56.4078 44.1399C58.2159 44.2395 59.7751 44.9195 61.1021 46.147C63.8059 48.6517 64.2371 52.8318 62.1305 55.8839C60.0405 58.9194 55.9931 59.981 52.6425 58.3388C48.9435 56.5308 47.7326 52.865 49.2752 48.0214C47.3179 46.4456 45.344 44.8698 43.2871 43.2608ZM55.9766 56.4479C58.6306 56.4479 60.8533 54.2583 60.8699 51.6209C60.8699 49.0001 58.6471 46.7608 56.0097 46.7442C53.3557 46.7276 51.133 48.9005 51.1164 51.5545C51.0998 54.2915 53.2396 56.4479 55.9766 56.4479Z" fill="#595959"/>
<path d="M34.7111 20.6516C34.7111 21.9786 34.7111 23.2724 34.7111 24.6491C34.2466 24.5994 33.8817 24.5662 33.4339 24.5164C33.4339 23.206 33.4339 21.9454 33.4339 20.6184C30.7964 20.2535 28.7894 19.0094 27.4955 16.7037C26.5666 15.045 26.3676 13.2701 26.7657 11.4123C27.396 8.5095 30.1993 5.29152 34.8438 5.62327C38.3272 5.87209 41.2797 8.82466 41.5783 12.6398C41.8105 15.6753 40.0191 19.7392 34.7111 20.6516ZM34.1305 8.26069C31.4434 8.2441 29.2538 10.3839 29.2206 13.0379C29.1875 15.7251 31.3936 17.9478 34.0974 17.9644C36.7514 17.9644 38.9575 15.7748 38.9741 13.1208C39.0073 10.4668 36.8011 8.26069 34.1305 8.26069Z" fill="#595959"/>
<path d="M25.8868 9.78706C25.7375 10.2349 25.6214 10.5833 25.4721 11.0145C23.9958 10.5667 22.5693 10.152 21.1594 9.72071C19.1855 9.12356 17.195 8.52641 15.2376 7.87949C14.6737 7.69703 14.4083 7.73021 14.0931 8.31077C12.8159 10.6828 9.94622 11.7278 7.39174 10.8487C4.90362 9.98611 3.3278 7.34869 3.7259 4.74446C4.15718 2.04069 6.46284 0.0501923 9.19978 0.000429756C11.8538 -0.0327453 14.176 1.85823 14.7068 4.47906C14.7566 4.69469 14.8229 4.92692 14.7732 5.12597C14.5575 6.20416 15.1547 6.50273 16.0504 6.76813C19.3016 7.73021 22.5361 8.75863 25.8868 9.78706ZM12.1524 5.55724C12.1524 3.98143 10.8088 2.63784 9.26613 2.63784C7.67373 2.62126 6.29697 4.01461 6.31355 5.60701C6.31355 7.23258 7.67373 8.543 9.2993 8.50982C10.8751 8.47665 12.1689 7.14964 12.1524 5.55724Z" fill="#595959"/>
<path d="M11.1072 31.2015C14.7897 31.8484 18.3891 32.4621 22.0716 33.1091C21.9886 33.5237 21.9223 33.8887 21.8228 34.3531C20.5455 34.1375 19.3015 33.955 18.074 33.7394C15.7849 33.3413 13.5124 32.9598 11.2399 32.5285C10.676 32.429 10.593 32.7773 10.4106 33.1091C8.76839 35.9455 5.18549 36.7749 2.44855 34.9669C0.292175 33.5403 -0.586962 30.6541 0.408288 28.2323C1.42013 25.7608 4.05754 24.384 6.7613 24.9148C9.18308 25.3959 11.0741 27.6849 11.1238 30.1897C11.1238 30.4716 11.1072 30.7868 11.1072 31.2015ZM2.63101 30.3887C2.6476 31.9977 4.02436 33.3081 5.64994 33.2915C7.20917 33.2583 8.51958 31.8982 8.50299 30.3224C8.4864 28.7465 7.14282 27.4195 5.567 27.4361C3.92484 27.4361 2.61443 28.7631 2.63101 30.3887Z" fill="#595959"/>
<path d="M41.9764 64.4592C44.4977 62.253 47.019 60.0303 49.6066 57.7744C49.9384 58.0564 50.2535 58.3218 50.6185 58.637C47.9976 60.9426 45.41 63.2151 42.7726 65.5208C43.6351 67.2791 43.801 69.0539 42.955 70.862C42.3911 72.0563 41.4788 72.9188 40.2845 73.4828C37.8129 74.6273 34.8935 73.8145 33.3675 71.6084C31.8082 69.3359 32.1068 66.3336 34.0807 64.4094C36.2039 62.3692 39.0736 62.3692 41.9764 64.4592ZM37.929 71.3264C39.538 71.343 40.8484 70.0823 40.865 68.4899C40.8982 66.8478 39.6044 65.5208 37.9788 65.5042C36.3698 65.4876 35.0096 66.8312 35.0262 68.4402C35.0262 70.0326 36.3366 71.3264 37.929 71.3264Z" fill="#595959"/>
<path d="M52.8413 26.8888C50.0048 28.3153 47.1683 29.7584 44.2324 31.2513C44.0167 30.8864 43.8343 30.538 43.5854 30.1233C46.5048 28.6305 49.3745 27.1708 52.2773 25.6779C51.7797 23.9694 51.8294 22.3272 52.7749 20.8012C53.4882 19.6566 54.4834 18.8438 55.7607 18.4126C58.282 17.5666 61.1516 18.6614 62.3791 20.967C63.7061 23.422 63.1255 26.358 60.9692 28.0665C58.5308 30.0072 55.8934 29.6423 52.8413 26.8888ZM60.4218 23.7371C60.4384 22.095 59.1279 20.7514 57.519 20.7514C55.9431 20.7514 54.6161 22.0784 54.5996 23.6542C54.583 25.2632 55.9266 26.64 57.519 26.64C59.1114 26.64 60.4218 25.3295 60.4218 23.7371Z" fill="#595959"/>
<circle cx="33.5336" cy="36.4765" r="9" stroke="#00A911" stroke-width="2.90026"/>
</svg>
