<svg width="103" height="74" viewBox="0 0 103 74" fill="none" xmlns="http://www.w3.org/2000/svg">
<path d="M64.6185 0.0447954C75.952 0.0447954 87.3078 0.0447968 98.6412 0.0671949C99.2459 0.0671949 99.9179 0.134388 100.455 0.358369C101.598 0.873524 102.135 1.83664 102.135 3.09093C102.135 10.4151 102.135 17.7617 102.135 25.0858C102.135 34.9634 102.135 44.8409 102.135 54.6961C102.135 55.2112 102.158 55.7264 102.068 56.2191C101.799 57.6526 100.545 58.5709 98.91 58.5709C93.1985 58.5709 87.5094 58.5709 81.7979 58.5709C79.2893 58.5709 76.7583 58.5709 74.2497 58.5485C73.7346 58.5485 73.533 58.7053 73.533 59.2205C73.5554 60.8331 73.5554 62.4234 73.533 64.0361C73.533 64.5736 73.7346 64.708 74.2497 64.708C75.84 64.708 77.4302 64.6408 78.9757 64.82C81.9323 65.156 84.0601 67.6869 84.0601 70.6883C84.0601 71.4274 84.0153 72.1665 84.0601 72.8833C84.1049 73.4432 83.8809 73.6 83.3433 73.6C79.4013 73.5776 75.4592 73.6 71.5172 73.6C63.1403 73.6 54.7634 73.6 46.3865 73.6C45.0874 73.6 45.0874 73.6 45.0874 72.2785C45.0874 71.5394 45.065 70.8003 45.1546 70.0835C45.5802 66.8358 47.9992 64.7528 51.2693 64.7304C52.5236 64.7304 53.7555 64.708 55.0098 64.7304C55.4801 64.7304 55.6369 64.5736 55.6369 64.1032C55.6145 62.4906 55.6145 60.9003 55.6369 59.2877C55.6369 58.7277 55.4801 58.5709 54.9202 58.5709C50.575 58.5933 46.2297 58.5709 41.8845 58.5709C38.0544 58.5709 34.2244 58.5709 30.3943 58.5709C28.2665 58.5709 27.0346 57.339 27.0346 55.2112C27.0346 47.3719 27.0346 39.5326 27.0346 31.6709C27.0346 22.2637 27.057 12.8565 27.0122 3.4493C27.0122 1.50067 28.1993 0 30.4391 0C41.8397 0.0671942 53.2403 0.0447954 64.6185 0.0447954ZM64.5961 55.704C75.8624 55.704 87.151 55.704 98.4172 55.7264C99.0668 55.7264 99.2907 55.5696 99.2907 54.8752C99.2683 37.7855 99.2683 20.6958 99.2907 3.60609C99.2907 3.00134 99.0668 2.84455 98.5068 2.86695C97.2077 2.88935 95.931 2.86695 94.632 2.86695C73.3538 2.86695 52.0756 2.86695 30.7751 2.86695C29.924 2.86695 29.9016 2.88935 29.9016 3.71808C29.9016 20.763 29.9016 37.8079 29.9016 54.8752C29.9016 55.7264 29.9016 55.7264 30.7527 55.7264C42.0413 55.704 53.3075 55.704 64.5961 55.704ZM81.2155 70.6883C81.1707 70.3523 81.1707 70.0611 81.1035 69.7924C80.7004 68.4261 79.5357 67.575 78.035 67.575C74.8545 67.575 71.6515 67.575 68.471 67.575C62.7147 67.575 56.9808 67.575 51.2245 67.575C49.679 67.575 48.4919 68.4485 48.0888 69.8148C47.8648 70.6435 47.9096 70.7331 48.7831 70.7331C59.3326 70.7331 69.8597 70.7331 80.4092 70.7331C80.6556 70.7331 80.9019 70.7107 81.2155 70.6883ZM64.5737 58.5709C62.7595 58.5709 60.9677 58.5933 59.1534 58.5709C58.6607 58.5709 58.4815 58.7277 58.5039 59.2205C58.5263 60.8331 58.5263 62.4234 58.5039 64.0361C58.4815 64.6184 58.7055 64.7304 59.243 64.7304C62.8267 64.708 66.4104 64.708 69.9941 64.7304C70.5316 64.7304 70.7332 64.5736 70.7332 64.0137C70.7108 62.4234 70.7108 60.8555 70.7332 59.2653C70.7332 58.6829 70.5092 58.5485 69.9941 58.5709C68.1798 58.5933 66.388 58.5709 64.5737 58.5709Z" fill="#595959"/>
<path d="M30.0806 61.7738C31.0661 61.7738 31.9396 61.7738 32.8804 61.7738C32.9028 61.9754 32.9475 62.177 32.9475 62.3562C32.9475 64.5736 32.9699 66.7686 32.9475 68.986C32.9252 71.7409 30.9765 73.6 28.2216 73.6C20.4046 73.6 12.5653 73.6 4.74839 73.6C1.85904 73.6 0 71.7633 0 68.8964C0 48.4694 0 28.0647 0 7.63769C0 5.03952 1.90384 3.04609 4.45721 3.04609C10.7511 3.02369 17.0225 3.04609 23.3164 3.04609C23.4732 3.04609 23.63 3.06849 23.8763 3.09088C23.8763 3.94201 23.8987 4.77074 23.8539 5.59947C23.8539 5.71146 23.518 5.89064 23.3164 5.89064C22.0845 5.91304 20.875 5.91304 19.6431 5.91304C14.6931 5.91304 9.74316 5.91304 4.79319 5.91304C3.33731 5.91304 2.84455 6.42819 2.84455 7.88407C2.84455 28.1991 2.84455 48.4918 2.84455 68.8068C2.84455 70.2179 3.35971 70.733 4.77079 70.733C4.79318 70.733 4.81558 70.733 4.83798 70.733C6.09227 70.7106 6.00268 70.8898 6.00268 69.5907C6.00268 68.1573 6.02508 66.7462 6.00268 65.3127C6.00268 64.8423 6.15947 64.708 6.62983 64.708C13.2149 64.7303 19.7775 64.7303 26.3625 64.708C26.8777 64.708 26.9449 64.9319 26.9449 65.3575C26.9225 66.9254 26.9673 68.4708 26.9225 70.0387C26.9001 70.621 27.1017 70.7554 27.6392 70.733C29.6774 70.733 30.0806 70.3523 30.0806 68.3364C30.103 66.1862 30.0806 64.0136 30.0806 61.7738ZM16.4178 70.733C18.7024 70.733 21.0094 70.7106 23.294 70.7554C23.8539 70.7554 24.1227 70.621 24.0779 70.0163C24.0331 69.4563 24.0331 68.8964 24.0779 68.3588C24.1227 67.7765 23.9211 67.5749 23.3164 67.5973C21.6589 67.6197 20.0239 67.6197 18.3664 67.6197C15.4323 67.6197 12.4981 67.6197 9.54157 67.6197C9.02642 67.6197 8.80244 67.7541 8.84723 68.2916C8.89203 68.874 8.89203 69.4563 8.84723 70.0163C8.80244 70.5986 8.98162 70.7778 9.58637 70.7778C11.8934 70.7106 14.1556 70.733 16.4178 70.733Z" fill="#00A911"/>
<path d="M16.4403 31.447C14.2229 31.447 11.9831 31.4246 9.76571 31.4694C9.11617 31.4918 8.95938 31.2678 9.00418 30.6631C9.04897 30.1479 9.02658 29.6328 9.00418 29.1176C8.98178 28.7145 9.16096 28.5801 9.56413 28.5801C14.1781 28.5801 18.7921 28.5801 23.4061 28.5801C23.8317 28.5801 23.9437 28.7593 23.9213 29.14C23.8989 29.7 23.8989 30.2599 23.9213 30.8199C23.9661 31.335 23.7421 31.4694 23.2717 31.4694C20.9871 31.447 18.7025 31.4694 16.4403 31.447C16.4403 31.4694 16.4403 31.447 16.4403 31.447Z" fill="#00A911"/>
<path d="M23.8988 19.4197C23.4957 19.4197 23.2045 19.4197 22.9133 19.4197C18.5457 19.4197 14.1781 19.4197 9.81047 19.4421C9.18332 19.4421 8.91454 19.2853 8.98174 18.6358C9.02653 18.143 9.02653 17.6502 8.98174 17.1575C8.95934 16.6647 9.16092 16.5527 9.60888 16.5527C14.1557 16.5751 18.7025 16.5751 23.2493 16.5527C23.7421 16.5527 23.9212 16.6871 23.8988 17.2023C23.8764 17.8966 23.8988 18.6134 23.8988 19.4197Z" fill="#00A911"/>
<path d="M16.5075 25.444C14.2453 25.444 11.9607 25.4216 9.69846 25.444C9.18331 25.444 8.95933 25.332 9.00412 24.7721C9.04892 24.2121 9.02652 23.6522 9.00412 23.0922C8.98172 22.6891 9.16091 22.5547 9.56407 22.5547C14.1557 22.5547 18.7473 22.5547 23.3389 22.5547C23.7644 22.5547 23.9436 22.6891 23.9212 23.137C23.8988 23.697 23.8764 24.2569 23.9212 24.8169C23.966 25.332 23.742 25.444 23.2717 25.444C21.0095 25.4216 18.7473 25.444 16.5075 25.444Z" fill="#00A911"/>
<path d="M19.3742 42.064C19.3742 43.7215 18.1199 44.9982 16.4849 44.9982C14.8722 44.9982 13.5507 43.6991 13.5283 42.0864C13.5283 40.4962 14.8722 39.1299 16.4401 39.1299C18.0527 39.1299 19.3742 40.4514 19.3742 42.064Z" fill="#00A911"/>
<path d="M58.5488 51.023C57.7872 51.0006 57.1377 50.3511 57.1377 49.6119C57.1377 48.828 57.7872 48.2008 58.616 48.2232C59.4223 48.2456 60.027 48.8728 60.0046 49.7015C59.9822 50.4406 59.3551 51.023 58.5488 51.023Z" fill="#595959"/>
<path d="M70.5985 48.2008C71.4272 48.1784 72.032 48.7831 72.032 49.6119C72.032 50.3958 71.4496 51.0005 70.6433 51.0229C69.837 51.0453 69.165 50.3958 69.165 49.6119C69.1874 48.8503 69.837 48.2232 70.5985 48.2008Z" fill="#595959"/>
<path d="M82.6488 50.9999C81.8649 50.9999 81.2378 50.3727 81.2154 49.6112C81.193 48.8497 81.8873 48.1777 82.6712 48.1777C83.5 48.1777 84.0823 48.8049 84.0599 49.6336C84.0599 50.4175 83.4328 50.9999 82.6488 50.9999Z" fill="#595959"/>
<path d="M34.4932 48.2002C35.3219 48.2002 35.9266 48.7825 35.9266 49.6113C35.9266 50.3952 35.3219 51 34.538 51C33.7316 51 33.0597 50.3728 33.0821 49.5889C33.0821 48.8497 33.7316 48.2002 34.4932 48.2002Z" fill="#595959"/>
<path d="M88.6962 51C87.8898 51 87.2179 50.3504 87.2403 49.5889C87.2627 48.8049 87.8674 48.2002 88.6514 48.2002C89.4801 48.2002 90.0848 48.8049 90.0848 49.6113C90.0848 50.3952 89.4801 51 88.6962 51Z" fill="#595959"/>
<path d="M40.5629 51C39.7565 51 39.0846 50.3728 39.107 49.5889C39.107 48.8273 39.7341 48.2002 40.5181 48.2002C41.3468 48.2002 41.9515 48.7825 41.9515 49.6113C41.9515 50.3952 41.3468 51 40.5629 51Z" fill="#595959"/>
<path d="M53.9793 49.6113C53.9793 50.3952 53.3746 51 52.5906 51C51.7843 51 51.1348 50.3728 51.1348 49.5889C51.1348 48.8049 51.7619 48.2002 52.5458 48.2002C53.3746 48.2002 53.9793 48.8049 53.9793 49.6113Z" fill="#595959"/>
<path d="M76.6459 51C75.8844 51 75.2349 50.3952 75.2125 49.6337C75.1901 48.8721 75.862 48.2002 76.6683 48.2002C77.4523 48.2002 78.057 48.8049 78.0794 49.5889C78.0794 50.3952 77.4747 51 76.6459 51Z" fill="#595959"/>
<path d="M96.1102 49.6119C96.1102 50.3958 95.5278 51.0005 94.7439 51.0005C93.9376 51.0229 93.2656 50.3734 93.2656 49.6119C93.2656 48.8503 93.8928 48.2232 94.6543 48.2008C95.483 48.1784 96.1102 48.8055 96.1102 49.6119Z" fill="#595959"/>
<path d="M47.9769 49.6113C47.9769 50.3952 47.3721 50.9776 46.5882 51C45.7819 51 45.1323 50.3728 45.1323 49.5889C45.1547 48.8273 45.7595 48.2002 46.5434 48.2002C47.3497 48.2002 47.9769 48.8049 47.9769 49.6113Z" fill="#595959"/>
<path d="M66.0072 49.6343C66.0072 50.4183 65.4025 51.0006 64.6185 51.023C63.8122 51.023 63.1403 50.3735 63.1627 49.6119C63.1851 48.8504 63.8122 48.2233 64.5961 48.2233C65.4249 48.2009 66.0296 48.8056 66.0072 49.6343Z" fill="#595959"/>
</svg>
