<svg width="75" height="75" viewBox="0 0 75 75" fill="none" xmlns="http://www.w3.org/2000/svg">
<path d="M75 6.02106C75 22.8669 75 39.7127 75 56.5585C74.9506 56.7394 74.9013 56.9039 74.8848 57.0849C74.7203 58.1048 74.3749 59.059 73.7497 59.898C72.4336 61.6583 70.6405 62.4479 68.5019 62.4644C66.0507 62.4808 63.583 62.4644 61.1318 62.4644C54.7488 62.4644 48.3494 62.4808 41.9664 62.4479C41.3249 62.4479 41.1768 62.6289 41.1932 63.2375C41.2426 64.4385 41.2426 65.6558 41.1932 66.8568C41.1768 67.449 41.3907 67.5642 41.9335 67.5642C44.9605 67.5477 47.9875 67.5806 51.0309 67.5477C54.5843 67.5148 57.1178 70.147 57.4304 73.1246C57.5291 74.0129 57.2987 74.6381 56.4597 75C43.8418 75 31.2075 75 18.5896 75C17.7506 74.6381 17.438 73.9965 17.6354 73.1246C17.8 72.4501 17.8987 71.7427 18.1948 71.134C19.3628 68.7322 21.3534 67.5642 24.002 67.5642C27.0454 67.5477 30.1053 67.5477 33.1487 67.5642C33.6422 67.5642 33.8397 67.449 33.8232 66.9226C33.7903 65.7216 33.8068 64.5043 33.8068 63.3034C33.8068 62.4644 33.8068 62.4644 32.9842 62.4644C24.6436 62.4644 16.3194 62.4644 7.97872 62.4644C7.13972 62.4644 6.30072 62.415 5.47818 62.3657C3.2902 62.2011 1.10222 60.4409 0.460627 58.3352C0.279666 57.7594 0.16451 57.1507 0 56.5749C0 39.7291 0 22.8833 0 6.03751C0.032902 5.88945 0.0987057 5.72494 0.115157 5.57688C0.394823 3.50406 1.39833 1.87541 3.25729 0.904804C4.09629 0.444176 5.08335 0.279667 6.00461 0C26.9961 0 47.9875 0 68.9625 0C69.0941 0.032902 69.2257 0.098706 69.3738 0.115157C71.5124 0.378373 73.1575 1.41478 74.1445 3.3231C74.5723 4.14565 74.7203 5.11625 75 6.02106ZM72.5488 52.4951C72.5488 52.2154 72.5488 51.9851 72.5488 51.7712C72.5488 36.735 72.5488 21.6824 72.5488 6.64619C72.5488 4.06339 70.9366 2.46765 68.3703 2.46765C47.7901 2.46765 27.2264 2.46765 6.64619 2.46765C4.04694 2.46765 2.4512 4.06339 2.4512 6.64619C2.4512 21.7153 2.4512 36.7679 2.4512 51.837C2.4512 52.0509 2.46765 52.2648 2.4841 52.5115C25.8445 52.4951 49.1391 52.4951 72.5488 52.4951ZM37.4753 55.0285C26.3216 55.0285 15.1843 55.0285 4.03049 55.0285C3.63567 55.0285 3.24084 54.9956 2.86247 55.045C2.71441 55.0614 2.4841 55.2753 2.46765 55.4069C2.33604 58.0226 3.66857 59.9967 6.61329 59.9967C27.177 59.9967 47.7572 59.9967 68.3209 59.9967C68.798 59.9967 69.308 59.9309 69.7686 59.8158C71.4959 59.3551 72.4665 57.8581 72.5159 55.8017C72.5323 55.193 72.3843 55.0121 71.7427 55.0121C60.3422 55.045 48.9087 55.0285 37.4753 55.0285ZM20.3005 72.5159C31.7668 72.5159 43.2167 72.5159 54.7324 72.5159C54.683 72.3678 54.6666 72.2691 54.6172 72.1869C53.844 70.5911 52.5115 70.0154 50.8171 70.0154C41.95 70.0154 33.0829 70.0154 24.1994 70.0154C23.8539 70.0154 23.5084 70.0318 23.163 70.0812C21.7975 70.2621 20.5802 71.2821 20.3005 72.5159ZM38.6927 67.4984C38.6927 65.8204 38.6927 64.1917 38.6927 62.5466C37.8537 62.5466 37.0805 62.5466 36.2909 62.5466C36.2909 64.2246 36.2909 65.8368 36.2909 67.4984C37.097 67.4984 37.8701 67.4984 38.6927 67.4984Z" fill="#595959"/>
<path d="M37.4917 39.9597C36.7185 39.9597 35.9289 39.9597 35.1557 39.9597C34.2673 39.9433 33.7738 39.5485 33.7903 38.6766C33.8067 38.1008 33.4448 37.9856 33.0664 37.7718C32.6716 37.5579 32.4742 37.7882 32.2274 38.0185C31.6352 38.5614 30.9442 38.5943 30.3685 38.035C29.2169 36.9328 28.0818 35.7976 26.9796 34.6461C26.3709 34.0209 26.3873 33.3629 27.0289 32.6884C27.2757 32.4252 27.3744 32.2278 27.1934 31.8823C27.0125 31.5533 26.9631 31.1749 26.4202 31.1914C25.499 31.2243 25.0548 30.7801 25.0383 29.8424C25.0054 28.2631 25.0054 26.6838 25.0383 25.1045C25.0548 24.1997 25.499 23.7226 26.4202 23.7391C26.9796 23.7555 27.0289 23.3936 27.2099 23.0646C27.3908 22.7191 27.2757 22.5217 27.0289 22.2585C26.4038 21.6004 26.3873 20.9589 27.0289 20.3173C28.1147 19.1986 29.2169 18.0964 30.3356 17.0106C30.9936 16.369 31.6516 16.369 32.3261 17.0106C32.5564 17.2245 32.7539 17.3725 33.0664 17.1751C33.379 16.9942 33.8232 16.9777 33.7903 16.4184C33.7245 15.3326 34.4812 14.9707 35.3531 14.9707C36.7843 14.9707 38.2156 14.9707 39.6633 14.9707C40.5023 14.9707 41.3084 15.2997 41.2426 16.4677C41.2097 17.0435 41.6867 17.06 42.0158 17.1751C42.1967 17.2409 42.5257 17.1587 42.6738 17.0106C43.4305 16.369 44.0392 16.3526 44.7302 17.0271C45.8159 18.0964 46.8852 19.1657 47.9546 20.2515C48.6455 20.9424 48.6126 21.5511 47.9875 22.3078C47.8394 22.4888 47.7736 22.8178 47.8394 23.0317C47.9217 23.3936 48.0204 23.7391 48.5797 23.7391C49.5338 23.7391 49.9616 24.1997 49.978 25.1374C49.9945 26.7002 50.0109 28.2466 49.978 29.8095C49.9616 30.7636 49.5338 31.1914 48.5632 31.1749C48.0368 31.1585 48.0039 31.5368 47.8394 31.833C47.6584 32.1455 47.7242 32.3758 47.971 32.639C48.6455 33.3464 48.6455 33.988 47.9546 34.679C46.8852 35.7647 45.8159 36.834 44.7466 37.9034C44.0886 38.545 43.3812 38.545 42.7067 37.9034C42.4599 37.673 42.2625 37.5743 41.9664 37.7553C41.6538 37.9363 41.2426 37.9527 41.2426 38.5121C41.2261 39.5485 40.7984 39.9268 39.7455 39.9268C38.9723 39.9762 38.232 39.9597 37.4917 39.9597ZM45.454 21.3701C44.8289 20.745 44.2531 20.1692 43.6609 19.5605C43.1673 20.0376 42.5915 20.2186 41.9006 19.906C41.1768 19.577 40.4365 19.2973 39.6962 18.9847C39.2026 18.7873 38.8407 18.4748 38.8407 17.9154C38.8407 17.5371 38.6269 17.4384 38.2814 17.4548C37.755 17.4713 37.2121 17.4713 36.6856 17.4548C36.3566 17.4384 36.1921 17.57 36.1757 17.899C36.1592 18.5241 35.7479 18.8367 35.2215 19.0341C34.7609 19.1986 34.2838 19.3302 33.8396 19.5441C32.9842 19.9883 32.1452 20.4818 31.4213 19.6263C30.7797 20.2515 30.204 20.8108 29.5788 21.403C30.3027 21.9953 30.1546 22.7027 29.7433 23.4594C29.513 23.8871 29.2991 24.3478 29.1675 24.8084C28.9372 25.6638 28.5424 26.289 27.506 26.2067C27.506 27.0786 27.506 27.9012 27.506 28.7731C28.526 28.7566 28.9537 29.3489 29.1675 30.2208C29.2498 30.5498 29.3814 30.8788 29.5459 31.1914C30.023 32.0468 30.4507 32.8858 29.6282 33.6097C30.2369 34.2512 30.7962 34.827 31.3884 35.4522C31.9971 34.7448 32.721 34.8599 33.4777 35.2877C33.8396 35.4851 34.2015 35.666 34.5964 35.7812C35.5012 36.028 36.3073 36.3241 36.225 37.4921C37.1134 37.4921 37.9524 37.4921 38.8407 37.4921C38.742 36.4228 39.4165 36.0773 40.2391 35.8305C40.6503 35.7154 41.0451 35.5509 41.4235 35.337C42.2132 34.9093 42.9864 34.6625 43.6444 35.4686C44.2695 34.8435 44.8453 34.2677 45.4705 33.6426C44.6315 32.9681 44.9111 32.2113 45.3389 31.4217C45.5363 31.0598 45.7008 30.6814 45.8159 30.2866C46.0627 29.3982 46.4411 28.7073 47.5268 28.7731C47.5268 27.9012 47.5268 27.0786 47.5268 26.2067C46.3917 26.3383 46.0791 25.5651 45.8159 24.7097C45.6843 24.2655 45.4869 23.8213 45.2566 23.4101C44.8124 22.6698 44.7466 21.9953 45.454 21.3701Z" fill="#00A911"/>
<path d="M37.3108 5.03448C40.5188 5.01803 43.6115 5.67607 46.5563 6.92634C47.3788 7.27181 47.6914 8.04501 47.2472 8.83466C46.474 10.233 45.6844 11.6149 44.8618 12.9803C44.4176 13.737 43.8912 13.8851 43.0193 13.5561C41.4236 12.9474 39.7785 12.5855 38.0676 12.5197C34.7609 12.3881 31.7504 13.2271 29.0195 15.086C25.8938 17.2082 23.8868 20.1365 22.9327 23.7886C22.6694 24.8086 22.0772 25.1376 21.0408 24.8579C19.5931 24.4795 18.1454 24.1176 16.7142 23.7392C15.7765 23.4925 15.4475 22.9167 15.6942 21.9954C17.3393 15.7441 20.9914 10.9897 26.6177 7.8147C29.9243 5.95574 33.5271 5.06738 37.3108 5.03448ZM20.794 22.2751C20.9092 21.979 21.0079 21.7487 21.1066 21.5348C23.492 15.3657 27.9502 11.6313 34.399 10.3317C37.1463 9.77236 39.8936 9.98622 42.5916 10.8088C42.8054 10.8746 43.2167 10.9075 43.299 10.7923C43.7267 10.1507 44.0886 9.47624 44.5163 8.7195C38.413 6.69603 32.6552 7.1073 27.1935 10.3481C22.8175 12.9474 19.9057 16.7476 18.3428 21.65C19.1983 21.8638 19.9715 22.0612 20.794 22.2751Z" fill="#00A911"/>
<path d="M59.9638 27.4568C59.9473 30.6482 59.3386 33.7739 57.9897 36.7351C56.9039 39.1534 55.4068 41.292 53.5808 43.1839C52.9227 43.8748 52.166 43.8913 51.5244 43.1839C50.4716 42.0323 49.4516 40.8643 48.4316 39.6963C47.8723 39.0547 47.9052 38.3967 48.5139 37.7222C49.9945 36.0935 51.1131 34.251 51.7876 32.1617C52.8076 28.9538 52.7911 25.7623 51.6889 22.5873C51.0638 20.8106 51.0967 20.6625 52.7418 19.7248C53.8111 19.1161 54.864 18.491 55.9333 17.8823C57.0026 17.2572 57.71 17.5533 58.1871 18.7048C59.0425 20.7283 59.5854 22.834 59.8486 25.022C59.9309 25.7952 59.9144 26.6013 59.9638 27.4568ZM52.5279 40.6669C57.6771 35.1558 58.7135 26.5191 56.2129 20.5473C55.703 20.8435 55.2094 21.1725 54.6666 21.4028C54.1072 21.6496 54.025 21.9621 54.2059 22.5379C55.2259 25.8775 55.193 29.2335 54.1895 32.573C53.5479 34.6952 52.5279 36.62 51.179 38.3638C51.0638 38.5118 50.9651 38.8573 51.0473 38.9724C51.508 39.5482 52.0179 40.0747 52.5279 40.6669Z" fill="#00A911"/>
<path d="M38.7253 46.2925C38.7253 47.0328 38.7418 47.7731 38.7253 48.497C38.7089 49.5334 38.2647 49.9776 37.2447 49.9447C28.608 49.6814 22.1427 45.7332 17.7668 38.3138C17.3061 37.5242 17.4706 36.8497 18.2603 36.3726C19.6257 35.5501 21.0076 34.7604 22.4059 33.9872C23.1298 33.5759 23.7056 33.7898 24.232 34.5465C24.8407 35.4349 25.4 36.389 26.091 37.2116C28.3118 39.8602 31.125 41.5382 34.5303 42.1798C35.468 42.3608 36.4386 42.4266 37.3928 42.5253C38.314 42.624 38.7089 43.0352 38.7253 43.9565C38.7418 44.3513 38.7253 44.7297 38.7253 45.1245C38.7253 45.5193 38.7253 45.9142 38.7253 46.2925ZM20.3825 37.9519C22.6034 41.456 25.5152 44.0552 29.2002 45.7332C31.4211 46.7367 33.7407 47.3783 36.2577 47.477C36.2577 46.9012 36.2577 46.4077 36.2577 45.9306C36.2577 44.8778 36.2577 44.8778 35.2212 44.779C35.2048 44.779 35.1883 44.779 35.1554 44.779C31.9311 44.3678 29.0686 43.1175 26.5351 41.094C25.1039 39.9589 23.903 38.5935 22.883 37.0635C22.7843 36.9319 22.4882 36.7839 22.373 36.8332C21.715 37.1622 21.0899 37.5571 20.3825 37.9519Z" fill="#00A911"/>
<path d="M17.4382 33.7084C15.349 33.6755 13.7532 32.0304 13.7697 29.9082C13.7861 27.9341 15.497 26.2561 17.504 26.2726C19.5275 26.289 21.2384 27.9999 21.222 30.007C21.222 32.0633 19.5275 33.7249 17.4382 33.7084ZM17.4547 31.2572C18.1621 31.2737 18.7708 30.6979 18.7543 30.007C18.7543 29.3654 18.1456 28.7567 17.504 28.7402C16.8131 28.7238 16.2044 29.3325 16.2044 30.0234C16.2209 30.6814 16.7802 31.2572 17.4547 31.2572Z" fill="#00A911"/>
<path d="M51.2775 17.471C49.2047 17.4874 47.5103 15.8094 47.5103 13.7531C47.5103 11.7296 49.2047 10.0352 51.2282 10.0352C53.2681 10.0352 54.9461 11.6967 54.9461 13.7366C54.9625 15.793 53.3339 17.4545 51.2775 17.471ZM51.2446 15.0034C51.952 15.0034 52.4785 14.4769 52.4949 13.7695C52.5114 13.0621 51.9191 12.4535 51.2282 12.4699C50.5372 12.4864 49.945 13.1115 49.9614 13.786C49.9944 14.4605 50.5701 15.0034 51.2446 15.0034Z" fill="#00A911"/>
<path d="M41.2916 43.7264C41.3081 41.6864 43.0025 39.992 45.0096 40.0249C47.033 40.0578 48.7275 41.7687 48.711 43.7757C48.6946 45.8814 47.0166 47.4936 44.8615 47.4607C42.8709 47.4443 41.2752 45.7663 41.2916 43.7264ZM46.2269 43.8251C46.2598 43.1012 45.7169 42.509 45.026 42.4761C44.368 42.4596 43.7593 43.019 43.7428 43.6935C43.7099 44.4173 44.2528 44.9931 44.9602 45.0095C45.6511 45.0424 46.2105 44.5325 46.2269 43.8251Z" fill="#00A911"/>
<path d="M43.6772 27.5884C43.5785 31.0925 40.7653 33.7905 37.3106 33.6918C33.9382 33.5931 31.2238 30.747 31.306 27.4239C31.3883 23.8705 34.2014 21.2877 37.5409 21.3206C41.0121 21.3371 43.7594 24.2324 43.6772 27.5884ZM37.4916 31.2735C39.5644 31.2735 41.3082 29.5297 41.2753 27.4733C41.2424 25.4169 39.5315 23.7225 37.4916 23.7225C35.4517 23.7225 33.7408 25.4169 33.7079 27.4733C33.675 29.5132 35.4188 31.2735 37.4916 31.2735Z" fill="#00A911"/>
</svg>
