<svg width="75" height="75" viewBox="0 0 75 75" fill="none" xmlns="http://www.w3.org/2000/svg">
<path d="M34.2279 0.0167374C35.3325 0.100424 36.4372 0.184111 37.5418 0.301272C44.1531 0.920554 50.5802 2.22607 56.3881 5.65722C57.5932 6.36019 58.6978 7.28074 59.7188 8.21803C61.5767 9.94198 62.514 12.0844 62.4972 14.6954C62.447 22.1602 62.4805 29.6418 62.4637 37.1067C62.4637 38.7135 62.4637 40.337 62.447 41.9438C62.4303 43.1154 61.8612 43.7681 60.8737 43.7681C60.0034 43.7681 59.3506 43.0149 59.3339 41.9605C59.3171 40.1361 59.3339 38.3285 59.3171 36.5041C59.3171 36.3535 59.3004 36.2029 59.3004 36.1359C57.8944 37.0397 56.5387 38.0272 55.0658 38.8306C51.1995 40.9228 46.9984 42.0609 42.6969 42.8141C38.4122 43.5673 34.094 43.8853 29.759 43.7681C23.6331 43.6008 17.6077 42.8308 11.7998 40.7721C8.73689 39.701 5.84133 38.3118 3.39768 36.1359C3.34747 36.0857 3.28052 36.069 3.14662 36.002C3.12988 36.2531 3.11314 36.4707 3.11314 36.6715C3.11314 39.4834 3.12988 42.312 3.11314 45.1239C3.11314 46.195 3.43115 47.1323 4.06717 47.9692C5.30574 49.6262 6.92926 50.8313 8.77036 51.6849C10.6115 52.5385 12.5363 53.2415 14.4276 53.9779C15.1138 54.2457 15.549 54.6641 15.5825 55.4173C15.6159 56.0868 15.3314 56.6894 14.6954 56.8735C14.2267 57.0074 13.6409 57.0074 13.189 56.8567C9.82482 55.7688 6.59451 54.5804 3.18009 51.6514C3.16336 51.8523 3.12988 52.0196 3.12988 52.187C3.12988 54.8817 3.18009 57.5932 3.11314 60.2879C3.06293 62.0118 3.71569 63.3675 4.8873 64.5392C6.36019 66.0288 8.11761 67.1167 10.0257 67.9201C11.532 68.5561 13.0719 69.075 14.595 69.6441C15.3147 69.9118 15.6829 70.414 15.6829 71.1169C15.6829 71.8032 15.3314 72.3722 14.6786 72.5731C14.3606 72.6735 13.9757 72.707 13.6744 72.6233C10.0759 71.4852 6.57777 70.1294 3.632 67.6523C1.75742 66.0957 0.451908 64.2044 0 61.7608C0 45.5758 0 29.4075 0 13.2225C0.0669493 12.938 0.150636 12.6702 0.217585 12.3856C0.769917 10.2265 2.14238 8.61973 3.79938 7.23053C6.61125 4.90404 9.9085 3.53158 13.3397 2.46039C17.2562 1.23856 21.2899 0.535595 25.3905 0.25106C26.2944 0.184111 27.1814 0.0836867 28.0853 0C30.1272 0.0167373 32.1692 0.0167374 34.2279 0.0167374ZM31.1147 3.11314C29.9264 3.18009 27.6501 3.26378 25.3905 3.43115C20.7376 3.7659 16.185 4.65298 11.8166 6.34345C9.15532 7.36443 6.62799 8.63647 4.63624 10.7788C2.72819 12.8208 2.6445 15.0469 4.43539 17.1725C4.85383 17.6746 5.33921 18.1265 5.85807 18.545C8.46909 20.6371 11.5153 21.859 14.6786 22.7963C18.6454 23.9846 22.7126 24.6206 26.8467 24.8549C31.031 25.106 35.1986 25.0558 39.3495 24.5369C42.948 24.085 46.4963 23.3821 49.9107 22.0933C52.572 21.1058 55.1663 19.9509 57.2752 17.9759C58.5137 16.8043 59.4845 15.4988 59.3171 13.6577C59.1832 12.2015 58.3129 11.1471 57.3086 10.2098C55.1663 8.20129 52.5552 6.97947 49.827 6.0087C44.1196 4.00022 38.1946 3.26378 31.1147 3.11314ZM46.965 38.6632C48.0194 38.3285 49.0906 38.0272 50.1283 37.6423C52.7226 36.6882 55.183 35.4999 57.2417 33.6086C58.2459 32.688 59.2167 31.6503 59.2502 30.2444C59.3506 26.9806 59.2836 23.7168 59.2836 20.3359C58.9322 20.6204 58.6644 20.8547 58.3798 21.089C55.4843 23.3821 52.1368 24.7545 48.6387 25.7922C43.9857 27.1814 39.2156 27.8844 34.3952 28.0685C28.9054 28.2861 23.4323 27.9848 18.0261 26.8634C14.4276 26.1102 10.896 25.106 7.63223 23.3486C6.07565 22.5117 4.6195 21.474 3.11314 20.5367C3.11314 20.6873 3.11314 20.9049 3.11314 21.1225C3.11314 23.6666 3.19683 26.2107 3.07967 28.7547C2.97925 30.9306 3.88306 32.5206 5.43963 33.8429C8.03392 36.0857 11.1471 37.3577 14.3606 38.3452C19.9509 40.0524 25.7085 40.6885 31.5331 40.655C35.366 40.6382 39.1821 40.3537 42.948 39.5838C43.7514 39.4164 44.5715 39.2825 45.2745 39.1486" fill="#595959"/>
<path d="M22.6291 74.9997C21.9596 74.6817 21.2567 74.4307 20.6541 74.029C19.3821 73.1754 18.7628 71.8866 18.7461 70.3802C18.7293 68.1374 18.7796 65.8946 18.7963 63.6351C18.813 62.6141 19.2817 61.7772 19.9512 60.9236C18.6289 59.5344 18.6959 57.777 18.7293 56.0196C18.7628 54.3459 18.6791 52.6554 18.813 50.9816C18.9637 48.7556 20.9387 46.9312 23.1815 46.9145C27.7173 46.881 32.2698 46.8977 36.8057 46.8977C42.9315 46.8977 49.0574 46.8977 55.2 46.8977C60.2881 46.8977 65.3763 46.8977 70.4644 46.9145C72.5901 46.9145 74.4479 48.4878 74.8664 50.5632C74.8831 50.6636 74.9501 50.7641 75.0003 50.8645C75.0003 53.4086 75.0003 55.9526 75.0003 58.4967C74.6488 59.3336 74.2973 60.1704 73.9625 60.9571C74.2973 61.7103 74.6488 62.4802 75.0003 63.2668C75.0003 65.8109 75.0003 68.355 75.0003 70.8991C74.7492 71.8866 74.4145 72.7904 73.6613 73.5603C72.8914 74.3637 71.9373 74.7319 70.8996 74.983C54.7983 74.9997 38.7137 74.9997 22.6291 74.9997ZM46.8313 71.8698C54.5305 71.8698 62.2297 71.8698 69.9288 71.8698C71.3348 71.8698 71.8369 71.351 71.8369 69.9283C71.8369 68.0872 71.8369 66.2461 71.8369 64.405C71.8369 63.066 71.2176 62.4635 69.8786 62.4635C63.1837 62.4635 56.4888 62.4635 49.7771 62.4635C43.2328 62.4635 36.7052 62.4635 30.1609 62.4635C28.052 62.4635 25.9431 62.4635 23.8342 62.4802C22.445 62.4802 21.876 63.0493 21.876 64.4217C21.8592 66.2796 21.8425 68.1374 21.8592 70.012C21.8592 71.3008 22.4618 71.8698 23.7338 71.8698C31.433 71.8698 39.1322 71.8698 46.8313 71.8698ZM46.8648 50.0109V50.0276C39.1489 50.0276 31.4162 50.0276 23.7003 50.0276C22.445 50.0276 21.8927 50.5465 21.876 51.785C21.8425 53.7433 21.8592 55.6848 21.876 57.6431C21.8927 58.7645 22.4618 59.3001 23.5664 59.3503C23.7505 59.3503 23.9347 59.3503 24.1188 59.3503C31.751 59.3503 39.3665 59.3503 46.9987 59.3503C54.5975 59.3503 62.2129 59.3503 69.8117 59.3503C71.385 59.3503 71.8536 58.8984 71.8536 57.3418C71.8536 55.5509 71.8536 53.76 71.8536 51.9524C71.8536 50.5297 71.3013 49.9941 69.8786 49.9941C62.1962 50.0109 54.5305 50.0109 46.8648 50.0109Z" fill="#00A911"/>
<path d="M60.8737 68.7397C58.8318 68.7397 56.7898 68.7565 54.7479 68.7397C53.4256 68.723 52.7059 67.4677 53.3754 66.363C53.7269 65.794 54.2959 65.6266 54.8985 65.6266C58.4133 65.6098 61.9282 65.6266 65.443 65.6266C65.9953 65.6266 66.5309 65.6098 67.0665 65.6266C68.0875 65.6768 68.7235 66.3128 68.7068 67.2334C68.6901 68.1372 68.0038 68.7397 66.9829 68.7397C64.9576 68.7397 62.9157 68.7397 60.8737 68.7397Z" fill="#00A911"/>
<path d="M26.5284 68.7404C25.6748 68.7404 24.9718 68.0039 24.9886 67.1671C25.022 66.3469 25.7752 65.6105 26.5954 65.6272C27.4322 65.644 28.1185 66.3637 28.1017 67.2173C28.085 68.0709 27.3988 68.7404 26.5284 68.7404Z" fill="#00A911"/>
<path d="M60.8905 56.2547C58.8652 56.2547 56.8568 56.2547 54.8316 56.2547C53.9947 56.2547 53.4089 55.8865 53.2248 55.2505C53.0239 54.5977 53.1076 53.945 53.6934 53.5266C54.0114 53.309 54.4299 53.1416 54.8148 53.1249C58.9155 53.1081 63.0328 53.1081 67.1335 53.1249C67.9369 53.1249 68.4892 53.56 68.6901 54.2128C68.8742 54.8321 68.6399 55.6187 68.054 55.9367C67.7026 56.1376 67.2339 56.2213 66.8322 56.2213C64.8405 56.2715 62.8655 56.2547 60.8905 56.2547Z" fill="#00A911"/>
<path d="M28.1021 54.6972C28.0854 55.5843 27.4326 56.2371 26.5456 56.2371C25.625 56.2371 24.9555 55.5341 24.989 54.6303C25.0225 53.8102 25.7254 53.1574 26.5623 53.1741C27.4661 53.1741 28.1021 53.8102 28.1021 54.6972Z" fill="#00A911"/>
</svg>
