<svg width="70" height="75" viewBox="0 0 70 75" fill="none" xmlns="http://www.w3.org/2000/svg">
<path d="M55.6811 23.2085C55.8587 23.2085 55.9716 23.2085 56.0846 23.2085C58.3441 23.2085 60.6037 23.2085 62.8632 23.2085C66.4462 23.2085 69.1899 25.92 69.206 29.5029C69.2221 35.7489 69.206 41.9787 69.206 48.2247C69.206 49.9032 69.206 51.5656 69.206 53.2441C69.206 56.8109 66.4623 59.5546 62.8955 59.5546C59.7644 59.5546 56.6495 59.5546 53.5184 59.5546C53.4216 59.5546 53.3086 59.5546 53.1634 59.5546C53.1634 59.4094 53.1634 59.2964 53.1634 59.1995C53.1634 57.1821 53.1634 55.1808 53.1634 53.1634C53.1634 52.8729 53.0988 52.776 52.7922 52.776C41.1072 52.7922 29.4222 52.776 17.7211 52.776C17.2531 52.776 16.785 52.776 16.317 52.7599C16.0749 52.7599 16.0103 52.889 16.0103 53.0827C16.0103 53.3732 16.0426 53.6637 16.0426 53.9542C16.0426 55.7618 16.0426 57.5533 16.0426 59.3609C16.0426 59.4094 16.0426 59.4416 16.0265 59.5223C15.9135 59.5223 15.8005 59.5385 15.7037 59.5385C12.5726 59.5385 9.45772 59.5385 6.32667 59.5385C3.13106 59.5385 0.564881 57.3596 0.0645575 54.1963C0.0161391 53.9058 0 53.5991 0 53.2925C0 45.368 0 37.4597 0 29.5352C0 26.8561 1.51711 24.5804 3.90575 23.6282C4.6643 23.3377 5.439 23.1763 6.24597 23.1763C8.52163 23.1763 10.7812 23.1763 13.0568 23.1763C13.1859 23.1763 13.3312 23.1763 13.4926 23.1763C13.4926 19.9484 13.4926 16.7366 13.4926 13.5087C14.7999 13.5087 16.0749 13.5087 17.3822 13.5087C17.3822 8.98968 17.3822 4.50291 17.3822 0C28.8574 0 40.3002 0 51.7754 0C51.7754 4.50291 51.7754 8.98968 51.7754 13.4926C53.0827 13.4926 54.3416 13.4926 55.6488 13.4926C55.6811 16.7689 55.6811 19.9645 55.6811 23.2085ZM54.7128 57.9729C54.7773 57.9891 54.8096 58.0052 54.8419 58.0052C56.4397 58.0214 58.0214 58.0375 59.6192 58.0375C60.7005 58.0375 61.7818 58.0214 62.8632 58.0052C65.6069 57.9891 67.6566 55.9555 67.6566 53.1957C67.6566 51.6301 67.6566 50.0807 67.6566 48.5152C67.6566 44.2705 67.6566 40.042 67.6566 35.7973C67.6566 35.6682 67.6566 35.5391 67.6566 35.3777C45.594 35.3777 23.5959 35.3777 1.56553 35.3777C1.54939 35.4907 1.54939 35.5875 1.54939 35.6843C1.54939 41.5752 1.53325 47.4823 1.54939 53.3732C1.54939 55.7457 3.37315 57.7793 5.74565 57.9407C7.26276 58.0536 8.796 58.0052 10.3293 58.0214C11.6043 58.0214 12.8631 58.0052 14.1382 57.9891C14.2511 57.9891 14.3641 57.9891 14.5094 57.9891C14.5094 55.7134 14.5094 53.4862 14.5094 51.2428C27.9213 51.2428 41.3009 51.2428 54.7128 51.2428C54.7128 53.5023 54.7128 55.7457 54.7128 57.9729ZM18.9477 23.1924C29.4061 23.1924 39.816 23.1924 50.2421 23.1924C50.2421 15.9781 50.2421 8.79601 50.2421 1.59781C39.816 1.59781 29.4061 1.59781 18.9477 1.59781C18.9477 8.79601 18.9477 15.9781 18.9477 23.1924ZM67.6566 33.8444C67.6566 33.6831 67.6566 33.5539 67.6566 33.441C67.6566 32.1659 67.6566 30.8748 67.6566 29.5998C67.6566 26.8076 65.623 24.7579 62.8309 24.7579C58.3764 24.7579 53.9381 24.7579 49.4836 24.7579C35.0549 24.7579 20.6262 24.7579 6.19755 24.7579C3.84119 24.7579 1.7592 26.5978 1.59781 28.9381C1.48483 30.5197 1.56553 32.1175 1.54939 33.7153C1.54939 33.7476 1.56553 33.7799 1.59781 33.8444C23.5959 33.8444 45.6101 33.8444 67.6566 33.8444ZM17.3822 15.0904C16.6882 15.0904 16.0426 15.1065 15.3809 15.0904C15.1227 15.0904 15.042 15.1711 15.042 15.4293C15.0581 17.9148 15.042 20.3841 15.042 22.8696C15.042 22.9826 15.0581 23.0956 15.0581 23.1924C15.8489 23.1924 16.6075 23.1924 17.3661 23.1924C17.3822 20.481 17.3822 17.818 17.3822 15.0904ZM54.1479 23.1924C54.1479 22.6598 54.1479 22.1595 54.1479 21.6592C54.1479 19.5772 54.1479 17.4952 54.1479 15.4132C54.1479 15.155 54.0672 15.0581 53.809 15.0743C53.5023 15.0904 53.1795 15.0743 52.8729 15.0743C52.5178 15.0743 52.1789 15.0743 51.8238 15.0743C51.8238 17.8018 51.8238 20.481 51.8238 23.1763C52.5985 23.1924 53.3409 23.1924 54.1479 23.1924Z" fill="#595959"/>
<path d="M17.4146 75.0001C17.4146 68.0601 17.4146 61.1202 17.4146 54.1641C28.8574 54.1641 40.3003 54.1641 51.7755 54.1641C51.7755 61.104 51.7755 68.044 51.7755 75.0001C40.3326 75.0001 28.8897 75.0001 17.4146 75.0001ZM18.9639 73.4669C29.39 73.4669 39.8 73.4669 50.2261 73.4669C50.2261 67.5275 50.2261 61.6205 50.2261 55.7135C39.8 55.7135 29.39 55.7135 18.9639 55.7135C18.9639 61.6366 18.9639 67.5275 18.9639 73.4669Z" fill="#00A911"/>
<path d="M60.2647 32.2469C58.6508 32.2469 57.3273 30.9396 57.3112 29.3095C57.295 27.6794 58.6185 26.356 60.2647 26.3398C61.8787 26.3398 63.2182 27.6471 63.2182 29.2772C63.2182 30.9234 61.8948 32.2469 60.2647 32.2469ZM62.04 29.3256C62.04 28.3411 61.2492 27.5342 60.2647 27.518C59.2802 27.5019 58.4732 28.3089 58.4571 29.2934C58.4571 30.2779 59.2479 31.0848 60.2324 31.101C61.2331 31.101 62.04 30.294 62.04 29.3256Z" fill="#595959"/>
<path d="M55.4715 29.2935C55.4715 30.9397 54.1319 32.2632 52.5179 32.247C50.8879 32.2309 49.5806 30.9236 49.5806 29.2935C49.5806 27.6473 50.904 26.3239 52.5664 26.34C54.1642 26.3561 55.4715 27.6957 55.4715 29.2935ZM54.3094 29.2935C54.3094 28.309 53.5025 27.5182 52.5179 27.5182C51.5496 27.5182 50.7426 28.3413 50.7426 29.3258C50.7587 30.2942 51.5496 31.1011 52.5179 31.1011C53.5186 31.085 54.3094 30.2942 54.3094 29.2935Z" fill="#595959"/>
<path d="M47.7406 29.2934C47.7406 30.9234 46.4333 32.2469 44.8193 32.2469C43.1247 32.2469 41.882 30.9234 41.8658 29.3256C41.8335 27.6794 43.1408 26.356 44.7871 26.3398C46.4171 26.3398 47.7406 27.6471 47.7406 29.2934ZM44.8678 27.518C43.8187 27.5019 42.9956 28.2604 42.9956 29.2449C42.9956 30.3263 43.7219 31.0848 44.8193 31.101C45.8038 31.1171 46.6108 30.2779 46.5947 29.3095C46.5785 28.3573 45.7877 27.4857 44.8678 27.518Z" fill="#595959"/>
<path d="M34.5708 60.523C30.7942 60.523 27.0337 60.523 23.257 60.523C23.1602 60.523 23.0634 60.523 22.9827 60.523C22.5469 60.4907 22.2241 60.1841 22.2241 59.7645C22.2241 59.3448 22.5308 59.0221 22.9665 58.9736C23.0472 58.9736 23.1279 58.9736 23.2086 58.9736C30.7942 58.9736 38.3959 58.9736 45.9814 58.9736C46.5301 58.9736 46.8045 59.135 46.9336 59.5062C47.0789 59.9743 46.7884 60.4585 46.2881 60.5069C46.1589 60.523 46.046 60.523 45.9169 60.523C42.1241 60.523 38.3474 60.523 34.5708 60.523Z" fill="#00A911"/>
<path d="M34.6353 68.6416C38.4604 68.6416 42.2854 68.6416 46.1105 68.6416C46.4333 68.6416 46.7076 68.7384 46.869 69.0289C47.0143 69.2872 47.0143 69.5615 46.8529 69.8359C46.7076 70.078 46.4655 70.191 46.2073 70.2071C46.0136 70.2233 45.8038 70.2071 45.6101 70.2071C38.1376 70.2071 30.665 70.2071 23.1924 70.2071C22.8212 70.2071 22.5146 70.1426 22.3209 69.7875C22.0627 69.2872 22.3855 68.7062 22.9342 68.6577C23.0633 68.6416 23.1763 68.6577 23.3054 68.6577C27.082 68.6416 30.8587 68.6416 34.6353 68.6416Z" fill="#00A911"/>
<path d="M34.603 65.3487C30.8425 65.3487 27.082 65.3487 23.3215 65.3487C23.1924 65.3487 23.0472 65.3487 22.918 65.3325C22.5468 65.3003 22.2725 65.0098 22.2402 64.6385C22.2079 64.2835 22.45 63.9284 22.8051 63.8477C22.9665 63.8154 23.1601 63.8154 23.3377 63.8154C30.9071 63.8154 38.4765 63.8154 46.062 63.8154C46.756 63.8154 47.1595 64.2996 46.9336 64.8645C46.8206 65.155 46.6108 65.3164 46.3041 65.3487C46.175 65.3648 46.0298 65.3648 45.9006 65.3648C42.124 65.3487 38.3635 65.3487 34.603 65.3487Z" fill="#00A911"/>
</svg>
