<svg width="24" height="24" viewBox="0 0 24 24" fill="none" xmlns="http://www.w3.org/2000/svg">
<path d="M23.3593 12.4302C23.4874 12.6133 23.6156 12.7597 23.7254 12.9428C23.8902 13.1991 23.9634 13.492 23.9634 13.8032C23.9634 14.7368 23.9634 15.6705 23.9634 16.6224C23.9634 17.135 23.762 17.5561 23.3959 17.9222C23.3776 17.9405 23.341 17.9588 23.3043 17.9954C23.341 18.0137 23.3776 18.032 23.3959 18.0686C23.762 18.4348 23.9634 18.8741 23.9634 19.3867C23.9634 20.3021 23.9634 21.2174 23.9634 22.151C23.9634 23.1762 23.1396 24 22.1144 24C15.3593 24 8.60412 24 1.86728 24C0.823799 24 0.0183066 23.1762 0 22.151C0 21.2723 0.0183066 20.4119 0 19.5332C0 18.9291 0.183066 18.4165 0.640732 17.9954C0.622426 17.9771 0.604119 17.9588 0.585812 17.9405C0.201373 17.5744 0 17.1167 0 16.5858C0 15.6888 0 14.7918 0 13.8764C0 13.3272 0.201373 12.8696 0.604119 12.4851C0.622425 12.4668 0.622426 12.4668 0.640732 12.4668C0.530892 12.3387 0.439359 12.2288 0.347826 12.119C0.128146 11.8078 0 11.46 0 11.0755C0 9.51945 0 7.96339 0 6.42563C0 6.0595 0.0915328 5.71167 0.256292 5.38215C0.988558 3.93593 1.70252 2.4897 2.43478 1.04348C2.70938 0.494279 3.16705 0.146453 3.77117 0.0366134C3.89931 0.0183068 4.00915 0 4.1373 0C9.373 0 14.6087 0 19.8627 0C20.6499 0 21.2174 0.366133 21.5835 1.06178C22.2975 2.4897 23.0114 3.91762 23.7254 5.34554C23.9085 5.71167 24 6.0778 24 6.49885C24 8 24 9.50114 24 10.984C23.9817 11.5515 23.7803 12.0275 23.3593 12.4302ZM0.933638 6.44394C8.31121 6.44394 15.6888 6.44394 23.0664 6.44394C23.0664 6.20595 23.0114 6.00458 22.9199 5.8032C22.1876 4.35698 21.4737 2.89245 20.7414 1.44622C20.5584 1.0984 20.2838 0.915332 19.881 0.915332C14.627 0.915332 9.373 0.915332 4.11899 0.915332C3.73455 0.915332 3.44165 1.0984 3.25858 1.44622C3.16705 1.61098 3.07551 1.79405 3.00229 1.95881C2.36156 3.24027 1.72082 4.50343 1.0984 5.7849C0.988558 5.98627 0.915331 6.20595 0.933638 6.44394ZM23.0481 7.37757C15.6705 7.37757 8.29291 7.37757 0.915332 7.37757C0.915332 7.41419 0.915332 7.43249 0.915332 7.46911C0.915332 8.65904 0.915332 9.84897 0.915332 11.0206C0.915332 11.5698 1.31808 11.9725 1.86728 11.9725C8.60412 11.9725 15.341 11.9725 22.0778 11.9725C22.1327 11.9725 22.1876 11.9725 22.2426 11.9725C22.7368 11.8993 23.0481 11.5149 23.0481 11.0206C23.0481 9.83066 23.0481 8.64073 23.0481 7.46911C23.0481 7.4508 23.0481 7.41419 23.0481 7.37757ZM11.9908 23.0481C15.3593 23.0481 18.7277 23.0481 22.0778 23.0481C22.6453 23.0481 23.0481 22.6453 23.0481 22.0778C23.0481 21.1808 23.0481 20.3021 23.0481 19.405C23.0481 18.8375 22.6636 18.4348 22.0778 18.4348C15.341 18.4348 8.60412 18.4348 1.88558 18.4348C1.31808 18.4348 0.915332 18.8375 0.915332 19.405C0.915332 20.3021 0.915332 21.1991 0.915332 22.0961C0.915332 22.151 0.915332 22.1876 0.915332 22.2426C0.988558 22.7368 1.373 23.0481 1.86728 23.0481C5.254 23.0481 8.62243 23.0481 11.9908 23.0481ZM11.9908 17.5194C15.341 17.5194 18.7094 17.5194 22.0595 17.5194C22.1144 17.5194 22.1876 17.5194 22.2426 17.5194C22.7368 17.4462 23.0481 17.0618 23.0481 16.5675C23.0481 15.6705 23.0481 14.7918 23.0481 13.8947C23.0481 13.3089 22.6636 12.9245 22.0595 12.9245C15.341 12.9245 8.62243 12.9245 1.90389 12.9245C1.31808 12.9245 0.915332 13.3089 0.915332 13.913C0.915332 14.7918 0.915332 15.6705 0.915332 16.5675C0.915332 17.1716 1.29977 17.5561 1.90389 17.5561C5.27231 17.5195 8.62243 17.5194 11.9908 17.5194Z" fill="#595959"/>
<path d="M10.1419 2.7643C8.14651 2.7643 6.16939 2.7643 4.17397 2.7643C3.89937 2.7643 3.67969 2.56292 3.67969 2.28832C3.67969 2.05034 3.88106 1.84896 4.11905 1.83066C4.15566 1.83066 4.17397 1.83066 4.21058 1.83066C8.16481 1.83066 12.119 1.83066 16.0733 1.83066C16.1831 1.83066 16.293 1.84896 16.3845 1.90388C16.5676 1.99542 16.6408 2.2151 16.5859 2.41647C16.5309 2.61784 16.3662 2.7643 16.1465 2.7643C15.817 2.7643 15.5058 2.7643 15.1763 2.7643C13.492 2.7643 11.8261 2.7643 10.1419 2.7643Z" fill="#595959"/>
<path d="M18.8925 2.7643C18.5996 2.7643 18.2884 2.7643 17.9955 2.7643C17.7209 2.7643 17.5195 2.56293 17.5195 2.30663C17.5195 2.05034 17.7209 1.84897 17.9955 1.84897C18.5996 1.84897 19.2037 1.84897 19.8079 1.84897C20.0825 1.84897 20.2838 2.05034 20.2838 2.30663C20.2838 2.56293 20.0825 2.7643 19.7896 2.7643C19.4966 2.7643 19.2037 2.7643 18.8925 2.7643Z" fill="#595959"/>
<path d="M19.8259 11.0572C19.057 11.0572 18.4346 10.4348 18.4346 9.68421C18.4346 8.91533 19.057 8.29291 19.8076 8.29291C20.5764 8.29291 21.1989 8.91533 21.1989 9.66591C21.2172 10.4348 20.5948 11.0572 19.8259 11.0572ZM19.8259 10.2334C20.1371 10.2334 20.3751 9.99542 20.3751 9.68421C20.3751 9.373 20.1371 9.13501 19.8259 9.13501C19.5147 9.13501 19.2767 9.373 19.2767 9.68421C19.2767 9.99542 19.5147 10.2334 19.8259 10.2334Z" fill="#595959"/>
<path d="M15.6706 10.1419C15.2129 10.1419 14.7552 10.1419 14.2976 10.1419C14.0596 10.1419 13.8582 9.9588 13.8399 9.73912C13.8216 9.50114 13.9681 9.28146 14.206 9.24484C14.2244 9.24484 14.261 9.24484 14.2793 9.24484C15.2129 9.24484 16.1282 9.24484 17.0619 9.24484C17.245 9.24484 17.3914 9.33638 17.4646 9.50114C17.5379 9.6842 17.5195 9.84896 17.3914 9.99542C17.2999 10.1053 17.1717 10.1602 17.0253 10.1602C16.5859 10.1419 16.1282 10.1419 15.6706 10.1419Z" fill="#595959"/>
<path d="M2.76416 9.66588C2.76416 9.51943 2.76416 9.37297 2.76416 9.20822C2.76416 8.95192 2.96553 8.75055 3.22183 8.75055C3.47812 8.75055 3.67949 8.95192 3.67949 9.20822C3.67949 9.51943 3.67949 9.83064 3.67949 10.1419C3.67949 10.3981 3.47812 10.5995 3.22183 10.5995C2.96553 10.5995 2.76416 10.3981 2.76416 10.1419C2.76416 9.97709 2.76416 9.83064 2.76416 9.66588Z" fill="#595959"/>
<path d="M11.9907 9.68419C11.9907 9.53774 11.9907 9.37298 11.9907 9.22653C11.9907 8.97023 12.1921 8.76886 12.4484 8.76886C12.7047 8.76886 12.9061 8.97023 12.9061 9.22653C12.9061 9.53774 12.9061 9.84895 12.9061 10.1602C12.9061 10.4165 12.7047 10.6178 12.4484 10.6178C12.1921 10.6178 11.9907 10.4165 11.9907 10.1602C11.9907 9.9954 11.9907 9.83064 11.9907 9.68419Z" fill="#595959"/>
<path d="M9.68408 9.68419C9.68408 9.53773 9.68408 9.39128 9.68408 9.22652C9.68408 8.97023 9.88546 8.76886 10.1417 8.75055C10.398 8.75055 10.5994 8.95192 10.5994 9.22652C10.5994 9.51943 10.5994 9.83064 10.5994 10.1235C10.5994 10.3981 10.398 10.5995 10.1417 10.5995C9.88546 10.5995 9.68408 10.3981 9.68408 10.1235C9.68408 9.97709 9.68408 9.83064 9.68408 9.68419Z" fill="#595959"/>
<path d="M7.37744 9.66588C7.37744 9.51943 7.37744 9.37297 7.37744 9.20822C7.37744 8.95192 7.57881 8.75055 7.83511 8.75055C8.0914 8.75055 8.29277 8.95192 8.29277 9.20822C8.29277 9.51943 8.29277 9.83064 8.29277 10.1419C8.29277 10.3981 8.0914 10.5995 7.83511 10.5995C7.57881 10.5995 7.37744 10.3981 7.37744 10.1419C7.37744 9.97709 7.37744 9.83064 7.37744 9.66588Z" fill="#595959"/>
<path d="M5.98613 9.68419C5.98613 9.83064 5.98613 9.9954 5.98613 10.1419C5.98613 10.3982 5.78476 10.5995 5.52847 10.5995C5.27217 10.5995 5.0708 10.3982 5.0708 10.1419C5.0708 9.83064 5.0708 9.53774 5.0708 9.22653C5.0708 8.97023 5.27217 8.76886 5.52847 8.76886C5.78476 8.76886 5.98613 8.97023 5.98613 9.22653C6.00444 9.37298 5.98613 9.53774 5.98613 9.68419Z" fill="#595959"/>
<path d="M21.1989 20.7414C21.1989 21.5103 20.5764 22.1327 19.8259 22.1327C19.057 22.1327 18.4346 21.5103 18.4346 20.7414C18.4346 19.9726 19.057 19.3501 19.8076 19.3501C20.5948 19.3684 21.1989 19.9909 21.1989 20.7414ZM19.8259 21.3272C20.1554 21.3272 20.3934 21.071 20.4117 20.7597C20.4117 20.4302 20.1737 20.1739 19.8442 20.1739C19.5147 20.1739 19.2584 20.4302 19.2584 20.7414C19.2401 21.071 19.4964 21.3272 19.8259 21.3272Z" fill="#595959"/>
<path d="M15.6706 21.1991C15.2129 21.1991 14.7552 21.1991 14.2976 21.1991C14.0596 21.1991 13.8582 21.016 13.8399 20.7963C13.8216 20.5584 13.9681 20.3387 14.206 20.3021C14.2427 20.3021 14.261 20.3021 14.2976 20.3021C15.2129 20.3021 16.1466 20.3021 17.0619 20.3021C17.2633 20.3021 17.4097 20.3936 17.4829 20.5767C17.5562 20.7597 17.5379 20.9245 17.4097 21.0709C17.3182 21.1808 17.19 21.2174 17.0619 21.2174C16.5859 21.1991 16.1282 21.1991 15.6706 21.1991Z" fill="#595959"/>
<path d="M11.9907 20.7414C11.9907 20.595 11.9907 20.4302 11.9907 20.2838C11.9907 20.0275 12.1921 19.8261 12.4484 19.8261C12.7047 19.8261 12.9061 20.0275 12.9061 20.2838C12.9061 20.595 12.9061 20.9062 12.9061 21.2174C12.9061 21.4737 12.7047 21.6751 12.4484 21.6751C12.1921 21.6751 11.9907 21.4737 11.9907 21.2174C11.9907 21.0527 11.9907 20.9062 11.9907 20.7414Z" fill="#595959"/>
<path d="M10.5994 20.7414C10.5994 20.8879 10.5994 21.0343 10.5994 21.1991C10.5994 21.4737 10.398 21.6751 10.1417 21.6751C9.88546 21.6751 9.68408 21.4737 9.68408 21.1991C9.68408 20.8879 9.68408 20.595 9.68408 20.2838C9.68408 20.0275 9.88546 19.8261 10.1417 19.8261C10.398 19.8261 10.5994 20.0275 10.5994 20.2838C10.5994 20.4485 10.5994 20.595 10.5994 20.7414Z" fill="#595959"/>
<path d="M7.37744 20.7414C7.37744 20.595 7.37744 20.4302 7.37744 20.2838C7.37744 20.0275 7.57881 19.8261 7.83511 19.8261C8.0914 19.8261 8.29277 20.0275 8.29277 20.2838C8.29277 20.595 8.29277 20.9062 8.29277 21.2174C8.29277 21.4737 8.0914 21.6751 7.83511 21.6751C7.57881 21.6751 7.37744 21.4737 7.37744 21.2174C7.37744 21.0527 7.37744 20.9062 7.37744 20.7414Z" fill="#595959"/>
<path d="M5.98613 20.7597C5.98613 20.9062 5.98613 21.0526 5.98613 21.2174C5.98613 21.4737 5.78476 21.6751 5.52847 21.6751C5.27217 21.6751 5.0708 21.4737 5.0708 21.2174C5.0708 20.9062 5.0708 20.6133 5.0708 20.3021C5.0708 20.0458 5.27217 19.8444 5.52847 19.8444C5.78476 19.8444 5.98613 20.0458 5.98613 20.3204C6.00444 20.4485 5.98613 20.595 5.98613 20.7597Z" fill="#595959"/>
<path d="M3.69805 20.7414C3.69805 20.8879 3.69805 21.0527 3.69805 21.1991C3.69805 21.4554 3.49667 21.6568 3.24038 21.6568C2.98409 21.6568 2.78271 21.4554 2.78271 21.1991C2.78271 20.8879 2.78271 20.595 2.78271 20.2838C2.78271 20.0275 2.98409 19.8261 3.24038 19.8261C3.49667 19.8261 3.69805 20.0275 3.69805 20.2838C3.69805 20.4485 3.69805 20.595 3.69805 20.7414Z" fill="#595959"/>
<path d="M19.8259 16.6041C19.057 16.6041 18.4346 15.9817 18.4346 15.2311C18.4346 14.4622 19.057 13.8398 19.8076 13.8398C20.5764 13.8398 21.1989 14.4622 21.1989 15.2128C21.1989 15.9817 20.5948 16.6041 19.8259 16.6041ZM20.3751 15.2128C20.3751 14.9016 20.1188 14.6636 19.8259 14.6636C19.5147 14.6636 19.2767 14.9016 19.2767 15.2128C19.2767 15.524 19.533 15.762 19.8259 15.762C20.1371 15.762 20.3751 15.524 20.3751 15.2128Z" fill="#595959"/>
<path d="M15.6706 15.6705C15.2129 15.6705 14.7552 15.6705 14.2976 15.6705C14.0596 15.6705 13.8582 15.4874 13.8399 15.2494C13.8216 15.0114 13.9681 14.8101 14.206 14.7552C14.2427 14.7552 14.261 14.7552 14.2976 14.7552C15.2129 14.7552 16.1466 14.7552 17.0619 14.7552C17.2816 14.7552 17.4646 14.9016 17.5195 15.1213C17.5562 15.3227 17.4463 15.5423 17.2633 15.6339C17.19 15.6705 17.1168 15.6705 17.0436 15.6705C16.5859 15.6705 16.1282 15.6705 15.6706 15.6705Z" fill="#595959"/>
<path d="M11.9907 15.2128C11.9907 15.0664 11.9907 14.9016 11.9907 14.7552C11.9907 14.4989 12.1921 14.2975 12.4484 14.2975C12.7047 14.2975 12.9061 14.4989 12.9061 14.7552C12.9061 15.0664 12.9061 15.3776 12.9061 15.6888C12.9061 15.9451 12.7047 16.1465 12.4484 16.1465C12.1921 16.1465 11.9907 15.9451 11.9907 15.6888C11.9907 15.524 11.9907 15.3593 11.9907 15.2128Z" fill="#595959"/>
<path d="M10.5994 15.2128C10.5994 15.3593 10.5994 15.5057 10.5994 15.6705C10.5994 15.9451 10.398 16.1465 10.1417 16.1465C9.88546 16.1465 9.68408 15.9451 9.68408 15.6705C9.68408 15.3593 9.68408 15.0664 9.68408 14.7552C9.68408 14.4989 9.88546 14.2975 10.1417 14.2975C10.398 14.2975 10.5994 14.4989 10.5994 14.7552C10.5994 14.9016 10.5994 15.0664 10.5994 15.2128Z" fill="#595959"/>
<path d="M8.29277 15.2311C8.29277 15.3776 8.29277 15.524 8.29277 15.6888C8.29277 15.9451 8.0914 16.1465 7.83511 16.1465C7.57881 16.1465 7.37744 15.9451 7.37744 15.6888C7.37744 15.3776 7.37744 15.0847 7.37744 14.7735C7.37744 14.5172 7.57881 14.3158 7.83511 14.3158C8.0914 14.3158 8.29277 14.5172 8.29277 14.7918C8.29277 14.9199 8.29277 15.0664 8.29277 15.2311Z" fill="#595959"/>
<path d="M5.98613 15.2128C5.98613 15.3593 5.98613 15.524 5.98613 15.6705C5.98613 15.9268 5.78476 16.1281 5.52847 16.1281C5.27217 16.1281 5.0708 15.9268 5.0708 15.6705C5.0708 15.3593 5.0708 15.0664 5.0708 14.7551C5.0708 14.4989 5.27217 14.2975 5.52847 14.2792C5.78476 14.2792 5.98613 14.4805 5.98613 14.7551C6.00444 14.9199 5.98613 15.0664 5.98613 15.2128Z" fill="#595959"/>
<path d="M3.69805 15.2128C3.69805 15.3593 3.69805 15.5057 3.69805 15.6705C3.69805 15.9451 3.49667 16.1465 3.24038 16.1465C2.98409 16.1465 2.78271 15.9451 2.78271 15.6705C2.78271 15.3593 2.78271 15.0664 2.78271 14.7552C2.78271 14.4989 2.98409 14.2975 3.24038 14.2975C3.49667 14.2975 3.69805 14.4989 3.69805 14.7552C3.69805 14.9016 3.69805 15.0664 3.69805 15.2128Z" fill="#595959"/>
</svg>
