<svg width="23" height="24" viewBox="0 0 23 24" fill="none" xmlns="http://www.w3.org/2000/svg">
<path d="M22.4335 6.3925L22.4334 6.39249L22.4333 6.39593C22.4211 6.66349 22.2569 6.81449 22.0031 6.95565C21.3757 7.29124 20.7446 7.62683 20.1134 7.96249L20.1116 7.96344L20.1115 7.96351C19.4795 8.29958 18.8475 8.63571 18.219 8.97185L18.2188 8.97196C17.5131 9.35161 16.8054 9.72977 16.0976 10.108C14.6815 10.8648 13.2648 11.6219 11.8615 12.3918C11.6454 12.5102 11.4537 12.5658 11.2666 12.5658C11.0794 12.5658 10.8877 12.5102 10.6717 12.3918L10.6714 12.3916C7.8072 10.835 4.9218 9.29959 2.04275 7.76757C1.54288 7.50157 1.04319 7.23568 0.54384 6.96979L0.543855 6.96976L0.541562 6.96861C0.40291 6.89929 0.293038 6.8199 0.217895 6.72284C0.144273 6.62775 0.1 6.51064 0.1 6.35663C0.1 6.21136 0.143372 6.10186 0.21691 6.00994C0.29251 5.91544 0.403319 5.83543 0.544578 5.7577C2.24663 4.84458 3.95234 3.93146 5.6581 3.01831L5.65857 3.01806C7.36462 2.10475 9.07072 1.19142 10.7732 0.278088L10.7732 0.278098L10.7745 0.277384C10.897 0.209294 11.0063 0.154351 11.1272 0.1H11.4022C14.9311 1.99563 18.46 3.87673 22.0034 5.75779C22.1442 5.8353 22.2575 5.91828 22.3326 6.01843C22.4055 6.11562 22.4462 6.23387 22.4335 6.3925ZM2.18031 6.27343L2.06271 6.35183L2.17578 6.43663C2.23953 6.48444 2.27418 6.50224 2.30672 6.51852C3.06206 6.92263 3.81647 7.32676 4.57043 7.73065C6.73307 8.88916 8.89206 10.0457 11.059 11.1942L11.059 11.1942L11.0611 11.1953C11.1249 11.2272 11.2088 11.2389 11.2857 11.2369C11.3628 11.2348 11.4495 11.2184 11.5194 11.1788L19.8915 6.70788L19.8916 6.70799L19.8958 6.70542C20.0422 6.61762 20.1852 6.53182 20.3567 6.44608L20.5197 6.36461L20.3634 6.27088C20.3336 6.25299 20.3167 6.23882 20.3035 6.22709C20.3023 6.22596 20.3008 6.22457 20.299 6.22297C20.2877 6.21263 20.2671 6.19375 20.2423 6.18078C18.781 5.39902 17.3234 4.61725 15.8658 3.83545L15.8653 3.83521C14.4078 3.0535 12.9503 2.27176 11.4891 1.49002L11.4891 1.48999L11.4867 1.48876C11.399 1.44495 11.3184 1.42923 11.2374 1.4366C11.1598 1.44365 11.0887 1.47152 11.0214 1.50143L11.0213 1.50113L11.0141 1.50504C8.96012 2.62634 6.89879 3.73252 4.83496 4.84004C4.0217 5.27647 3.20804 5.71311 2.3943 6.15096C2.33511 6.18055 2.27251 6.21196 2.18031 6.27343Z" fill="#595959" stroke="white" stroke-width="0.2"/>
<path d="M2.16163 11.9224L1.99314 12.0066L2.15733 12.099C2.19021 12.1175 2.22206 12.1355 2.25305 12.153C2.43936 12.2582 2.59487 12.3461 2.76081 12.4228C4.13343 13.1603 5.50603 13.894 6.87853 14.6277L6.87919 14.6281C8.25283 15.3624 9.62635 16.0966 10.9999 16.8345L10.9998 16.8346L11.0025 16.8359C11.0978 16.8835 11.1867 16.9122 11.281 16.9122C11.3753 16.9122 11.4642 16.8835 11.5595 16.8359L11.5595 16.8359L11.5622 16.8345C14.4116 15.3002 17.2756 13.7659 20.1395 12.2463L20.1395 12.2464L20.1441 12.2437C20.217 12.1999 20.2893 12.1566 20.3906 12.0987L20.5489 12.0082L20.3876 11.9233C19.833 11.6314 19.3221 11.3541 18.8105 11.0764L18.8106 11.0764L18.8076 11.0748C18.6907 11.0164 18.5771 10.9596 18.4781 10.9031C18.3216 10.8048 18.2224 10.6743 18.181 10.5349C18.1397 10.3957 18.1538 10.2403 18.237 10.0867C18.4011 9.78379 18.7493 9.67207 19.0647 9.8487L19.0647 9.84874L19.0676 9.85025C19.4758 10.0617 19.8805 10.2804 20.2862 10.4997L20.2865 10.4999C20.6918 10.7189 21.0979 10.9385 21.5079 11.1508L21.5092 11.1514C21.5942 11.194 21.6761 11.2402 21.7604 11.2879L21.7614 11.2885C21.8445 11.3354 21.9301 11.3838 22.0197 11.4286C22.1501 11.4974 22.2527 11.5762 22.3228 11.6712C22.3918 11.7647 22.433 11.8789 22.433 12.0265C22.433 12.3081 22.268 12.4715 22.0176 12.6108C22.0173 12.6109 22.0171 12.6111 22.0168 12.6112L20.6156 13.3556L19.2128 14.1009L19.2125 14.101L11.7599 18.0903L11.7597 18.0905C11.5813 18.1865 11.4226 18.2281 11.2693 18.2265C11.1158 18.2249 10.9598 18.1798 10.7871 18.0901C8.27228 16.7352 5.74935 15.3882 3.2305 14.0434C2.35508 13.576 1.48016 13.1089 0.606237 12.6418C0.580599 12.6252 0.555639 12.6127 0.53572 12.6027L0.534055 12.6019C0.511502 12.5906 0.495019 12.5823 0.479046 12.5716L0.47912 12.5715L0.474683 12.5689C0.230234 12.4235 0.118066 12.2128 0.118066 12.0137C0.118066 11.815 0.229602 11.6088 0.472391 11.4708C1.21947 11.0593 1.97436 10.656 2.72603 10.2545C2.98801 10.1145 3.2496 9.97477 3.51033 9.83496L3.51048 9.83488C3.84227 9.65622 4.17716 9.77014 4.34047 10.0591L4.34046 10.0591L4.34115 10.0603C4.43023 10.213 4.44748 10.3742 4.40312 10.5195C4.35864 10.6652 4.24967 10.8029 4.07209 10.9015L4.07187 10.9016C3.57649 11.1785 3.08089 11.4409 2.57029 11.7035C2.51582 11.7307 2.46144 11.761 2.40411 11.7928C2.39755 11.7965 2.39094 11.8002 2.38429 11.8039C2.31884 11.8402 2.24731 11.8796 2.16163 11.9224Z" fill="#595959" stroke="white" stroke-width="0.2"/>
<path d="M2.17166 17.5802L2.01387 17.6704L2.17449 17.7554C2.44099 17.8965 2.69203 18.0319 2.93991 18.1655C3.15685 18.2825 3.37137 18.3981 3.59171 18.5152C3.59175 18.5152 3.59178 18.5152 3.59182 18.5152L10.9564 22.4606L10.9564 22.4606L10.9589 22.4619C11.0671 22.516 11.1703 22.5523 11.2792 22.5546C11.3895 22.5569 11.4948 22.5241 11.6076 22.4598C13.1755 21.6105 14.7471 20.7708 16.3211 19.9299C17.5637 19.2659 18.8078 18.6012 20.0527 17.9304L20.0527 17.9305L20.0548 17.9292C20.1571 17.8708 20.259 17.8126 20.3899 17.7399L20.5333 17.6602L20.3968 17.5692C20.3832 17.5602 20.3699 17.5511 20.3567 17.5422C20.293 17.499 20.2335 17.4586 20.1645 17.4302C19.669 17.1679 19.1743 16.9059 18.6941 16.644L18.6933 16.6436C18.4896 16.5349 18.3595 16.3938 18.3008 16.2457C18.243 16.0996 18.2504 15.9368 18.3397 15.7709C18.4299 15.6035 18.5607 15.5035 18.7157 15.4685C18.8727 15.4331 19.0673 15.4618 19.2861 15.578C19.7389 15.819 20.1954 16.0637 20.6521 16.3085L20.6523 16.3086C21.1089 16.5533 21.5656 16.7981 22.0187 17.0393L22.0191 17.0395C22.2809 17.1773 22.4479 17.3548 22.4479 17.6378C22.4479 17.9339 22.2683 18.1119 22.0045 18.2508L22.004 18.251C18.6287 20.0482 15.2534 21.8601 11.8782 23.6719L11.8782 23.6719L11.8771 23.6725C11.821 23.7005 11.7571 23.7324 11.6927 23.7801C11.5543 23.8651 11.4241 23.9015 11.2971 23.8999C11.1684 23.8984 11.0352 23.8576 10.8925 23.7761L10.8925 23.7761L10.8909 23.7752C9.83922 23.2006 8.77939 22.6339 7.72392 22.0696C7.35635 21.8731 6.98932 21.6769 6.62334 21.4807C5.13706 20.6779 3.64262 19.883 2.15242 19.0905C1.63507 18.8153 1.11823 18.5405 0.602425 18.2656L0.601973 18.2654C0.334838 18.1248 0.143945 17.9462 0.143945 17.6524C0.143945 17.3563 0.323497 17.1784 0.58736 17.0395L0.587363 17.0395L0.588279 17.039C1.04842 16.7907 1.51223 16.5423 1.97622 16.2939L1.9763 16.2939C2.44021 16.0455 2.90429 15.797 3.36474 15.5485L3.36474 15.5485L3.36581 15.5479C3.5986 15.4186 3.83271 15.421 4.0456 15.5838L4.0456 15.5838L4.04635 15.5843C4.15063 15.6626 4.21776 15.7501 4.25383 15.8463C4.28994 15.9426 4.2976 16.0547 4.27132 16.1861L4.2709 16.1884C4.23364 16.3995 4.11265 16.5357 3.91793 16.6266L3.91787 16.6265L3.91343 16.6288C3.66473 16.7605 3.41973 16.8921 3.17504 17.0236L3.17493 17.0237C2.93012 17.1552 2.68562 17.2866 2.43752 17.4179L2.43728 17.4175L2.42884 17.4231C2.34375 17.4798 2.27282 17.5224 2.17166 17.5802Z" fill="#595959" stroke="white" stroke-width="0.2"/>
</svg>
