<svg width="25" height="24" viewBox="0 0 25 24" fill="none" xmlns="http://www.w3.org/2000/svg">
<path d="M12.0011 21.529C12.0011 21.4799 12.0011 21.4143 12.0011 21.3651C12.0175 20.9552 12.0667 20.5617 12.0667 20.1519C12.0667 19.8895 12.1487 19.7912 12.411 19.7912C12.6733 19.7912 12.7389 19.9059 12.7225 20.1355C12.7061 20.988 12.7225 21.8241 12.7225 22.6767C11.3453 22.6767 9.96813 22.6767 8.55816 22.6767C8.55816 21.9225 8.55816 21.2011 8.55816 20.4634C7.83678 20.1683 7.16459 19.8731 6.41042 19.5616C5.93497 20.0043 5.41033 20.4798 4.93488 20.906C4.39385 20.3978 3.86921 19.9059 3.32817 19.4141C2.80354 18.9386 2.2789 18.4468 1.75426 17.9713C2.21332 17.3811 2.6068 16.9057 2.95109 16.3974C3.03306 16.2827 3.06585 16.0695 3.01667 15.9384C2.78714 15.2826 2.50843 14.6432 2.29529 13.9874C2.22971 13.7742 2.14774 13.7086 1.91821 13.7086C1.2952 13.725 0.655798 13.7086 0 13.7086C0 12.1347 0 10.5772 0 8.9869C0.623008 8.9869 1.24602 8.97051 1.86902 8.9869C2.14774 8.9869 2.2789 8.92132 2.36087 8.64261C2.52482 8.15076 2.75435 7.6917 2.98388 7.21625C3.08225 7.01951 3.06585 6.90475 2.9183 6.75719C2.54122 6.34732 2.18053 5.92105 1.77065 5.46199C2.81993 4.47829 3.86921 3.4946 4.93488 2.47811C5.26278 2.74043 5.70544 3.13391 6.18089 3.4782C6.27926 3.56018 6.476 3.57657 6.60716 3.52739C7.16459 3.33065 7.70562 3.10112 8.24666 2.87159C8.36142 2.8224 8.49258 2.65845 8.49258 2.54369C8.52537 1.98626 8.50898 1.42883 8.50898 0.855011C9.95173 0.855011 11.3453 0.855011 12.7717 0.855011C12.7717 1.5436 12.7717 2.24858 12.7717 2.96996C12.5093 2.96996 12.247 2.96996 11.9519 2.96996C11.9519 2.56009 11.9519 2.15021 11.9519 1.72394C11.083 1.72394 10.2632 1.72394 9.3943 1.72394C9.3943 2.31416 9.3943 2.88798 9.3943 3.36344C8.32863 3.78971 7.31215 4.19958 6.24647 4.62585C5.86939 4.31434 5.39394 3.93726 4.98406 3.59297C4.31187 4.23237 3.67247 4.85538 3.00027 5.49478C3.34457 5.88826 3.68886 6.26534 4.01676 6.67522C4.08234 6.75719 4.11513 6.95393 4.08234 7.0523C3.67247 7.95402 3.2462 8.85574 2.78714 9.83944C2.24611 9.83944 1.57391 9.83944 0.868932 9.83944C0.868932 10.8395 0.868932 11.8068 0.868932 12.8233C1.42636 12.8233 1.96739 12.8397 2.50843 12.8233C2.78714 12.8069 2.9183 12.8725 2.98388 13.1676C3.21341 14.2333 3.59049 15.2662 4.19711 16.2171C3.80363 16.7417 3.39375 17.25 2.98388 17.7746C3.63968 18.3976 4.29548 19.0042 4.98406 19.6436C5.36115 19.2993 5.853 18.8567 6.26287 18.496C7.32854 18.9386 8.32863 19.3649 9.4107 19.824C9.4107 20.283 9.4107 20.8568 9.4107 21.4143C9.4107 21.5454 9.47628 21.693 9.50907 21.8241C9.55825 21.8241 9.62383 21.8241 9.67302 21.8241C9.70581 21.8241 9.7386 21.8241 9.75499 21.8241C10.46 21.8405 11.165 21.8569 11.8863 21.8733C11.9191 21.8733 11.9355 21.8241 11.9683 21.7914C11.9683 21.775 11.9683 21.7422 11.9847 21.7258C12.0011 21.693 12.0011 21.611 12.0011 21.529Z" fill="#595959"/>
<path d="M14.3617 16.7089C14.6896 17.1679 15.0175 17.6434 15.3454 18.1025C15.8372 18.8402 16.3454 19.5616 16.7717 20.201C17.3127 20.201 17.7882 20.119 18.2145 20.2174C19.3129 20.4469 19.9195 21.5946 19.5916 22.6603C19.2637 23.7095 18.0833 24.267 17.0504 23.8735C16.0175 23.48 15.5093 22.2504 16.0175 21.2667C16.1651 20.9716 16.1323 20.7912 15.952 20.5453C15.4601 19.8731 14.9847 19.1845 14.5092 18.5123C14.3289 18.2664 14.1485 18.0205 13.9518 17.7746C13.8206 17.7254 13.6895 17.6106 13.5747 17.6106C12.5254 17.5942 11.4761 17.5942 10.4269 17.5778C9.45957 17.4303 8.54145 17.1679 7.68891 16.6761C4.13121 14.5284 3.65576 9.87219 6.73801 6.95389C7.88565 5.85543 9.24643 5.23243 10.8531 5.15045C10.9351 5.15045 11.0171 5.15045 11.1155 5.15045C11.1155 5.42917 11.1155 5.67509 11.1155 5.9538C10.722 6.01938 10.3121 6.06857 9.91862 6.15054C7.36101 6.75716 5.50838 9.15082 5.57396 11.7576C5.62315 13.8562 7.14788 15.758 9.3448 16.4138C9.6563 16.5121 9.9842 16.5285 10.2957 16.5941C10.5416 16.6269 10.804 16.6761 11.0499 16.6761C12.1647 16.7089 13.2632 16.7089 14.3617 16.7089ZM18.8211 22.07C18.8211 21.4634 18.362 21.0044 17.7554 21.0044C17.1652 21.0044 16.6733 21.4962 16.6897 22.07C16.7061 22.6439 17.1652 23.1029 17.739 23.1029C18.3456 23.1193 18.8211 22.6766 18.8211 22.07Z" fill="#595959"/>
<path d="M15.6896 8.46222C16.1322 7.80642 16.5749 7.15062 17.0011 6.49483C17.3618 5.57671 18.0996 5.46194 18.9521 5.57671C19.1981 5.6095 19.362 5.56031 19.4932 5.29799C19.9358 4.46185 20.8867 4.10116 21.7557 4.37988C22.641 4.65859 23.1656 5.49473 23.0673 6.44564C22.9853 7.31457 22.2475 8.05235 21.3786 8.13432C20.4277 8.23269 19.6243 7.70805 19.3292 6.80633C19.2964 6.70796 19.2637 6.5932 19.2473 6.49483C18.2963 6.2653 18.0504 6.39646 17.5586 7.31457C17.1323 7.93758 16.706 8.54419 16.2962 9.1836C16.165 9.39673 16.0175 9.47871 15.7715 9.46231C14.1812 9.44592 12.5909 9.44592 11.0006 9.46231C9.60703 9.4951 8.62333 10.8887 9.03321 12.2003C9.29552 13.0692 10.1317 13.6922 11.0662 13.725C11.3449 13.7414 11.64 13.725 11.9515 13.725C11.9515 14.0037 11.9515 14.2496 11.9515 14.512C10.1153 14.889 8.57415 13.9053 8.14788 12.2822C7.72161 10.6919 8.82007 9.01965 10.476 8.65896C10.5743 8.64256 10.6563 8.60977 10.7547 8.59338C12.263 8.59338 13.7713 8.59338 15.2797 8.59338C15.4108 8.56059 15.5584 8.49501 15.6896 8.46222ZM21.2146 5.16684C20.608 5.15044 20.1326 5.6095 20.1326 6.19972C20.1326 6.77354 20.6244 7.28178 21.1983 7.28178C21.7557 7.28178 22.2475 6.80633 22.2639 6.2489C22.2639 5.65868 21.8049 5.16684 21.2146 5.16684Z" fill="#595959"/>
<path d="M17.1656 16.5122C16.7229 15.9219 16.3131 15.2989 15.8376 14.7579C15.6737 14.5776 15.313 14.5612 15.0015 14.4628C15.0015 14.2824 15.0015 14.0365 15.0015 13.725C15.3622 13.725 15.7228 13.7086 16.0835 13.7414C16.1819 13.7414 16.2803 13.8726 16.3459 13.9709C16.7885 14.5284 17.2148 15.0858 17.6574 15.6432C18.0345 16.2498 18.5428 16.463 19.2642 16.2662C19.3789 16.2334 19.4773 16.0531 19.5593 15.9219C20.1659 14.971 21.4283 14.7251 22.33 15.3809C23.2481 16.0531 23.3957 17.3319 22.6579 18.2008C21.7234 19.2993 19.9199 18.9878 19.3953 17.627C19.3461 17.4959 19.3133 17.3483 19.2478 17.168C18.9035 17.168 18.5756 17.1516 18.2313 17.168C17.8378 17.2007 17.5427 17.1188 17.3623 16.7417C17.3132 16.6597 17.2312 16.5941 17.1656 16.5122ZM20.1167 16.922C20.1167 17.5122 20.5921 17.9877 21.1824 17.9877C21.7726 17.9877 22.248 17.4959 22.248 16.9056C22.248 16.3482 21.7562 15.8728 21.1988 15.8564C20.6249 15.8564 20.1331 16.3318 20.1167 16.922Z" fill="#595959"/>
<path d="M18.9692 12.02C17.9528 12.02 16.9199 12.02 15.8706 12.02C15.8706 11.7249 15.8706 11.4625 15.8706 11.1346C16.8543 11.1346 17.838 11.1346 18.8053 11.1346C19.2971 11.1346 19.8054 11.1346 20.2972 11.1182C20.3628 11.1018 20.4448 11.1018 20.5104 11.0855C20.7235 10.3641 21.0842 9.77385 21.8548 9.51154C22.8057 9.20003 23.8385 9.67548 24.232 10.5936C24.6255 11.5281 24.2484 12.5938 23.3631 13.0528C22.4614 13.5119 21.3465 13.2496 20.8547 12.3807C20.6579 12.0364 20.4448 11.9708 20.1169 11.9872C19.7398 12.02 19.3627 12.0036 18.9692 12.02ZM22.4778 12.4134C23.068 12.4134 23.5434 11.9216 23.5434 11.3478C23.527 10.7739 23.0188 10.2821 22.445 10.2985C21.8712 10.3149 21.4285 10.7739 21.4121 11.3642C21.4121 11.9544 21.8712 12.4134 22.4778 12.4134Z" fill="#595959"/>
<path d="M15.7559 5.3308C15.6575 5.42917 15.5427 5.51114 15.4771 5.62591C15.2804 5.95381 15.0017 6.05218 14.6082 6.01939C14.1492 5.9866 13.9524 5.74067 14.1328 5.3144C14.1655 5.23243 14.3131 5.19964 14.4115 5.15045C14.5918 5.05208 14.7722 4.95371 14.9361 4.87174C15.5263 4.21594 16.1165 3.54375 16.6904 2.87156C16.7723 2.77319 16.7559 2.57645 16.7232 2.42889C16.4772 1.33043 17.0838 0.313944 18.1823 0.0516251C19.1988 -0.194299 20.2317 0.461498 20.4776 1.52717C20.6416 2.29773 20.412 2.96993 19.789 3.46177C19.166 3.95362 18.4774 4.0192 17.756 3.67491C17.6413 3.60933 17.5265 3.54375 17.3626 3.44538C16.8379 4.06839 16.2969 4.69139 15.7559 5.3308ZM18.5758 2.98632C19.1824 3.00272 19.6579 2.54366 19.6742 1.95344C19.6906 1.37962 19.1824 0.871372 18.625 0.854977C18.0348 0.854977 17.5757 1.29764 17.5593 1.87146C17.5429 2.51087 17.9692 2.96993 18.5758 2.98632Z" fill="#595959"/>
<path d="M12.739 22.6766C12.739 21.8241 12.739 20.988 12.739 20.1354C12.739 19.9059 12.6898 19.7911 12.4275 19.7911C12.1487 19.7911 12.0832 19.8895 12.0832 20.1518C12.0832 20.5617 12.034 20.9552 12.0176 21.365C12.0176 20.8404 12.0176 20.2994 12.0176 19.7419C12.2963 19.7419 12.5586 19.7419 12.8537 19.7419C12.8537 20.6929 12.8537 21.6438 12.8537 22.5783C12.8209 22.6111 12.7717 22.6439 12.739 22.6766Z" fill="#595959"/>
<path d="M11.9848 21.8405C11.952 21.8733 11.9356 21.9225 11.9028 21.9225C11.1978 21.9061 10.4929 21.8897 9.77148 21.8733C10.5093 21.8569 11.247 21.8405 11.9848 21.8405Z" fill="#595959"/>
<path d="M20.51 11.1018C20.4444 11.1182 20.3625 11.1182 20.2969 11.1346C20.3788 11.1182 20.4444 11.1018 20.51 11.1018Z" fill="#595959"/>
<path d="M12.8535 13.7414C13.2798 13.7414 13.6733 13.7414 14.0995 13.7414C14.0995 14.0201 14.0995 14.266 14.0995 14.5447C13.6897 14.5447 13.2798 14.5447 12.8535 14.5447C12.8535 14.2824 12.8535 14.0365 12.8535 13.7414Z" fill="#595959"/>
<path d="M14.9523 11.1838C14.9523 11.4625 14.9523 11.7084 14.9523 11.9871C14.6736 11.9871 14.4276 11.9871 14.1489 11.9871C14.1489 11.7248 14.1489 11.4625 14.1489 11.1838C14.3948 11.1838 14.6572 11.1838 14.9523 11.1838Z" fill="#595959"/>
<path d="M12.001 11.9707C12.001 11.692 12.001 11.4461 12.001 11.1674C12.2797 11.1674 12.5256 11.1674 12.8043 11.1674C12.8043 11.4461 12.8043 11.692 12.8043 11.9707C12.5584 11.9707 12.2961 11.9707 12.001 11.9707Z" fill="#595959"/>
<path d="M12.001 5.97022C12.001 5.7079 12.001 5.44558 12.001 5.16687C12.2633 5.16687 12.5256 5.16687 12.8043 5.16687C12.8043 5.42919 12.8043 5.67511 12.8043 5.97022C12.5584 5.97022 12.3125 5.97022 12.001 5.97022Z" fill="#595959"/>
<path d="M15.6898 8.4622C15.5586 8.49499 15.411 8.54417 15.2799 8.54417C13.7716 8.54417 12.2632 8.54417 10.7549 8.54417C10.9024 8.51138 11.0664 8.4458 11.2139 8.4458C12.7059 8.4622 14.1978 8.4622 15.6898 8.4622Z" fill="#595959"/>
<path d="M14.3618 16.7089C13.2634 16.7089 12.1485 16.7089 11.0501 16.6925C10.8041 16.6925 10.5418 16.6433 10.2959 16.6105C11.5419 16.6105 12.7879 16.6105 14.0339 16.6105C14.1487 16.6105 14.2635 16.6761 14.3618 16.7089Z" fill="#595959"/>
<path d="M10.4434 17.5614C11.4926 17.5614 12.5419 17.5614 13.5912 17.5942C13.7223 17.5942 13.8535 17.709 13.9683 17.7581C13.8043 17.7254 13.6568 17.6762 13.4928 17.6762C12.6075 17.6762 11.7222 17.6762 10.8368 17.6598C10.7057 17.6598 10.5745 17.5942 10.4434 17.5614Z" fill="#595959"/>
</svg>
