<svg width="25" height="24" viewBox="0 0 25 24" fill="none" xmlns="http://www.w3.org/2000/svg">
<path d="M14.1203 0C14.439 0.0138568 14.7577 0.0138568 15.0764 0.0277136C15.6445 0.0415704 16.2127 0.0415705 16.7808 0.0831409C17.3073 0.124711 17.7092 0.429561 18.014 0.831409C18.2635 1.17783 18.402 1.55196 18.402 1.98152C18.402 3.43649 18.4159 4.8776 18.4297 6.33256C18.4297 7.78753 18.4297 9.2425 18.4297 10.6975C18.4297 12.6374 18.4297 14.5774 18.4297 16.5173C18.4297 18.4018 18.4159 20.2725 18.3882 22.157C18.3743 22.8637 17.8062 23.6536 17.1411 23.8614C16.8778 23.9446 16.5868 23.9723 16.3096 23.9723C13.7877 23.9861 11.2658 23.9861 8.74383 24C8.2727 24 7.81542 23.9861 7.34429 23.9584C6.70687 23.9307 6.27731 23.5704 5.93089 23.0716C5.66761 22.6697 5.62604 22.2263 5.61219 21.7552C5.61219 20.1478 5.59833 18.5404 5.58447 16.933C5.58447 13.94 5.58447 10.933 5.58447 7.93995C5.58447 6.22171 5.59833 4.50346 5.59833 2.77136C5.59833 2.48037 5.59833 2.17552 5.61219 1.88453C5.6399 1.08083 6.27731 0.290993 7.05329 0.0969977C7.13644 0.069284 7.23343 0.0692841 7.33043 0.0692841C8.10641 0.0554273 8.89625 0.0415704 9.67223 0.0277136C9.72766 0.0277136 9.76923 0.0138569 9.82466 0.0138569C11.2519 5.26531e-08 12.693 0 14.1203 0ZM6.41588 12C6.41588 15.3533 6.41588 18.6928 6.41588 22.0462C6.41588 22.4342 6.59602 22.7113 6.8593 22.9469C6.99787 23.0716 7.17801 23.1547 7.38586 23.1547C7.67685 23.1686 7.96785 23.1824 8.25884 23.1824C10.1572 23.1963 12.0695 23.2102 13.9678 23.1963C14.8685 23.1963 15.7554 23.1686 16.6561 23.1409C17.1549 23.127 17.5706 22.5035 17.5706 22.1709C17.5706 20.8129 17.5706 19.455 17.5706 18.097C17.5706 12.7344 17.5706 7.37182 17.5706 2.00924C17.5706 1.69053 17.4598 1.44111 17.2658 1.20554C17.1133 1.0254 16.9193 0.872979 16.6699 0.859122C16.1572 0.831409 15.6307 0.803695 15.118 0.817552C12.5406 0.831409 9.96323 0.845266 7.38586 0.859122C6.92858 0.859122 6.41588 1.38568 6.41588 1.85681C6.41588 5.23788 6.41588 8.61894 6.41588 12Z" fill="#595959"/>
<path d="M0 11.612C0 9.86606 0 8.1201 0 6.388C0 5.12703 0.0138568 3.85221 0.0415705 2.59124C0.0554273 1.96768 0.401848 1.52426 0.886836 1.17784C1.17783 0.969989 1.49654 0.859134 1.85681 0.859134C2.78522 0.845278 3.69977 0.845278 4.62818 0.831421C4.7806 0.831421 4.96074 1.01156 4.9746 1.1917C4.98845 1.37184 4.8776 1.55198 4.71132 1.56583C4.37875 1.59355 4.04619 1.6074 3.71363 1.62126C3.10393 1.63512 2.48037 1.66283 1.87067 1.66283C1.45497 1.66283 1.19169 1.91225 0.969977 2.2171C0.859123 2.36953 0.817552 2.54967 0.817552 2.74366C0.817552 8.70209 0.817552 14.6605 0.817552 20.6189C0.817552 20.7021 0.831409 20.7991 0.872979 20.8684C1.1224 21.3672 1.52425 21.6166 2.09238 21.6166C2.8545 21.6166 3.63049 21.6305 4.39261 21.6305C4.6836 21.6305 4.89146 21.9908 4.73903 22.2402C4.69746 22.3095 4.58661 22.3649 4.50346 22.3788C4.15704 22.4065 3.79677 22.4342 3.45035 22.4342C2.93764 22.4342 2.41109 22.4342 1.89838 22.4065C1.05312 22.3788 0.332563 21.7968 0.0969977 20.9792C0.069284 20.8684 0.0554273 20.7575 0.0554273 20.6467C0.0415705 19.5935 0.0277137 18.5404 0.0138569 17.4873C5.26531e-08 15.5196 0.0138568 13.5658 0 11.612C0.0138568 11.612 0 11.612 0 11.612Z" fill="#595959"/>
<path d="M24.0141 11.7229C24.0002 14.3557 23.9864 17.0855 23.9725 19.8152C23.9725 20.0785 23.9587 20.3418 23.9587 20.6051C23.9587 21.2148 23.6261 21.6582 23.1827 22.0185C22.8778 22.2818 22.5037 22.3926 22.1019 22.3926C21.2982 22.4065 20.4945 22.3926 19.7046 22.3926C19.6631 22.3926 19.6076 22.3788 19.5661 22.3788C19.2612 22.3233 19.1919 22.2263 19.2335 21.9215C19.2474 21.7968 19.3444 21.6859 19.4968 21.6582C19.6769 21.6305 19.8709 21.6305 20.0511 21.6166C20.6192 21.6028 21.1873 21.6028 21.7554 21.6028C21.9079 21.6028 22.0603 21.5889 22.2127 21.5751C22.6977 21.5058 22.9748 21.1871 23.1827 20.7852C23.1965 20.7437 23.1965 20.7021 23.1965 20.6605C23.1965 15.6998 23.1965 10.739 23.1965 5.77829C23.1965 4.75289 23.1827 3.72749 23.1688 2.70208C23.155 2.1201 22.7393 1.67668 22.1711 1.64896C21.4506 1.62125 20.73 1.60739 20.0095 1.59354C19.7878 1.59354 19.5661 1.56582 19.3444 1.55197C19.0811 1.53811 18.9564 1.19169 19.1365 0.96998C19.2196 0.859125 19.3166 0.789841 19.4829 0.803698C20.2589 0.817555 21.0349 0.803698 21.8109 0.817555C22.1989 0.817555 22.5868 0.831412 22.9471 1.02541C23.5014 1.33026 23.9032 1.77367 24.0002 2.41109C24.0557 2.78522 24.028 3.15936 24.0418 3.53349C23.9864 6.23557 24.0002 8.92379 24.0141 11.7229Z" fill="#595959"/>
<path d="M20.799 12C20.3972 12 19.9953 11.9861 19.5935 12C19.4134 12 19.3302 11.903 19.2609 11.7783C19.1778 11.6536 19.1917 11.5012 19.2748 11.3764C19.3579 11.2656 19.4549 11.1824 19.6212 11.1963C20.4249 11.2102 21.2147 11.2102 22.0184 11.1963C22.2124 11.1963 22.2817 11.3349 22.3649 11.4596C22.448 11.5704 22.3926 11.6813 22.3233 11.7783C22.2263 11.9169 22.1293 11.9861 21.9353 11.9861C21.5612 11.9861 21.1732 12 20.799 12Z" fill="#595959"/>
<path d="M3.20108 12C2.78537 12 2.36967 12 1.95396 12C1.73225 12 1.5244 11.6536 1.63526 11.4734C1.73225 11.3071 1.84311 11.2101 2.06482 11.2101C2.8408 11.224 3.61678 11.224 4.39276 11.2101C4.55904 11.2101 4.64218 11.2933 4.72533 11.418C4.80847 11.5427 4.80847 11.6813 4.72533 11.806C4.64218 11.9307 4.55904 12.0277 4.3789 12.0138C3.99091 12 3.58907 12 3.20108 12Z" fill="#595959"/>
<path d="M20.7436 8.03694C21.1454 8.03694 21.5473 8.03694 21.963 8.03694C22.2401 8.03694 22.3787 8.16165 22.3926 8.41108C22.3926 8.63279 22.254 8.78521 22.0184 8.79907C21.7274 8.81292 21.4503 8.82678 21.1593 8.82678C20.6605 8.82678 20.1616 8.81292 19.6766 8.79907C19.6351 8.79907 19.5935 8.78521 19.5519 8.78521C19.4133 8.7575 19.2748 8.72978 19.2471 8.54965C19.2055 8.35565 19.2886 8.13394 19.4272 8.0508C19.4549 8.03694 19.5103 8.03694 19.5519 8.03694C19.9399 8.02309 20.3418 8.02309 20.7436 8.03694C20.7436 8.02309 20.7436 8.02309 20.7436 8.03694Z" fill="#595959"/>
<path d="M3.21463 4.80832C3.60262 4.80832 4.00447 4.80832 4.39246 4.80832C4.66959 4.80832 4.87744 5.11317 4.75273 5.36259C4.68345 5.50116 4.60031 5.59816 4.42017 5.5843C3.65805 5.57045 2.90978 5.57045 2.14765 5.55659C2.07837 5.55659 2.02294 5.55659 1.95366 5.54273C1.69038 5.50116 1.62109 5.41802 1.62109 5.1686C1.63495 4.94689 1.75966 4.80832 1.98137 4.80832C2.3555 4.79446 2.72964 4.79446 3.10377 4.79446C3.13149 4.80832 3.17306 4.80832 3.21463 4.80832Z" fill="#595959"/>
<path d="M3.20114 8.03693C3.58913 8.03693 3.97712 8.03693 4.36511 8.03693C4.66996 8.03693 4.83624 8.24479 4.76696 8.50806C4.72539 8.66049 4.62839 8.75749 4.47597 8.75749C3.88012 8.7852 3.28428 8.79906 2.68844 8.79906C2.45287 8.79906 2.23116 8.7852 1.9956 8.77134C1.82932 8.75749 1.69075 8.70206 1.62146 8.53578C1.56604 8.38335 1.59375 8.24479 1.7046 8.12007C1.8016 8.00922 1.92631 8.02308 2.03717 8.02308C2.43902 8.02308 2.82701 8.03693 3.20114 8.03693Z" fill="#595959"/>
<path d="M20.7852 5.57044C20.3834 5.57044 19.9815 5.57044 19.5658 5.57044C19.3303 5.57044 19.2056 5.41802 19.2056 5.21017C19.2056 4.98846 19.3718 4.80832 19.5936 4.80832C20.231 4.80832 20.8684 4.80832 21.4919 4.80832C21.6721 4.80832 21.8661 4.82218 22.0462 4.83603C22.2402 4.84989 22.3649 4.98846 22.3649 5.21017C22.3649 5.43188 22.2679 5.55659 22.0462 5.57044C21.6444 5.57044 21.2148 5.57044 20.7852 5.57044Z" fill="#595959"/>
<path d="M20.0229 18.4296C19.8428 18.4157 19.7042 18.4157 19.5657 18.388C19.3578 18.3603 19.2192 18.2078 19.2192 18.0139C19.2192 17.806 19.3578 17.612 19.5657 17.5981C19.8705 17.5843 20.1892 17.5981 20.4941 17.6259C20.6742 17.6397 20.7989 17.806 20.7989 17.9861C20.7989 18.1801 20.6881 18.3326 20.4941 18.3741C20.3139 18.4157 20.1476 18.4157 20.0229 18.4296Z" fill="#595959"/>
<path d="M3.97694 17.5843C4.14322 17.5981 4.28179 17.5981 4.43422 17.612C4.62821 17.6397 4.78064 17.7921 4.78064 17.9861C4.78064 18.1801 4.65593 18.3741 4.46193 18.388C4.17094 18.4018 3.86609 18.4157 3.57509 18.388C3.33953 18.3741 3.20096 18.194 3.21482 17.9861C3.21482 17.7921 3.35338 17.6397 3.58895 17.612C3.71366 17.5981 3.86609 17.5981 3.97694 17.5843Z" fill="#595959"/>
<path d="M19.9814 20.037C19.829 20.0093 19.6488 20.0093 19.4825 19.9677C19.2885 19.9261 19.2054 19.7875 19.2193 19.5797C19.2331 19.3996 19.344 19.261 19.5241 19.2471C19.8705 19.2333 20.2169 19.2471 20.5495 19.261C20.7158 19.2748 20.8266 19.5104 20.7712 19.7044C20.7296 19.8568 20.6326 19.9677 20.4664 19.9954C20.3139 20.0093 20.1477 20.0093 19.9814 20.037Z" fill="#595959"/>
<path d="M3.99072 19.2333C4.14314 19.2333 4.30942 19.2194 4.46185 19.2333C4.65584 19.2471 4.78055 19.3857 4.78055 19.5658C4.79441 19.7598 4.6697 19.9538 4.50342 19.9677C4.18471 19.9954 3.866 20.0231 3.5473 19.9815C3.21473 19.94 3.09002 19.5658 3.32559 19.3303C3.38102 19.2748 3.46416 19.2471 3.5473 19.2333C3.68587 19.2194 3.83829 19.2333 3.99072 19.2333Z" fill="#595959"/>
<path d="M19.6072 3.21478C19.8012 3.21478 20.0091 3.40878 20.0091 3.58892C20.0091 3.82448 19.8289 4.00462 19.6211 4.00462C19.3994 4.00462 19.2192 3.82448 19.2192 3.60277C19.2192 3.40878 19.4132 3.21478 19.6072 3.21478Z" fill="#595959"/>
<path d="M4.79454 3.60276C4.79454 3.81061 4.60054 4.00461 4.39269 4.00461C4.19869 4.00461 4.01855 3.82447 4.01855 3.63047C4.01855 3.40876 4.18484 3.22862 4.40655 3.22862C4.6144 3.21477 4.79454 3.39491 4.79454 3.60276Z" fill="#595959"/>
<path d="M19.6072 9.61661C19.8289 9.61661 20.0091 9.78289 20.0091 9.99074C20.0091 10.1986 19.8012 10.3926 19.6072 10.3926C19.3994 10.3926 19.2192 10.1986 19.2192 9.99074C19.2192 9.79675 19.3994 9.63046 19.6072 9.61661Z" fill="#595959"/>
<path d="M4.03254 10.0046C4.03254 9.78292 4.17111 9.63049 4.39282 9.63049C4.60067 9.63049 4.80853 9.81063 4.80853 10.0185C4.82238 10.2125 4.61453 10.4342 4.43439 10.4203C4.18497 10.3788 4.01869 10.2679 4.03254 10.0046Z" fill="#595959"/>
<path d="M19.6073 6.42957C19.8428 6.42957 20.0091 6.58199 20.0091 6.78984C20.0091 7.01155 19.829 7.19169 19.6211 7.19169C19.4133 7.19169 19.2193 6.99769 19.2331 6.77599C19.2331 6.58199 19.3855 6.42957 19.6073 6.42957Z" fill="#595959"/>
<path d="M4.40636 6.42957C4.65578 6.42957 4.80821 6.58199 4.79435 6.81756C4.79435 7.02541 4.60036 7.19169 4.3925 7.19169C4.18465 7.19169 4.03223 7.02541 4.03223 6.83141C4.03223 6.58199 4.17079 6.42957 4.40636 6.42957Z" fill="#595959"/>
<path d="M11.9998 11.2101C13.4686 11.2101 14.9374 11.2101 16.4062 11.2101C16.5864 11.2101 16.6695 11.3071 16.7388 11.4319C16.8081 11.5566 16.8081 11.6951 16.7111 11.8337C16.6279 11.9584 16.5309 12.0138 16.3647 12.0138C13.4409 12.0138 10.5171 12.0138 7.5933 12.0138C7.30231 12.0138 7.10831 11.6951 7.24688 11.4457C7.31617 11.3071 7.42702 11.224 7.60716 11.224C9.07598 11.224 10.5448 11.2101 11.9998 11.2101Z" fill="#595959"/>
<path d="M12.0694 2.39723C10.9055 2.39723 9.75536 2.39723 8.59139 2.39723C8.23111 2.39723 7.85698 2.38337 7.4967 2.35566C7.30271 2.3418 7.20571 2.18938 7.21956 1.96767C7.23342 1.75981 7.34427 1.64896 7.53827 1.64896C9.36737 1.6351 11.1826 1.62125 13.0117 1.62125C13.9955 1.62125 14.9794 1.62125 15.9632 1.6351C16.1711 1.6351 16.3651 1.66282 16.5729 1.69053C16.6838 1.70439 16.7531 1.77367 16.7808 1.88453C16.85 2.17552 16.6561 2.42494 16.3651 2.42494C14.924 2.41108 13.4967 2.41108 12.0694 2.39723Z" fill="#595959"/>
<path d="M11.9999 5.59816C10.531 5.59816 9.06221 5.59816 7.57953 5.59816C7.38554 5.59816 7.21925 5.44573 7.2054 5.25174C7.19154 5.03003 7.35782 4.83603 7.56568 4.83603C8.05066 4.82217 8.53565 4.82217 9.0345 4.82217C11.4872 4.82217 13.9398 4.82217 16.3925 4.82217C16.5587 4.82217 16.6557 4.91917 16.7389 5.03003C16.822 5.16859 16.8082 5.30716 16.725 5.43187C16.6557 5.54273 16.5726 5.59816 16.434 5.59816C15.5195 5.5843 14.6049 5.59816 13.6904 5.59816C13.1223 5.5843 12.5541 5.5843 11.9999 5.59816C11.9999 5.5843 11.9999 5.59816 11.9999 5.59816Z" fill="#595959"/>
<path d="M11.9999 8.02307C13.4826 8.02307 14.9514 8.02307 16.4341 8.02307C16.6003 8.02307 16.6973 8.12007 16.7528 8.24478C16.822 8.39721 16.822 8.56349 16.7112 8.6882C16.6696 8.74363 16.5588 8.77134 16.4895 8.77134C16.0045 8.79905 15.5334 8.82677 15.0484 8.82677C12.859 8.82677 10.6696 8.82677 8.48024 8.82677C8.17539 8.82677 7.87055 8.81291 7.5657 8.7852C7.23313 8.75748 7.10842 8.46649 7.30242 8.18935C7.3717 8.09236 7.44098 8.03693 7.57955 8.03693C9.04837 8.02307 10.5172 8.02307 11.9999 8.02307Z" fill="#595959"/>
<path d="M11.9723 19.2194C12.6513 19.2194 13.3303 19.2194 14.0093 19.2194C14.2449 19.2194 14.425 19.4688 14.3696 19.6906C14.3141 19.8845 14.1756 19.9954 13.9816 19.9954C12.6513 19.9954 11.3349 19.9954 10.0047 19.9954C9.69982 19.9954 9.51968 19.6767 9.65825 19.4134C9.72753 19.2887 9.81067 19.2194 9.97695 19.2194C10.6421 19.2333 11.3072 19.2194 11.9723 19.2194Z" fill="#595959"/>
<path d="M11.9998 20.8268C12.6787 20.8268 13.3439 20.8268 14.0229 20.8268C14.203 20.8268 14.2723 20.9515 14.3416 21.0624C14.4247 21.1732 14.397 21.3118 14.3139 21.4227C14.2169 21.5474 14.0921 21.6305 13.912 21.6305C12.6095 21.6166 11.3069 21.6305 10.0044 21.6305C9.8381 21.6305 9.64411 21.4642 9.60254 21.2841C9.57482 21.1455 9.69953 20.9099 9.82424 20.8407C9.85196 20.8268 9.90739 20.8268 9.9351 20.8268C10.6418 20.8129 11.3208 20.8268 11.9998 20.8268Z" fill="#595959"/>
<path d="M12 17.5843C11.5427 17.5843 11.2101 17.2517 11.1963 16.8083C11.1963 16.3787 11.5704 16.0046 12 15.9908C12.388 15.9908 12.776 16.3787 12.776 16.7806C12.7898 17.2379 12.4573 17.5843 12 17.5843Z" fill="#595959"/>
<path d="M11.626 3.58892C11.626 3.36721 11.7784 3.21478 11.9863 3.21478C12.2357 3.21478 12.402 3.36721 12.402 3.60277C12.402 3.82448 12.2357 4.00462 12.0278 3.99076C11.7923 3.99076 11.626 3.82448 11.626 3.58892Z" fill="#595959"/>
<path d="M12.014 9.61661C12.208 9.61661 12.4158 9.82446 12.4297 10.0185C12.4297 10.1847 12.208 10.4064 12.0417 10.4064C11.8339 10.4064 11.6399 10.2263 11.6399 10.0185C11.6121 9.8106 11.8061 9.61661 12.014 9.61661Z" fill="#595959"/>
<path d="M11.626 6.78984C11.626 6.58199 11.7923 6.41571 12.0001 6.41571C12.2218 6.41571 12.402 6.59585 12.402 6.78984C12.402 6.98384 12.208 7.19169 12.014 7.19169C11.8061 7.20555 11.626 7.01155 11.626 6.78984Z" fill="#595959"/>
</svg>
