<svg width="30" height="24" viewBox="0 0 30 24" fill="none" xmlns="http://www.w3.org/2000/svg">
<path d="M14.3904 24C14.1139 23.9675 13.8213 23.9512 13.5448 23.9024C10.927 23.561 8.63427 22.5203 6.71557 20.6992C4.87817 18.9919 3.7237 16.8943 3.18711 14.439C3.08955 13.9675 3.02451 13.4797 3.00825 12.9919C2.97573 12.1626 2.95947 11.3171 2.95947 10.4878C2.95947 9.99999 3.30094 9.67479 3.78874 9.65853C4.91069 9.64227 6.03264 9.64227 7.17085 9.64227C10.1139 9.64227 13.057 9.62601 16.0164 9.62601C19.3822 9.62601 22.7318 9.64227 26.0977 9.62601C26.4717 9.62601 26.9107 9.98373 26.9107 10.3902C26.9107 11.0406 26.9432 11.6748 26.927 12.3252C26.8944 13.9187 26.553 15.4471 25.8863 16.8943C24.2765 20.3415 21.6424 22.5854 17.9676 23.6097C17.2034 23.8211 16.4229 23.9512 15.6424 23.9837C15.5936 23.9837 15.5448 24 15.4961 24C15.1221 24 14.7481 24 14.3904 24ZM3.9676 10.6341C3.9676 11.1057 3.9676 11.5447 3.9676 12C3.9676 13.0732 4.08142 14.1463 4.40663 15.1707C5.15459 17.5772 6.60175 19.4959 8.60175 21.0081C8.66679 21.0569 8.73183 21.0894 8.81313 21.1382C8.81313 21.0406 8.82939 20.9593 8.82939 20.878C8.84565 19.6097 8.87817 18.3415 8.89443 17.0569C8.91069 16.5854 8.94321 16.1138 9.07329 15.6585C9.87004 12.748 12.618 10.813 15.6261 11.1707C17.4148 11.3821 18.8294 12.2276 19.8863 13.691C20.6343 14.7154 20.992 15.8862 21.0083 17.1382C21.0245 18.3415 21.0408 19.5284 21.057 20.7317C21.057 20.8618 21.0733 20.9919 21.0733 21.1382C21.1546 21.0894 21.2359 21.0406 21.3009 20.9919C22.553 20 23.6912 18.8943 24.4717 17.4797C25.1546 16.2602 25.6424 14.9593 25.8213 13.5772C25.9513 12.6016 25.9351 11.626 25.9351 10.6504C25.9351 10.6341 25.9188 10.6341 25.9188 10.6179C18.6018 10.6341 11.2847 10.6341 3.9676 10.6341ZM20.0164 19.0894C20.0001 19.0894 19.9839 19.0894 19.9676 19.0894C19.9676 18.3902 19.9676 17.7073 19.9676 17.0081C19.9676 16.3415 19.8538 15.7073 19.5448 15.1057C18.683 13.4309 17.366 12.374 15.4635 12.1626C13.7725 11.9837 12.3416 12.5528 11.2034 13.8049C10.3904 14.6829 9.91882 15.7398 9.91882 16.9593C9.90256 18.5366 9.8863 20.0976 9.87004 21.6748C9.87004 21.7723 9.91882 21.7886 9.98386 21.8211C11.0083 22.3089 12.0814 22.6667 13.2196 22.8293C14.3578 22.9919 15.4961 22.9919 16.618 22.8293C17.7562 22.6667 18.8619 22.3252 19.9026 21.8211C20.0164 21.7723 20.0489 21.7073 20.0489 21.5935C20.0164 20.7805 20.0164 19.935 20.0164 19.0894Z" fill="#595959"/>
<path d="M28.6829 0C28.8293 0.0813008 28.9593 0.146341 29.1057 0.227642C29.5772 0.504065 29.8862 0.878049 29.8862 1.46341C29.8862 2.99187 29.9024 4.52033 29.9187 6.04878C29.9187 6.63415 29.9187 7.21951 29.9187 7.80488C29.9187 7.9187 29.8699 8.03252 29.8374 8.14634C29.7886 8.26016 29.7236 8.35772 29.6585 8.47155C29.3659 8.87805 28.9919 9.12195 28.4878 9.12195C27.122 9.12195 25.7561 9.15447 24.3902 9.15447C21.626 9.15447 18.8618 9.17073 16.0813 9.15447C11.5447 9.15447 6.99187 9.13821 2.45528 9.13821C2.11382 9.13821 1.77236 9.12195 1.43089 9.10569C0.943089 9.10569 0.585366 8.86179 0.308943 8.48781C0.113821 8.22764 -0.0162601 7.93496 0.0162602 7.5935C0.0325204 7.33333 0 7.05691 0 6.78049C0 5.10569 0 3.44715 0 1.77236C0.0162602 1.70732 0.0325204 1.62602 0.0162602 1.56098C6.17853e-08 0.943089 0.325203 0.520325 0.829268 0.227642C0.95935 0.146341 1.08943 0.0813008 1.21951 0C10.3577 0 19.5122 0 28.6829 0ZM14.9431 1.04065V1.02439C12.6179 1.02439 10.2764 1.02439 7.95122 1.02439C5.78862 1.02439 3.62602 1.05691 1.46341 1.05691C1.17073 1.05691 1.05691 1.13821 1.04065 1.44715C1.00813 1.78862 0.99187 2.11382 0.99187 2.45528C0.99187 3.88618 0.99187 5.31707 0.99187 6.74797C0.99187 7.07317 1.02439 7.38211 1.05691 7.70732C1.08943 7.95122 1.20325 8.06504 1.44715 8.09756C1.5935 8.11382 1.73984 8.11382 1.88618 8.11382C3.7561 8.13008 5.62602 8.1626 7.49593 8.1626C13.9024 8.1626 20.3089 8.14634 26.7154 8.13008C27.2846 8.13008 27.8537 8.11382 28.4228 8.0813C28.6829 8.06504 28.813 7.95122 28.8455 7.69106C28.8618 7.57724 28.878 7.46342 28.878 7.34959C28.878 5.5122 28.878 3.6748 28.878 1.8374C28.878 1.65854 28.8455 1.49593 28.813 1.31707C28.7805 1.13821 28.6667 1.05691 28.4715 1.05691C28.1463 1.05691 27.8374 1.04065 27.5122 1.04065C23.3333 1.04065 19.1382 1.04065 14.9431 1.04065Z" fill="#595959"/>
<path d="M14.9106 21.0081C13.1057 21.122 11.5935 19.5935 11.2683 18.2602C10.9919 17.1057 11.0732 15.9837 11.8212 14.9919C12.3903 14.2602 13.0569 13.6748 13.9838 13.4797C15.3821 13.187 16.6342 13.4634 17.6586 14.5203C18.1951 15.0732 18.5691 15.7073 18.6992 16.4878C19.0407 18.4553 17.8212 20.4228 15.9187 20.8943C15.5935 20.9756 15.2521 20.9756 14.9106 21.0081ZM17.7399 17.187C17.7073 16.8943 17.7236 16.6016 17.6423 16.3252C17.4797 15.8049 17.1708 15.3496 16.7317 15.0081C16.3577 14.7155 15.9512 14.4553 15.4634 14.4065C15.1382 14.374 14.7968 14.3902 14.4553 14.3902C14.3252 14.3902 14.1951 14.4228 14.0651 14.4716C12.7317 14.9268 11.9512 16.2114 12.1301 17.6098C12.3415 19.1057 13.7886 20.1789 15.2846 19.9837C16.4391 19.8537 17.8699 18.7317 17.7399 17.187Z" fill="#595959"/>
<path d="M25.2197 5.30081C25.2197 5.25203 25.2197 5.21951 25.2197 5.17073C25.236 4.7317 25.4636 4.50406 25.9027 4.45528C26.0165 4.43902 26.1303 4.43902 26.2604 4.45528C26.6831 4.50406 26.8457 4.6504 26.927 5.05691C26.9596 5.21951 26.9596 5.38211 26.927 5.54471C26.8295 6.04878 26.3092 6.30894 25.7726 6.14634C25.3661 6.03252 25.2197 5.82113 25.2197 5.30081Z" fill="#595959"/>
<path d="M17.2845 17.2195C17.2845 18.4878 16.2113 19.5447 14.943 19.5447C13.6585 19.5447 12.6016 18.4715 12.6016 17.2032C12.6016 15.935 13.6747 14.8618 14.9593 14.8618C16.2276 14.8455 17.2845 15.9187 17.2845 17.2195ZM16.2926 17.2032C16.2764 16.439 15.6585 15.8211 14.9105 15.8374C14.2276 15.8537 13.5934 16.5203 13.5934 17.2032C13.6097 17.935 14.2276 18.5203 14.9593 18.5366C15.691 18.5528 16.3414 17.7561 16.2926 17.2032Z" fill="#595959"/>
</svg>
