<svg width="27" height="24" viewBox="0 0 27 24" fill="none" xmlns="http://www.w3.org/2000/svg">
<path d="M9.62785 23.9932C7.02986 23.9932 4.43187 23.9932 1.83388 23.9932C0.93222 23.9932 0.275081 23.5195 0.0611291 22.7248C0.0152822 22.5567 0 22.3733 0 22.1899C0 18.5986 0 14.9919 0 11.4006C0 10.4989 0.473751 9.85708 1.28371 9.64313C1.48238 9.59728 1.69633 9.582 1.91029 9.582C7.06042 9.582 12.2106 9.582 17.3607 9.582C18.3235 9.582 18.9653 10.0252 19.1946 10.8504C19.2404 11.0185 19.2557 11.2019 19.2557 11.3853C19.2557 14.9767 19.2557 18.5833 19.2557 22.1746C19.2557 23.0916 18.7667 23.7334 17.9414 23.9474C17.758 23.9932 17.5441 23.9932 17.3454 23.9932C14.7627 24.0085 12.1953 23.9932 9.62785 23.9932ZM18.2623 20.5853C18.2623 20.463 18.2623 20.356 18.2623 20.249C18.2623 17.3301 18.2623 14.4265 18.2623 11.5076C18.2623 10.7893 18.0178 10.5601 17.2996 10.5601C12.1647 10.5601 7.04514 10.5601 1.91029 10.5448C1.23787 10.5448 0.947502 10.9268 0.947502 11.4923C0.962785 14.4112 0.947502 17.3301 0.947502 20.2643C0.947502 20.3713 0.947502 20.463 0.947502 20.5853C6.73949 20.5853 12.4856 20.5853 18.2623 20.5853ZM18.2471 21.5939C12.4704 21.5939 6.72421 21.5939 0.962785 21.5939C0.962785 21.7467 0.978067 21.8842 0.962785 22.0218C0.901655 22.6789 1.23787 23.0457 1.95613 23.0457C7.06042 23.0304 12.1494 23.0304 17.2537 23.0304C17.3607 23.0304 17.4829 23.0304 17.5899 23.0304C17.8956 22.9999 18.2012 22.7401 18.2318 22.4344C18.2776 22.1593 18.2471 21.8842 18.2471 21.5939Z" fill="#595959"/>
<path d="M13.7695 8.2066C11.5077 8.2066 9.67383 6.37273 9.67383 4.11095C9.67383 1.83388 11.5077 0.0152893 13.7695 0.0152893C16.0313 0.0152893 17.8651 1.84917 17.8651 4.11095C17.8804 6.35744 16.0313 8.19132 13.7695 8.2066ZM16.8871 4.08038C16.8718 2.3382 15.4811 0.947509 13.7236 0.962792C11.9967 0.978074 10.6213 2.38405 10.6366 4.11095C10.6519 5.83784 12.0579 7.22853 13.7848 7.21325C15.5269 7.19797 16.9024 5.80728 16.8871 4.08038Z" fill="#595959"/>
<path d="M4.09575 8.20659C1.84925 8.20659 -0.015189 6.34215 9.32856e-05 4.09565C0.0153756 1.83388 1.84925 0 4.11103 0C6.37281 0 8.20669 1.83388 8.20669 4.09565C8.20669 6.35743 6.35753 8.19131 4.09575 8.20659ZM4.11103 7.22853C5.85321 7.21324 7.2439 5.82255 7.22862 4.08037C7.21334 2.36876 5.80737 0.978067 4.08047 0.978067C2.36885 0.978067 0.962878 2.39932 0.97816 4.11094C0.993443 5.83784 2.38413 7.22853 4.11103 7.22853Z" fill="#595959"/>
<path d="M26.5759 15.2212C26.5759 16.2909 26.5759 17.376 26.5759 18.4457C26.5759 18.6138 26.5606 18.7819 26.5453 18.95C26.423 19.6989 25.7353 20.1879 25.0324 19.8975C23.3207 19.1946 21.7925 18.2012 21.0131 16.4285C20.4324 15.0836 20.7992 13.861 21.7008 12.776C22.5261 11.7674 23.6111 11.0644 24.7878 10.5295C25.6589 10.1322 26.4842 10.6212 26.5606 11.5687C26.6217 12.4245 26.5911 13.2803 26.5911 14.1361C26.5759 14.5029 26.5759 14.8697 26.5759 15.2212ZM25.5978 15.16C25.5978 14.0597 25.5978 12.9594 25.5978 11.8438C25.5978 11.8285 25.5978 11.8132 25.5978 11.7826C25.5825 11.3547 25.4603 11.2631 25.0935 11.4464C24.146 11.9049 23.2749 12.4856 22.5566 13.2497C21.655 14.2125 21.4716 15.3434 22.0217 16.3673C22.2968 16.8869 22.6789 17.3301 23.1526 17.6663C23.7792 18.1095 24.4363 18.5221 25.0935 18.9042C25.4144 19.0876 25.5672 18.9806 25.5825 18.5986C25.5825 18.5221 25.5825 18.4457 25.5825 18.3693C25.5978 17.3148 25.5978 16.2451 25.5978 15.16Z" fill="#595959"/>
<path d="M6.35764 15.6796C6.35764 14.8085 6.32707 13.9527 6.37292 13.0816C6.40348 12.2106 7.1676 11.7521 7.97756 12.0577C8.06925 12.0883 8.17623 12.1341 8.26792 12.18C9.50579 12.8218 10.7437 13.479 11.9815 14.1208C12.4858 14.3806 12.8832 14.7321 12.7762 15.3587C12.7304 15.6185 12.5622 15.8477 12.4094 16.077C12.333 16.1992 12.1802 16.2756 12.0579 16.3673C10.7895 17.2231 9.52107 18.0942 8.26792 18.95C7.8553 19.2404 7.41212 19.4544 6.92308 19.1793C6.43405 18.9195 6.37292 18.4457 6.37292 17.9567C6.37292 17.1926 6.37292 16.4285 6.37292 15.6796C6.35764 15.6796 6.35764 15.6796 6.35764 15.6796ZM7.35099 18.354C7.50381 18.2776 7.62607 18.2165 7.71776 18.1401C8.97091 17.2843 10.2241 16.4285 11.4925 15.5727C11.5689 15.5268 11.63 15.4657 11.7064 15.4198C11.8593 15.2976 11.844 15.1906 11.6759 15.0836C11.6147 15.0378 11.5536 15.0072 11.4772 14.9614C10.2546 14.3195 9.03204 13.6777 7.82474 13.0511C7.74833 13.0052 7.67191 12.9747 7.5955 12.9441C7.44268 12.883 7.36627 12.9441 7.35099 13.1122C7.35099 13.1886 7.3357 13.265 7.3357 13.3414C7.3357 14.885 7.3357 16.4438 7.3357 17.9873C7.3357 18.0942 7.3357 18.2012 7.35099 18.354Z" fill="#595959"/>
</svg>
