<svg width="24" height="24" viewBox="0 0 24 24" fill="none" xmlns="http://www.w3.org/2000/svg">
<path d="M16.4838 7.83429C16.5046 7.81965 16.5244 7.80998 16.5398 7.80354C16.5628 7.79395 16.5837 7.78865 16.593 7.78632C16.6042 7.78352 16.6101 7.78213 16.614 7.78124C16.619 7.78008 16.6204 7.77976 16.6249 7.77825L16.954 7.66855V8.01542C16.954 8.17802 16.9525 8.33792 16.9509 8.49586C16.948 8.80355 16.9451 9.10381 16.9538 9.40212C16.9667 9.63499 16.9042 9.83699 16.7904 10.01C17.4915 9.90677 18.1935 9.87028 18.8996 9.97299V9.96919V9.95879V9.94839V9.93799V9.92759V9.91719V9.90679V9.8964V9.886V9.8756V9.8652V9.85479V9.84439V9.83399V9.82359V9.81319V9.80279V9.79239V9.78198V9.77158V9.76118V9.75077V9.74037V9.72997V9.71956V9.70916V9.69875V9.68835V9.67794V9.66754V9.65713V9.64673V9.63632V9.62591V9.61551V9.6051V9.59469V9.58429V9.57388V9.56347V9.55306V9.54265V9.53225V9.52184V9.51143V9.50102V9.49061V9.4802V9.46979V9.45938V9.44897V9.43856V9.42815V9.41774V9.40732V9.39691V9.3865V9.37609V9.36568V9.35526V9.34485V9.33444V9.32403V9.31361V9.3032V9.29278V9.28237V9.27196V9.26154V9.25113V9.24071V9.2303V9.21988V9.20947V9.19905V9.18864V9.17822V9.1678V9.15739V9.14697V9.13655V9.12614V9.11572V9.1053V9.09488V9.08447V9.07405V9.06363V9.05321V9.04279V9.03237V9.02196V9.01154V9.00112V8.9907V8.98028V8.96986V8.95944V8.94902V8.9386V8.92818V8.91776V8.90734V8.89692V8.88649V8.87607V8.86565V8.85523V8.84481V8.83439V8.82396V8.81354V8.80312V8.7927V8.78227V8.77185V8.76143V8.75101V8.74058V8.73016V8.71973V8.70931V8.69889V8.68846V8.67804V8.66761V8.65719V8.64677V8.63634V8.62592V8.61549V8.60507V8.59464V8.58422V8.57379V8.56336V8.55294V8.54251V8.53209V8.52166V8.51123V8.50081V8.49038V8.47995V8.46953V8.4591V8.44867V8.43825V8.42782V8.41739V8.40696V8.39654V8.38611V8.37568V8.36525V8.35483V8.3444V8.33397V8.32354V8.31311V8.30268V8.29225V8.28183V8.2714V8.26097V8.25054V8.24011V8.22968V8.21925V8.20882V8.19839V8.18796V8.17753V8.1671V8.15667V8.14625V8.13581V8.12539V8.11495V8.10452V8.09409V8.08366V8.07323V8.0628V8.05237V8.04194V8.03151V8.02108V8.01065V8.00022V7.98979V7.97936V7.96893V7.9585V7.94806V7.93763V7.9272V7.91677V7.90634V7.89591V7.88548V7.87504V7.86461V7.85418V7.84375V7.83332V7.82289V7.81245V7.80202V7.79159V7.78116V7.77073V7.7603V7.74986V7.73943V7.729V7.71857V7.70814V7.6977V7.68727V7.67684V7.66641V7.65597V7.64554V7.63511V7.62468V7.61424V7.60381V7.59338V7.58295V7.57252V7.56208V7.55165V7.54122V7.53079V7.52035V7.50992V7.49949V7.48906V7.47862V7.46819V7.45776V7.44733V7.43689V7.42646V7.41603V7.4056V7.39516V7.38473V7.3743V7.36387V7.35343V7.343V7.33257V7.32214V7.3117V7.30127V7.29084V7.28041V7.26997V7.25954V7.24911V7.23868V7.22825V7.21781V7.20738V7.19695V7.18652V7.17608V7.16565V7.15522V7.14479V7.13436V7.12392V7.11349V7.10306V7.09263V7.0822V7.07177V7.06133V7.0509V7.04047V7.03004V7.01961V7.00918V6.99875V6.98831V6.97788V6.96745V6.95702V6.94659V6.93616V6.92573V6.9153V6.90487V6.89444V6.884V6.87357V6.86314V6.85271V6.84228V6.83185V6.82142V6.81099V6.80056V6.79013V6.7797V6.76927V6.75884V6.74841V6.73798V6.72755V6.71712V6.70669V6.69626V6.68583V6.67541V6.66498V6.65455V6.64412V6.63369V6.62326V6.61283V6.6024V6.59198V6.58155V6.57112V6.56069V6.55026V6.53984V6.52941V6.51898V6.50855V6.49813V6.4877V6.47727V6.46684V6.45642V6.44599V6.43556V6.42514V6.41471V6.40428V6.39386V6.38343V6.373V6.36258V6.35215V6.34173V6.3313V6.32088V6.31045V6.30003V6.2896V6.27918V6.26875V6.25833V6.2479V6.23748V6.22705V6.21663V6.20621V6.19578V6.18536V6.17493V6.16451V6.15409V6.14366V6.13324V6.12282V6.1124V6.10197V6.09155V6.08113V6.07071V6.06029V6.04986V6.03944V6.02902V6.0186V6.00818V5.99776V5.98734V5.97692V5.9665V5.95608V5.94566V5.93524V5.92482V5.9144V5.90398V5.89356V5.88314V5.87272V5.8623V5.85189V5.84147V5.83105V5.82063V5.81021V5.7998V5.78938V5.77896V5.76855V5.75813V5.74771V5.7373V5.72688V5.71646V5.70605V5.69563V5.68522V5.6748V5.66439V5.65397V5.64356V5.63315V5.62273V5.61232V5.6019V5.59149V5.58108V5.57066V5.56025V5.54984V5.53943V5.52902V5.5186V5.50819V5.49778V5.48737V5.47696V5.46655V5.45614V5.44573V5.43532V5.42491V5.4145V5.40409V5.39368V5.38327V5.37286V5.36245V5.35205V5.34164V5.33123V5.32082V5.31042V5.30001V5.2896V5.2792V5.26879V5.25838V5.24798V5.23757V5.22717V5.21676V5.20636V5.19595V5.18555V5.17515V5.16474V5.15434V5.14394V5.13353V5.12313V5.11273V5.10233V5.09193V5.08152V5.07112V5.06072V5.05032V5.03992V5.02952V5.01912V5.00872V4.99832V4.98792V4.97753V4.96713V4.95673V4.94633V4.93593V4.92554V4.91514V4.90474V4.89435V4.88395V4.87356V4.86316V4.85276V4.84237V4.83198V4.82158V4.81119V4.80079V4.7904C18.8996 4.38781 18.8021 3.9971 18.6185 3.64212L18.6169 3.63908L18.617 3.63907C18.2417 2.88859 17.6383 2.34283 16.9012 1.91612L16.8982 1.91434L16.8982 1.91432C15.5655 1.11734 14.082 0.707924 12.5274 0.468742L16.4838 7.83429ZM16.4838 7.83429C15.4877 8.41344 14.3818 8.7274 13.2295 8.95256L13.2286 8.95273C10.8286 9.43009 8.42818 9.43032 6.02565 8.99229L6.02464 8.99211C5.05897 8.82014 4.11256 8.5566 3.22232 8.15074L3.22014 8.14978C3.038 8.06883 2.85714 7.9726 2.6607 7.86807C2.60707 7.83954 2.55228 7.81038 2.49598 7.78075L2.12954 7.58789V8.00198C2.12954 8.00872 2.12888 8.01569 2.12534 8.04053L2.1249 8.04358C2.12164 8.06629 2.1161 8.10486 2.1161 8.14979C2.1161 8.29453 2.11764 8.43626 2.11916 8.57641C2.12212 8.85007 2.12501 9.11766 2.11629 9.38962M16.4838 7.83429L2.11629 9.38962M2.11629 9.38962C2.10032 9.73585 2.21776 10.0622 2.50779 10.2818C2.79005 10.5102 3.09968 10.7502 3.44245 10.9359C4.45787 11.4922 5.56342 11.7804 6.6778 11.9706L6.67937 11.9709C8.50438 12.2705 10.3472 12.2984 12.1924 11.9703L12.1924 11.9703L12.1951 11.9698C12.345 11.9415 12.4971 11.9102 12.6503 11.8775C11.9666 12.4809 11.394 13.1865 10.9532 14.0006C10.9525 14.0012 10.9517 14.0018 10.9508 14.0024C10.9475 14.0048 10.9443 14.0068 10.9416 14.0083C10.2812 14.1326 9.60359 14.1081 8.90637 14.0813L8.90593 14.0812C7.46165 14.0282 6.05724 13.803 4.66542 13.4054L4.66482 13.4052C3.96547 13.2073 3.29584 12.9575 2.65441 12.6303L2.63768 12.6217L2.62025 12.6159C2.62025 12.6159 2.62024 12.6159 2.62021 12.6159C2.61993 12.6158 2.61779 12.615 2.61275 12.6127C2.60761 12.6104 2.6042 12.6088 2.59953 12.6066C2.59562 12.6048 2.59083 12.6025 2.58341 12.5991C2.55782 12.5873 2.5172 12.5692 2.46705 12.5567L2.15642 12.479V12.7935C2.15622 12.7944 2.15597 12.7956 2.15565 12.797C2.15495 12.8002 2.15151 12.815 2.14911 12.8282C2.14637 12.8433 2.14298 12.8661 2.14298 12.8933C2.14298 13.0423 2.14451 13.1884 2.14603 13.333C2.14899 13.6159 2.1519 13.8929 2.14314 14.1742C2.12626 14.5896 2.30765 14.885 2.57526 15.1217C3.07791 15.5808 3.67407 15.8761 4.26295 16.1089L4.26301 16.1089C5.37709 16.549 6.54358 16.7956 7.72014 16.8915M2.11629 9.38962L2.08496 21.9147C2.99501 22.4997 4.00155 22.8673 5.0605 23.132L5.06084 23.1321C7.32489 23.7014 9.63187 23.7951 11.9576 23.5295C11.9581 23.5294 11.9585 23.5294 11.959 23.5293L12.1079 23.5107C12.0087 23.4036 11.9115 23.2913 11.825 23.1716L11.8223 23.1678L11.8224 23.1678C11.5955 22.8411 11.3784 22.4987 11.1647 22.1615C11.0645 22.0036 10.9651 21.8468 10.8658 21.6933C10.6101 21.7314 10.3269 21.7702 10.0524 21.7702H10.0472C9.39259 21.7702 8.73919 21.7702 8.08414 21.7156C6.6398 21.6066 5.22723 21.3197 3.87877 20.7281C3.37176 20.5088 2.86553 20.2378 2.45496 19.7991C2.24083 19.5837 2.11296 19.3175 2.12974 18.9836C2.13846 18.7023 2.13554 18.4312 2.13258 18.1562C2.13106 18.016 2.12954 17.8749 2.12954 17.7308C2.12954 17.6859 2.13508 17.6473 2.13834 17.6246L2.13877 17.6215C2.14232 17.5967 2.14298 17.5897 2.14298 17.583V17.1843L2.50187 17.3579C4.87239 18.505 7.37201 18.892 10 18.8809C9.92835 18.2665 9.86604 17.6335 9.96568 16.9824C9.78572 16.9768 9.6037 16.9723 9.42039 16.9678C8.85807 16.9541 8.28368 16.94 7.72014 16.8915M7.72014 16.8915C7.71998 16.8914 7.71982 16.8914 7.71966 16.8914L7.74113 16.6423L7.72085 16.8915C7.72061 16.8915 7.72038 16.8915 7.72014 16.8915ZM0.646228 20.5059C0.996113 21.093 1.49995 21.5377 2.08473 21.9146L0.646228 20.5059ZM0.646228 20.5059C0.398069 20.0839 0.26453 19.6302 0.26453 19.1552V19.1354V19.1156V19.0959V19.0761V19.0564V19.0366V19.0168V18.9971V18.9773V18.9576V18.9378V18.918V18.8983V18.8785V18.8588V18.839V18.8192V18.7995V18.7797V18.76V18.7402V18.7205V18.7007V18.6809V18.6612V18.6414V18.6217V18.6019V18.5822V18.5624V18.5427V18.5229V18.5032V18.4834V18.4636V18.4439V18.4241V18.4044V18.3846V18.3649V18.3451V18.3254V18.3056V18.2859V18.2661V18.2464V18.2266V18.2069V18.1871V18.1674V18.1476V18.1279V18.1081V18.0884V18.0686V18.0489V18.0292V18.0094V17.9897V17.9699V17.9502V17.9304V17.9107V17.8909V17.8712V17.8514V17.8317V17.8119V17.7922V17.7725V17.7527V17.733V17.7132V17.6935V17.6737V17.654V17.6343V17.6145V17.5948V17.575V17.5553V17.5355V17.5158V17.4961V17.4763V17.4566V17.4368V17.4171V17.3974V17.3776V17.3579V17.3381V17.3184V17.2987V17.2789V17.2592V17.2394V17.2197V17.2V17.1802V17.1605V17.1408V17.121V17.1013V17.0815V17.0618V17.0421V17.0223V17.0026V16.9829V16.9631V16.9434V16.9237V16.9039V16.8842V16.8644V16.8447V16.825V16.8052V16.7855V16.7658V16.746V16.7263V16.7066V16.6868V16.6671V16.6474V16.6276V16.6079V16.5882V16.5684V16.5487V16.529V16.5092V16.4895V16.4698V16.45V16.4303V16.4106V16.3909V16.3711V16.3514V16.3317V16.3119V16.2922V16.2725V16.2527V16.233V16.2133V16.1935V16.1738V16.1541V16.1344V16.1146V16.0949V16.0752V16.0554V16.0357V16.016V15.9963V15.9765V15.9568V15.9371V15.9173V15.8976V15.8779V15.8582V15.8384V15.8187V15.799V15.7792V15.7595V15.7398V15.7201V15.7003V15.6806V15.6609V15.6411V15.6214V15.6017V15.582V15.5622V15.5425V15.5228V15.5031V15.4833V15.4636V15.4439V15.4242V15.4044V15.3847V15.365V15.3453V15.3255V15.3058V15.2861V15.2664V15.2466V15.2269V15.2072V15.1875V15.1677V15.148V15.1283V15.1086V15.0888V15.0691V15.0494V15.0297V15.0099V14.9902V14.9705V14.9508V14.931V14.9113V14.8916V14.8719V14.8521V14.8324V14.8127V14.793V14.7732V14.7535V14.7338V14.7141V14.6943V14.6746V14.6549V14.6352V14.6154V14.5957V14.576V14.5563V14.5366V14.5168V14.4971V14.4774V14.4577V14.4379V14.4182V14.3985V14.3788V14.359V14.3393V14.3196V14.2999V14.2801V14.2604V14.2407V14.221V14.2013V14.1815V14.1618V14.1421V14.1224V14.1026V14.0829V14.0632V14.0435V14.0237V14.004V13.9843V13.9646V13.9448V13.9251V13.9054V13.8857V13.866V13.8462V13.8265V13.8068V13.7871V13.7673V13.7476V13.7279V13.7082V13.6884V13.6687V13.649V13.6293V13.6096V13.5898V13.5701V13.5504V13.5307V13.5109V13.4912V13.4715V13.4518V13.432V13.4123V13.3926V13.3729V13.3531V13.3334V13.3137V13.294V13.2742V13.2545V13.2348V13.2151V13.1953V13.1756V13.1559V13.1362V13.1164V13.0967V13.077V13.0573V13.0375V13.0178V12.9981V12.9784V12.9586V12.9389V12.9192V12.8995V12.8797V12.86V12.8403V12.8206V12.8008V12.7811V12.7614V12.7417V12.7219V12.7022V12.6825V12.6628V12.643V12.6233V12.6036V12.5838V12.5641V12.5444V12.5247V12.5049V12.4852V12.4655V12.4458V12.426V12.4063V12.3866V12.3668V12.3471V12.3274V12.3077V12.2879V12.2682V12.2485V12.2288V12.209V12.1893V12.1696V12.1498V12.1301V12.1104V12.0906V12.0709V12.0512V12.0315V12.0117V11.992V11.9723V11.9525V11.9328V11.9131V11.8933V11.8736V11.8539V11.8342V11.8144V11.7947V11.775V11.7552V11.7355V11.7158V11.696V11.6763V11.6566V11.6368V11.6171V11.5974V11.5776V11.5579V11.5382V11.5184V11.4987V11.479V11.4592V11.4395V11.4198V11.4V11.3803V11.3606V11.3408V11.3211V11.3014V11.2816V11.2619V11.2421V11.2224V11.2027V11.1829V11.1632V11.1435V11.1237V11.104V11.0843V11.0645V11.0448V11.025V11.0053V10.9856V10.9658V10.9461V10.9263V10.9066V10.8869V10.8671V10.8474V10.8277V10.8079V10.7882V10.7684V10.7487V10.7289V10.7092V10.6895V10.6697V10.65V10.6302V10.6105V10.5908V10.571V10.5513V10.5315V10.5118V10.492V10.4723V10.4526V10.4328V10.4131V10.3933V10.3736V10.3538V10.3341V10.3143V10.2946V10.2749V10.2551V10.2354V10.2156V10.1959V10.1761V10.1564V10.1366V10.1169V10.0971V10.0774V10.0576V10.0379V10.0181V9.99839V9.97864V9.95889V9.93914V9.91939V9.89964V9.87989V9.86014V9.84038V9.82063V9.80088V9.78113V9.76138V9.74162V9.72187V9.70212V9.68236V9.66261V9.64286V9.6231V9.60335V9.58359V9.56384V9.54408V9.52433V9.50457V9.48482V9.46506V9.4453V9.42555V9.40579V9.38603V9.36627V9.34652V9.32676V9.307V9.28724V9.26748V9.24772V9.22796V9.2082V9.18844V9.16868V9.14892V9.12916V9.1094V9.08963V9.06987V9.05011C0.26453 8.67319 0.266713 8.29495 0.2689 7.91587C0.274392 6.96416 0.279914 6.00716 0.251003 5.05242C0.226417 3.99734 0.655032 3.1905 1.43119 2.49052C2.14666 1.85187 3.02295 1.46189 3.9552 1.12894L3.9552 1.12894L3.95655 1.12845C5.11318 0.707859 6.32745 0.482537 7.56488 0.349408C9.22561 0.190084 10.884 0.216935 12.5273 0.468736L0.646228 20.5059ZM13.4252 11.5764C13.474 11.5438 13.5179 11.5113 13.5659 11.4757C13.5971 11.4526 13.63 11.4282 13.6671 11.4017C13.5614 11.4234 13.4568 11.4456 13.353 11.4681C13.3511 11.4685 13.3491 11.4689 13.3472 11.4693C13.2545 11.4894 13.1625 11.5096 13.071 11.5298L13.4252 11.5764ZM13.4252 11.5764C13.3421 11.6369 13.2604 11.6987 13.18 11.7618L13.4252 11.5764ZM2.40642 12.7992H2.55871H2.56822H2.65642C2.65642 12.8471 2.64822 12.8853 2.6439 12.9048C2.6436 12.9046 2.64329 12.9045 2.64298 12.9043C2.64298 12.9006 2.64298 12.8969 2.64298 12.8933C2.64298 12.8973 2.64283 12.901 2.64262 12.9041C2.63531 12.9005 2.62801 12.8969 2.62071 12.8933C2.59403 12.8799 2.56739 12.8665 2.54079 12.8529C2.52446 12.8475 2.50813 12.8398 2.49091 12.8318C2.46561 12.8199 2.43839 12.8072 2.40642 12.7992ZM2.40642 12.7992L2.3829 12.8933L2.34578 13.0417C2.34938 13.0426 2.3558 13.0447 2.37388 13.0531C2.37547 13.0538 2.37803 13.055 2.38113 13.0564C2.38476 13.0581 2.38914 13.0602 2.39358 13.0622C2.39321 13.0059 2.39298 12.9496 2.39298 12.8933C2.39298 12.8812 2.39569 12.8691 2.39868 12.8558C2.40234 12.8395 2.40642 12.8214 2.40642 12.7992ZM9.28407 7.43228L9.28407 7.43229H9.28645C10.5345 7.43229 11.5438 7.35084 12.5419 7.1731L12.5419 7.17311L12.5441 7.17269C13.6287 6.96933 14.7189 6.68147 15.7192 6.14006C16.0919 5.94664 16.4657 5.71154 16.7539 5.33313C16.8747 5.17953 16.9597 5.00392 16.9624 4.80722C16.965 4.60859 16.8833 4.42944 16.751 4.27086C16.5967 4.0715 16.4022 3.90901 16.2249 3.77255L16.2249 3.77248L16.2195 3.76852C15.7504 3.4274 15.23 3.18963 14.7231 2.99782L14.7231 2.99781L14.7207 2.99692C13.4846 2.54369 12.1982 2.31191 10.8928 2.20312L10.8913 2.203C9.12169 2.06688 7.3618 2.17547 5.62682 2.59886C4.64461 2.83083 3.68304 3.16276 2.82676 3.76637L2.82675 3.76637L2.82549 3.76728C2.61114 3.92038 2.4336 4.11471 2.28276 4.29298L2.28269 4.29291L2.27839 4.29829C2.16839 4.43578 2.10267 4.59693 2.10267 4.77024C2.10267 4.94355 2.16839 5.10471 2.27839 5.2422L2.27831 5.24226L2.28276 5.24751C2.43313 5.42523 2.61005 5.61891 2.82351 5.7718C3.37723 6.18307 4.0089 6.44798 4.63693 6.65297C6.21366 7.21459 7.85373 7.41865 9.28407 7.43228Z" fill="#595959" stroke="white" stroke-width="0.5"/>
<path d="M13.9847 18.5755L13.9847 18.5755L13.9849 18.5771C14.1576 19.6419 14.7208 20.489 15.5582 21.1277L15.5585 21.1279C17.2449 22.4107 19.4921 22.0847 20.8616 20.4156L20.8617 20.4155C22.2267 18.7487 21.9232 16.5726 20.5725 15.2793L20.3929 15.1074L20.22 15.2859C19.9087 15.6072 19.5983 15.9277 19.2882 16.2421C19.2623 15.9768 19.2364 15.7118 19.2105 15.4468C19.0995 14.3115 18.9886 13.1764 18.8776 12.0238C19.0446 12.0444 19.2114 12.065 19.3781 12.0855C20.5694 12.2324 21.752 12.3782 22.946 12.5176C22.9083 12.555 22.8705 12.5924 22.8329 12.6297C22.5168 12.9428 22.2047 13.2519 21.8999 13.5656L21.7338 13.7367L21.8968 13.9107C23.2332 15.338 23.8081 16.9825 23.5119 18.9018C23.2672 20.46 22.4847 21.7058 21.219 22.6356L21.2181 22.6363C18.7225 24.4887 15.1945 23.9759 13.2875 21.5019C11.4533 19.1185 11.8568 15.9748 13.6007 14.1342L13.6081 14.1416L13.6344 14.168L13.6377 14.1713L13.641 14.1745L13.6443 14.1778L13.6476 14.1811L13.6607 14.1943L13.664 14.1976L13.6673 14.2008L13.6706 14.2041L13.6739 14.2074L13.6771 14.2107L13.6804 14.214L13.6837 14.2173L13.687 14.2205L13.6903 14.2238L13.6936 14.2271L13.6968 14.2304L13.7001 14.2337L13.7034 14.237L13.7067 14.2402L13.71 14.2435L13.7133 14.2468L13.7165 14.2501L13.7198 14.2534L13.7231 14.2567L13.7264 14.2599L13.7297 14.2632L13.733 14.2665L13.7362 14.2698L13.7395 14.2731L13.7428 14.2763L13.7461 14.2796L13.7494 14.2829L13.7526 14.2862L13.7559 14.2895L13.7592 14.2927L13.7625 14.296L13.7657 14.2993L13.769 14.3026L13.7723 14.3059L13.7756 14.3091L13.7789 14.3124L13.7821 14.3157L13.7854 14.319L13.7887 14.3222L13.792 14.3255L13.7952 14.3288L13.7985 14.3321L13.8018 14.3353L13.8051 14.3386L13.8083 14.3419L13.8116 14.3452L13.8149 14.3484L13.8182 14.3517L13.8214 14.355L13.8247 14.3583L13.828 14.3615L13.8313 14.3648L13.8345 14.3681L13.8378 14.3714L13.8411 14.3746L13.8444 14.3779L13.8476 14.3812L13.8509 14.3844L13.8542 14.3877L13.8574 14.391L13.8607 14.3943L13.864 14.3975L13.8673 14.4008L13.8705 14.4041L13.8738 14.4073L13.8771 14.4106L13.8803 14.4139L13.8836 14.4172L13.8869 14.4204L13.8901 14.4237L13.8934 14.427L13.8967 14.4302L13.9 14.4335L13.9032 14.4368L13.9065 14.44L13.9098 14.4433L13.913 14.4466L13.9163 14.4498L13.9196 14.4531L13.9228 14.4564L13.9261 14.4596L13.9294 14.4629L13.9326 14.4662L13.9359 14.4694L13.9392 14.4727L13.9424 14.476L13.9457 14.4792L13.949 14.4825L13.9522 14.4858L13.9555 14.489L13.9588 14.4923L13.962 14.4956L13.9653 14.4988L13.9685 14.5021L13.9718 14.5054L13.9751 14.5086L13.9783 14.5119L13.9816 14.5151L13.9849 14.5184L13.9881 14.5217L13.9914 14.5249L13.9947 14.5282L13.9979 14.5315L14.0012 14.5347L14.0044 14.538L14.0077 14.5412L14.011 14.5445L14.0142 14.5478L14.0175 14.551L14.0207 14.5543L14.024 14.5576L14.0273 14.5608L14.0305 14.5641L14.0338 14.5673L14.037 14.5706L14.0403 14.5739L14.0436 14.5771L14.0468 14.5804L14.0501 14.5836L14.0533 14.5869L14.0566 14.5902L14.0599 14.5934L14.0631 14.5967L14.0664 14.5999L14.0696 14.6032L14.0729 14.6064L14.0762 14.6097L14.0794 14.613L14.0827 14.6162L14.0859 14.6195L14.0892 14.6227L14.0924 14.626L14.0957 14.6292L14.0989 14.6325L14.1022 14.6358L14.1055 14.639L14.1087 14.6423L14.112 14.6455L14.1152 14.6488L14.1185 14.652L14.1217 14.6553L14.125 14.6585L14.1282 14.6618L14.1315 14.6651L14.1348 14.6683L14.138 14.6716L14.1413 14.6748L14.1445 14.6781L14.1478 14.6813L14.151 14.6846L14.1543 14.6878L14.1575 14.6911L14.1608 14.6943L14.164 14.6976L14.1673 14.7008L14.1705 14.7041L14.1738 14.7073L14.177 14.7106L14.1803 14.7139L14.1836 14.7171L14.1868 14.7204L14.1901 14.7236L14.1933 14.7269L14.1966 14.7301L14.1998 14.7334L14.2031 14.7366L14.2063 14.7399L14.2096 14.7431L14.2128 14.7464L14.2161 14.7496L14.2193 14.7529L14.2226 14.7561L14.2258 14.7594L14.2291 14.7626L14.2323 14.7659L14.2356 14.7691L14.2388 14.7724L14.2421 14.7756L14.2453 14.7789L14.2486 14.7821L14.2518 14.7854L14.2551 14.7886L14.2583 14.7918L14.2615 14.7951L14.2648 14.7983L14.268 14.8016L14.2713 14.8048L14.2745 14.8081L14.2778 14.8113L14.281 14.8146L14.2843 14.8178L14.2875 14.8211L14.2908 14.8243L14.294 14.8276L14.2973 14.8308L14.3005 14.8341L14.3038 14.8373L14.307 14.8406L14.3102 14.8438L14.3135 14.847L14.3167 14.8503L14.32 14.8535L14.3232 14.8568L14.3265 14.86L14.3297 14.8633L14.333 14.8665L14.3362 14.8698L14.3395 14.873L14.3427 14.8762L14.3459 14.8795L14.3492 14.8827L14.3524 14.886L14.3557 14.8892L14.3589 14.8925L14.3622 14.8957L14.3654 14.899L14.3686 14.9022L14.3719 14.9054L14.3751 14.9087L14.3784 14.9119L14.3816 14.9152L14.3849 14.9184L14.3881 14.9217L14.3913 14.9249L14.3946 14.9281L14.3978 14.9314L14.4011 14.9346L14.4043 14.9379L14.4076 14.9411L14.4108 14.9443L14.414 14.9476L14.4173 14.9508L14.4205 14.9541L14.4238 14.9573L14.427 14.9605L14.4302 14.9638L14.4335 14.967L14.4367 14.9703L14.44 14.9735L14.4432 14.9768L14.4464 14.98L14.4497 14.9832L14.4529 14.9865L14.4562 14.9897L14.4594 14.993L14.4626 14.9962L14.4659 14.9994L14.4691 15.0027L14.4724 15.0059L14.4756 15.0091L14.4788 15.0124L14.4821 15.0156L14.4853 15.0189L14.4886 15.0221L14.4918 15.0253L14.495 15.0286L14.4983 15.0318L14.5015 15.0351L14.5047 15.0383L14.508 15.0415L14.5112 15.0448L14.5145 15.048L14.5177 15.0512L14.5209 15.0545L14.5242 15.0577L14.5274 15.061L14.5306 15.0642L14.5339 15.0674L14.5371 15.0707L14.5404 15.0739L14.5436 15.0771L14.5468 15.0804L14.5501 15.0836L14.5533 15.0869L14.5565 15.0901L14.5598 15.0933L14.563 15.0966L14.5662 15.0998L14.5695 15.103L14.5727 15.1063L14.576 15.1095L14.5792 15.1127L14.5824 15.116L14.5857 15.1192L14.5889 15.1224L14.5921 15.1257L14.5954 15.1289L14.5986 15.1322L14.6018 15.1354L14.6051 15.1386L14.6083 15.1419L14.6115 15.1451L14.6148 15.1483L14.618 15.1516L14.6212 15.1548L14.6245 15.158L14.6277 15.1613L14.631 15.1645L14.6342 15.1677L14.6374 15.171L14.6407 15.1742L14.6439 15.1774L14.6471 15.1807L14.6504 15.1839L14.6536 15.1871L14.6568 15.1904L14.6601 15.1936L14.6633 15.1968L14.6665 15.2001L14.6698 15.2033L14.673 15.2065L14.6762 15.2098L14.6795 15.213L14.6827 15.2162L14.6859 15.2195L14.6892 15.2227L14.6924 15.2259L14.6956 15.2292L14.6989 15.2324L14.7021 15.2356L14.7053 15.2389L14.7085 15.2421L14.7118 15.2453L14.715 15.2486L14.7182 15.2518L14.7215 15.255L14.7247 15.2583L14.7279 15.2615L14.7312 15.2647L14.7344 15.268L14.7376 15.2712L14.7409 15.2744L14.7441 15.2776L14.7473 15.2809L14.7506 15.2841L14.7538 15.2873L14.757 15.2906L14.7603 15.2938L14.7635 15.297L14.7667 15.3003L14.77 15.3035L14.7732 15.3067L14.7764 15.31L14.7796 15.3132L14.7829 15.3164L14.7861 15.3197L14.7893 15.3229L14.7926 15.3261L14.7958 15.3293L14.799 15.3326L14.8023 15.3358L14.8055 15.339L14.8087 15.3423L14.812 15.3455L14.8152 15.3487L14.8184 15.352L14.8216 15.3552L14.8249 15.3584L14.8281 15.3617L14.8313 15.3649L14.8346 15.3681L14.8378 15.3713L14.841 15.3746L14.8443 15.3778L14.8475 15.381L14.8507 15.3843L14.8539 15.3875L14.8572 15.3907L14.8604 15.394L14.8636 15.3972L14.8669 15.4004L14.8701 15.4036L14.8733 15.4069L14.8765 15.4101L14.8798 15.4133L14.883 15.4166L14.8862 15.4198L14.8895 15.423L14.8927 15.4262L14.8959 15.4295L14.8992 15.4327L14.9024 15.4359L14.9056 15.4392L14.9088 15.4424L14.9121 15.4456L14.9153 15.4488L14.9185 15.4521L14.9211 15.4546C14.1662 16.3256 13.796 17.3627 13.9847 18.5755Z" fill="#595959" stroke="white" stroke-width="0.5"/>
</svg>
