<svg width="27" height="24" viewBox="0 0 27 24" fill="none" xmlns="http://www.w3.org/2000/svg">
<path d="M17.0019 11.8666C17.5108 11.8666 18.0043 11.8666 18.5132 11.8666C18.6057 11.8666 18.7137 11.882 18.8062 11.8666C19.0067 11.8512 19.0992 11.7895 19.1609 11.6044C19.1763 11.5582 19.1917 11.5119 19.1917 11.4811C19.639 10.1857 20.5026 9.33746 21.8288 8.98277C22.492 8.79771 23.1551 8.85939 23.7874 9.10614C24.6818 9.44542 25.3758 10.0469 25.8076 10.9105C26.2394 11.7741 26.3165 12.6685 25.9927 13.5784C25.6071 14.6579 24.8515 15.429 23.7874 15.83C22.5999 16.2772 21.4896 16.0613 20.4872 15.2902C19.824 14.7967 19.3768 14.1336 19.1609 13.3317C19.0992 13.1158 19.0221 13.0541 18.8062 13.0541C18.359 13.0541 17.8963 13.0541 17.4491 13.0541C16.6163 13.0541 15.799 13.0541 14.9662 13.0541C14.7503 13.0541 14.5961 13.1312 14.4881 13.3317C14.3185 13.6709 14.0563 13.9485 13.7633 14.1799C13.7325 14.1953 13.7171 14.2107 13.6862 14.2415C13.5783 14.3341 13.532 14.4266 13.5783 14.5654C13.6554 14.8584 13.7479 15.1668 13.825 15.4598C14.1951 16.817 14.5652 18.1741 14.9354 19.5466C14.9354 19.562 14.9508 19.5928 14.9508 19.6083C14.9816 19.7471 15.0742 19.8242 15.213 19.8396C15.4751 19.8859 15.7219 19.963 15.9532 20.0863C16.3233 20.2868 16.6317 20.549 16.8631 20.9191C17.1869 21.4434 17.2486 22.014 17.0173 22.5846C16.7243 23.3095 16.1999 23.7721 15.4443 23.9572C15.1204 24.0343 14.7966 24.0034 14.4881 23.8955C13.8713 23.6796 13.4086 23.2632 13.1619 22.6617C12.838 21.9215 13.0231 21.0733 13.6091 20.5027C13.6399 20.4719 13.6862 20.441 13.7171 20.4102C13.8713 20.2868 13.9021 20.1172 13.8559 19.9321C13.7171 19.4232 13.5783 18.9143 13.4395 18.4054C13.131 17.2796 12.8226 16.1692 12.5142 15.0435C12.4371 14.7813 12.4371 14.7659 12.1441 14.7813C11.6814 14.7967 11.2496 14.6733 10.8486 14.442C10.8332 14.4266 10.8178 14.4266 10.7869 14.4112C10.6173 14.2878 10.4477 14.3032 10.278 14.4112C9.92334 14.6117 9.56864 14.8121 9.21394 15.0126C8.56623 15.3827 7.91852 15.7529 7.25539 16.1076C7.23997 16.123 7.22455 16.123 7.19371 16.1384C7.00865 16.2464 6.99323 16.308 7.03949 16.4931C7.37877 17.7885 7.05491 18.8989 6.14504 19.8704C5.72865 20.3177 5.23516 20.6261 4.64914 20.8266C3.89348 21.0887 3.13782 21.0733 2.39758 20.7803C1.45686 20.4102 0.762891 19.7625 0.331085 18.8526C-0.0852989 17.989 -0.10072 17.11 0.238556 16.2155C0.732048 14.9355 1.67277 14.149 3.01445 13.8868C3.98601 13.7018 4.86504 13.9485 5.65155 14.5346C5.85203 14.6888 6.02167 14.8584 6.20673 15.028C6.23757 15.0589 6.26841 15.1052 6.31468 15.136C6.37636 15.1977 6.45347 15.1977 6.53058 15.1668C6.57684 15.1514 6.60769 15.1206 6.65395 15.1052C7.57925 14.5808 8.51997 14.0565 9.44527 13.5167C9.49153 13.4859 9.55322 13.455 9.59948 13.4242C9.67659 13.3625 9.69201 13.3008 9.64575 13.2083C9.63033 13.1774 9.63033 13.162 9.6149 13.1312C9.50695 12.9461 9.42984 12.7302 9.41442 12.5143C9.399 12.3138 9.27563 12.2059 9.09057 12.1596C8.30407 11.9437 7.53298 11.7432 6.74648 11.5273C6.03709 11.3269 5.32769 11.1418 4.63372 10.9413C4.46408 10.895 4.34071 10.9259 4.23276 11.0647C4.10938 11.2189 3.95517 11.3731 3.80095 11.4965C3.23035 11.9283 2.59806 12.0362 1.93493 11.7741C1.1947 11.4811 0.732047 10.9259 0.562409 10.1548C0.485301 9.78469 0.546988 9.41457 0.701204 9.0753C1.00964 8.39675 1.53397 7.94952 2.27421 7.7953C2.75228 7.70277 3.21493 7.7953 3.63131 8.05747C4.12481 8.3659 4.44866 8.81313 4.6183 9.36831C4.6183 9.38373 4.63372 9.41457 4.63372 9.42999C4.66456 9.67674 4.81878 9.78469 5.0501 9.84638C6.45347 10.2165 7.84142 10.602 9.22936 10.9722C9.50695 11.0493 9.5378 11.0338 9.66117 10.7871C9.76912 10.5558 9.92334 10.3399 10.1084 10.1548C10.1238 10.1394 10.1392 10.124 10.1547 10.1085C10.2626 9.98517 10.278 9.90806 10.2009 9.75385C10.1855 9.723 10.1701 9.70758 10.1547 9.67674C9.67659 8.85939 9.21394 8.05747 8.73587 7.24012C8.72045 7.2247 8.72045 7.20928 8.70503 7.17844C8.6125 7.02422 8.55081 6.99338 8.38117 7.03964C7.10118 7.37892 6.00624 7.03964 5.0501 6.16061C4.66456 5.80591 4.37155 5.37411 4.15565 4.88061C3.80095 4.06327 3.80095 3.2305 4.12481 2.41315C4.58745 1.25653 5.38938 0.470029 6.60769 0.130753C7.45588 -0.115993 8.27322 -0.00804117 9.0443 0.408343C10.0313 0.932678 10.6944 1.7346 10.9566 2.82954C11.1879 3.78568 11.0183 4.69556 10.4631 5.5129C10.3089 5.74423 10.1238 5.96013 9.90792 6.16061C9.87707 6.19145 9.83081 6.23772 9.79996 6.26856C9.64575 6.40736 9.64575 6.49989 9.73828 6.68495C10.2163 7.51771 10.6944 8.33506 11.1879 9.16783C11.2804 9.33746 11.3421 9.36831 11.5426 9.32204C12.252 9.16783 12.8997 9.2912 13.5012 9.69216C13.5937 9.75385 13.6862 9.83096 13.7787 9.89264C13.9638 10.0314 14.0255 10.0314 14.1951 9.87722C14.2568 9.81553 14.3185 9.75385 14.3802 9.69216C15.4289 8.64349 16.4621 7.61024 17.5108 6.56157C17.5416 6.53073 17.5879 6.48446 17.6187 6.45362C17.7421 6.33025 17.7729 6.20687 17.6958 6.05266C17.3411 5.25073 17.5725 4.40254 18.1431 3.84737C18.5749 3.43098 19.0838 3.19966 19.6852 3.21508C20.0862 3.2305 20.4563 3.3693 20.7802 3.61604C21.1194 3.87821 21.3662 4.20206 21.5358 4.5876C21.7055 4.97314 21.7363 5.37411 21.5975 5.77507C21.3662 6.48446 20.919 7.0088 20.1941 7.25554C19.7315 7.40976 19.2843 7.40976 18.837 7.19386C18.6366 7.10133 18.5594 7.11675 18.4052 7.28639C18.0043 7.70277 17.5879 8.10373 17.1715 8.52012C16.385 9.30662 15.6139 10.0777 14.8274 10.8488C14.6886 10.9876 14.6424 11.1264 14.7195 11.296C14.7503 11.404 14.7811 11.5119 14.8274 11.6044C14.8891 11.7587 14.9971 11.8358 15.1513 11.8358C15.3363 11.8358 15.5214 11.8358 15.7064 11.8358C16.1537 11.8666 16.5701 11.8666 17.0019 11.8666ZM9.92334 3.63146C9.92334 3.55435 9.92334 3.46182 9.92334 3.38472C9.90791 3.27677 9.89249 3.16881 9.87707 3.07628C9.67659 2.24352 9.19852 1.65749 8.38117 1.36448C7.93395 1.21027 7.4713 1.17942 7.00865 1.27195C6.20672 1.42617 5.6207 1.85798 5.31227 2.61364C5.01926 3.30761 5.0501 4.017 5.34311 4.71098C5.58986 5.31242 6.05251 5.71338 6.66937 5.91386C7.22455 6.09892 7.79515 6.09892 8.35033 5.91386C8.98262 5.71338 9.42984 5.31242 9.72285 4.7264C9.86165 4.3717 9.92334 4.00158 9.92334 3.63146ZM6.03709 17.403C6.00624 17.2179 6.00624 17.0174 5.95998 16.8324C5.7595 15.9688 5.25058 15.3673 4.38697 15.1052C3.83179 14.9355 3.26119 14.9509 2.70602 15.1514C1.9812 15.4136 1.50313 15.9225 1.28723 16.6627C1.16385 17.0945 1.14843 17.5263 1.25638 17.9582C1.45686 18.8526 1.99662 19.4695 2.89108 19.7162C3.52336 19.9013 4.14023 19.8242 4.74167 19.5466C5.28143 19.2998 5.65155 18.8834 5.86745 18.3129C5.9754 18.0353 6.02167 17.7268 6.03709 17.403ZM25.0365 12.4372C25.0211 12.3138 25.0211 12.1905 25.0057 12.0671C24.8977 11.3269 24.543 10.7563 23.8953 10.3861C23.3864 10.0931 22.8312 10.0006 22.2452 10.0623C21.4587 10.1548 20.8573 10.5558 20.4872 11.2497C20.1479 11.882 20.117 12.5606 20.3175 13.2391C20.5334 13.9794 21.0269 14.4883 21.7517 14.735C22.1218 14.8584 22.5228 14.9047 22.9083 14.8584C23.6177 14.7813 24.1883 14.4729 24.6047 13.8714C24.9132 13.4396 25.0211 12.9615 25.0365 12.4372ZM12.1286 13.5784C12.1903 13.5784 12.2674 13.5784 12.3291 13.5784C12.3754 13.5784 12.4371 13.563 12.4833 13.563C13.0693 13.4705 13.5166 13.0541 13.6399 12.4681C13.7171 12.0979 13.7016 11.7432 13.5783 11.3885C13.424 10.9259 13.1002 10.6329 12.6221 10.5095C12.2983 10.417 11.959 10.417 11.6351 10.5095C11.1108 10.6483 10.7561 10.9722 10.6019 11.4965C10.5094 11.7895 10.4939 12.0979 10.5556 12.4064C10.6636 12.9307 10.9566 13.3008 11.4809 13.5013C11.6814 13.5476 11.8973 13.5938 12.1286 13.5784ZM18.6982 5.297C18.7137 5.34326 18.6982 5.38953 18.7137 5.43579C18.7445 5.82133 18.9758 6.11434 19.346 6.19145C19.4539 6.2223 19.5773 6.2223 19.6852 6.2223C20.0862 6.20687 20.3792 5.99097 20.4872 5.63627C20.5488 5.42037 20.5643 5.20447 20.5026 4.98857C20.4255 4.69555 20.225 4.49507 19.932 4.41796C19.7932 4.3717 19.639 4.3717 19.5002 4.38712C19.0684 4.43339 18.8062 4.66471 18.7291 5.09652C18.6982 5.1582 18.6982 5.23531 18.6982 5.297ZM15.0587 22.8314C15.105 22.816 15.1513 22.8314 15.1975 22.816C15.5368 22.7697 15.799 22.6155 15.9069 22.2762C15.984 22.0449 15.984 21.8136 15.9223 21.5668C15.8298 21.2738 15.6448 21.0887 15.3517 21.0116C15.1513 20.9654 14.9508 20.9654 14.7503 21.0116C14.4419 21.0887 14.2414 21.2892 14.1951 21.5977C14.1643 21.7519 14.1643 21.9215 14.1797 22.0757C14.2105 22.4613 14.4727 22.7389 14.8583 22.8005C14.9199 22.8314 14.9816 22.8314 15.0587 22.8314ZM2.64433 8.9365C2.5518 8.9365 2.47469 8.9365 2.413 8.95192C2.07373 8.98277 1.82698 9.18325 1.74987 9.5071C1.68819 9.73843 1.68819 9.96975 1.74987 10.2011C1.82698 10.4632 1.99662 10.6483 2.27421 10.71C2.49011 10.7717 2.69059 10.7717 2.9065 10.7254C3.23035 10.6483 3.43083 10.4478 3.49252 10.124C3.52336 9.93891 3.52336 9.76927 3.49252 9.58421C3.43083 9.26036 3.23035 9.04445 2.9065 8.98277C2.81397 8.95192 2.72144 8.95192 2.64433 8.9365Z" fill="#595959"/>
</svg>
