<svg width="24" height="24" viewBox="0 0 24 24" fill="none" xmlns="http://www.w3.org/2000/svg">
<path d="M12.7414 0C13.1671 0.0665142 13.6061 0.106423 14.0318 0.18624C16.5194 0.611931 18.6612 1.72937 20.4438 3.51195C22.2795 5.34774 23.4236 7.55602 23.8227 10.1235C24.2617 12.957 23.7695 15.6441 22.2795 18.1052C20.6699 20.779 18.3818 22.6148 15.3754 23.4795C11.5841 24.5704 8.0455 23.9451 4.85282 21.6171C2.29867 19.7547 0.728935 17.2139 0.183518 14.101C-0.707773 8.97942 1.70004 3.97755 6.26292 1.46331C7.75284 0.638537 9.36248 0.172937 11.0652 0.0399086C11.1318 0.0399086 11.185 0.0133028 11.2382 0C11.7437 0 12.2492 0 12.7414 0ZM0.994991 11.9726C0.981689 18.0121 5.91704 22.9474 11.9698 22.974C17.996 23.0006 22.9314 18.0786 22.9713 11.9992C23.0112 5.97298 18.0492 1.01102 11.9964 0.997713C5.97026 0.984411 1.0216 5.91977 0.994991 11.9726Z" fill="#595959"/>
<path d="M19.1532 9.73769C19.5789 9.73769 19.9913 9.73769 20.4037 9.73769C21.0422 9.73769 21.4812 10.1368 21.4812 10.7753C21.4945 11.5735 21.4945 12.385 21.4812 13.1831C21.4679 13.8483 21.0555 14.2341 20.3904 14.2341C20.0179 14.2341 19.6587 14.2474 19.2863 14.2341C19.1665 14.2341 19.1133 14.274 19.0734 14.3937C18.9537 14.6997 18.834 15.0056 18.7009 15.2983C18.6477 15.418 18.661 15.4845 18.7542 15.5776C19.0202 15.8304 19.273 16.0964 19.539 16.3492C20.0046 16.8148 20.0046 17.4001 19.539 17.8657C18.9803 18.4378 18.4216 18.9965 17.8496 19.5552C17.4106 19.9942 16.8385 19.9942 16.3862 19.5685C16.1069 19.3024 15.8541 19.0231 15.5748 18.757C15.5216 18.7038 15.3885 18.6772 15.322 18.7038C14.9628 18.8368 14.617 18.9965 14.2445 19.1561C14.2445 19.5419 14.2445 19.9543 14.2445 20.3667C14.2445 21.0584 13.8454 21.4841 13.1404 21.4841C12.3821 21.4974 11.6105 21.4841 10.8523 21.4841C10.1605 21.4841 9.74812 21.0717 9.74812 20.3667C9.74812 19.9676 9.74812 19.5552 9.74812 19.1428C9.36234 18.9832 8.98986 18.8102 8.60408 18.6639C8.55087 18.6506 8.45775 18.6905 8.41784 18.7437C8.16509 18.9965 7.91233 19.2492 7.65958 19.502C7.15407 19.9942 6.59535 19.9942 6.08984 19.502C5.55773 18.9699 5.01231 18.4378 4.4802 17.8923C3.97469 17.3868 3.97469 16.8148 4.4669 16.3093C4.71965 16.0565 4.9724 15.8038 5.22516 15.551C5.31828 15.4712 5.31828 15.4047 5.27837 15.285C5.14534 14.979 5.02561 14.6597 4.89259 14.3671C4.86598 14.3006 4.75956 14.2341 4.69304 14.2341C4.30726 14.2207 3.93478 14.2341 3.549 14.2207C2.95037 14.2074 2.53798 13.8616 2.51138 13.2762C2.47147 12.4116 2.47147 11.5469 2.51138 10.6822C2.53798 10.0969 2.96367 9.73769 3.549 9.73769C3.92148 9.73769 4.29396 9.73769 4.66644 9.73769C4.79947 9.73769 4.85268 9.71108 4.90589 9.57806C5.02561 9.27209 5.14534 8.96612 5.27837 8.67346C5.33158 8.55374 5.31828 8.48722 5.22516 8.3941C4.9591 8.14135 4.70635 7.87529 4.44029 7.62254C3.97469 7.14363 3.97469 6.58492 4.44029 6.10601C4.99901 5.54729 5.55773 4.98857 6.11645 4.42985C6.58205 3.97756 7.15407 3.97756 7.60637 4.41655C7.88573 4.68261 8.13848 4.96197 8.41784 5.22802C8.47105 5.28124 8.59078 5.29454 8.64399 5.26793C8.96326 5.14821 9.26922 5.01518 9.57519 4.89545C9.68161 4.85554 9.73482 4.80233 9.72152 4.6693C9.70822 4.29683 9.72152 3.92435 9.72152 3.55187C9.72152 2.92663 10.1206 2.50094 10.7458 2.48764C11.5573 2.47434 12.3688 2.47434 13.1803 2.48764C13.8188 2.50094 14.2179 2.92663 14.2179 3.56517C14.2179 3.92435 14.2312 4.28352 14.2179 4.6427C14.2179 4.78903 14.2711 4.85555 14.4041 4.90876C14.6835 5.00188 14.9628 5.1083 15.2289 5.24133C15.3885 5.32114 15.4817 5.29454 15.6014 5.16151C15.8408 4.90876 16.0936 4.656 16.3463 4.41655C16.8119 3.96425 17.384 3.96425 17.8363 4.41655C18.395 4.97527 18.9537 5.53399 19.5124 6.09271C19.978 6.57161 19.978 7.13033 19.5257 7.60923C19.2597 7.87529 18.9936 8.14135 18.7409 8.4074C18.7009 8.46062 18.661 8.56704 18.6743 8.62025C18.834 8.99273 18.9936 9.35191 19.1532 9.73769ZM5.11873 6.87758C5.49121 7.25006 5.86369 7.60923 6.22287 7.98171C6.50223 8.26107 6.51553 8.43401 6.3426 8.79319C6.12975 9.23218 5.93021 9.68448 5.77057 10.1501C5.59764 10.6556 5.53112 10.7221 4.98571 10.7354C4.4935 10.7354 4.0013 10.7354 3.50909 10.7354C3.50909 11.5735 3.50909 12.3983 3.50909 13.2363C4.0412 13.2363 4.54671 13.2363 5.06552 13.2363C5.49121 13.2363 5.61094 13.3428 5.75727 13.7418C5.91691 14.2074 6.10315 14.6597 6.31599 15.0987C6.52884 15.551 6.52884 15.6841 6.16966 16.0432C5.81048 16.3891 5.45131 16.735 5.11873 17.0676C5.73067 17.6795 6.30269 18.2648 6.90132 18.8634C7.2738 18.4777 7.64628 18.0919 8.03206 17.7194C8.28481 17.4666 8.45775 17.4666 8.77702 17.5997C9.28253 17.8258 9.80134 18.0387 10.3334 18.2382C10.6394 18.3579 10.7591 18.491 10.7591 18.8235C10.7591 19.2891 10.7591 19.7414 10.7591 20.207C10.7591 20.2868 10.7724 20.3667 10.7724 20.4465C11.6105 20.4465 12.4353 20.4465 13.2601 20.4465C13.2601 19.9144 13.2601 19.3956 13.2601 18.89C13.2601 18.4777 13.3665 18.3579 13.739 18.2249C14.2312 18.0387 14.7234 17.8391 15.2023 17.6263C15.5615 17.4666 15.7211 17.4666 16.0005 17.746C16.3729 18.1185 16.7454 18.5043 17.078 18.8501C17.6899 18.2515 18.2753 17.6662 18.8739 17.0676C18.5147 16.7217 18.1555 16.3625 17.7963 16.0033C17.4771 15.6841 17.4638 15.5377 17.6633 15.1386C17.8629 14.713 18.0491 14.2873 18.2087 13.8483C18.395 13.2895 18.4615 13.223 19.0468 13.223C19.5257 13.223 19.9913 13.223 20.4835 13.223C20.4835 12.3717 20.4835 11.5602 20.4835 10.7221C20.3771 10.7221 20.284 10.7221 20.1909 10.7221C19.7386 10.7221 19.2863 10.7221 18.834 10.7221C18.528 10.7221 18.395 10.6024 18.2753 10.323C18.0624 9.7776 17.8363 9.24548 17.5968 8.71337C17.4771 8.44731 17.5037 8.26107 17.7032 8.04823C17.8762 7.86199 18.0624 7.67575 18.2486 7.50281C18.4615 7.28997 18.6876 7.09042 18.8872 6.90418C18.2752 6.27895 17.7032 5.70693 17.1179 5.095C16.7321 5.48078 16.3596 5.86656 15.9739 6.23904C15.7211 6.4918 15.5482 6.4918 15.2422 6.35877C14.7234 6.13262 14.1913 5.91977 13.6725 5.70693C13.3798 5.5872 13.2734 5.46748 13.2601 5.14821C13.2601 4.68261 13.2601 4.21701 13.2601 3.73811C13.2601 3.65829 13.2601 3.57847 13.2601 3.49865C12.4087 3.49865 11.5972 3.49865 10.7591 3.49865C10.7591 4.04407 10.7591 4.56288 10.7591 5.08169C10.7591 5.46748 10.6527 5.5872 10.2802 5.72023C9.78803 5.90647 9.30913 6.09271 8.83023 6.31886C8.45775 6.4918 8.29811 6.4918 7.99215 6.18583C7.61967 5.81335 7.26049 5.44087 6.88801 5.06839C6.28939 5.70693 5.71736 6.27895 5.11873 6.87758Z" fill="#595959"/>
<path d="M14.5371 11.9726C14.4573 11.6533 14.4174 11.3207 14.2977 11.0414C13.872 10.0836 13.1403 9.53816 12.0894 9.51156C11.1449 9.48495 10.2004 9.49825 9.2559 9.49825C9.2293 9.49825 9.20269 9.51156 9.12287 9.52486C9.45544 9.81752 9.76141 10.0969 10.0807 10.3762C9.86783 10.629 9.65499 10.8551 9.42884 11.1212C9.32242 11.0281 9.2293 10.9483 9.12287 10.8684C8.59076 10.4028 8.05865 9.95055 7.53983 9.48495C7.16735 9.15238 7.16735 8.87302 7.52653 8.54045C8.15177 7.99503 8.777 7.44962 9.42884 6.87759C9.65499 7.13035 9.85453 7.3698 10.0807 7.62255C9.77471 7.90191 9.45544 8.16797 9.09627 8.50054C9.2426 8.50054 9.33572 8.50054 9.41554 8.50054C10.3999 8.51384 11.3844 8.47394 12.3688 8.54045C14.1114 8.64687 15.5215 10.2432 15.4683 11.9726C15.1491 11.9726 14.8298 11.9726 14.5371 11.9726Z" fill="#595959"/>
<path d="M14.8829 14.4735C14.5237 14.1542 14.2178 13.8882 13.9118 13.6088C14.1246 13.3561 14.3375 13.1166 14.5636 12.8639C14.6301 12.9171 14.6834 12.957 14.7366 12.9969C15.3219 13.5024 15.9072 14.0079 16.4792 14.5267C16.8251 14.8327 16.8251 15.1253 16.4792 15.4313C15.854 15.99 15.2288 16.5354 14.5636 17.1075C14.3508 16.8547 14.1379 16.6153 13.9118 16.3625C14.2178 16.0831 14.5237 15.8171 14.8962 15.4978C14.7499 15.4978 14.6701 15.4978 14.5902 15.4978C13.6191 15.4845 12.648 15.5244 11.6902 15.4579C9.92094 15.3515 8.49753 13.7951 8.51083 11.9859C8.67047 11.9859 8.8301 11.9859 8.98974 11.9859C9.14937 11.9859 9.30901 11.9859 9.42873 11.9859C9.54846 12.3717 9.60167 12.7441 9.7613 13.0767C10.187 13.9281 10.892 14.4336 11.8498 14.4735C12.8343 14.5001 13.832 14.4735 14.8829 14.4735Z" fill="#595959"/>
</svg>
