<svg width="30" height="24" viewBox="0 0 30 24" fill="none" xmlns="http://www.w3.org/2000/svg">
<path d="M0.0159681 24C0.0159681 23.9521 0 23.8882 0 23.8403C0 23.505 0 23.1856 0 22.8503C0 22.8184 0 22.7864 0 22.7385C6.75449 22.7385 13.509 22.7385 20.2794 22.7385C20.2315 22.5469 20.1996 22.3713 20.1677 22.1796C19.8004 20.503 19.4491 18.8104 19.0818 17.1337C19.0339 16.9421 19.002 16.7505 18.9541 16.5589C18.8743 16.1597 19.1617 15.8084 19.5609 15.7924C19.6567 15.7924 19.7365 15.7924 19.8483 15.7924C19.7525 15.5848 19.6407 15.3932 19.5609 15.2016C19.2575 14.5309 19.0818 13.8124 19.002 13.0778C18.9381 12.487 18.9222 11.9122 18.9701 11.3214C19.018 10.6507 19.1297 9.98004 19.2735 9.32535C19.3693 8.91018 19.4651 8.49501 19.5768 8.07984C19.7206 7.56886 20.2475 7.42515 20.6467 7.76048C20.9341 8 21.2056 8.25549 21.493 8.49501C21.509 8.3513 21.525 8.19162 21.5569 8.04791C21.6846 7.1537 21.9561 6.30739 22.4032 5.50898C22.7066 4.9501 23.0898 4.43912 23.5369 3.99202C23.7285 3.8004 23.9681 3.73653 24.2236 3.84831C24.3194 3.89621 24.4152 3.96008 24.495 4.03992C25.0699 4.63074 25.501 5.3014 25.8363 6.03593C26.0918 6.59481 26.2675 7.16966 26.3792 7.77645C26.3792 7.79242 26.3952 7.82435 26.3952 7.85629C26.475 7.79242 26.5549 7.71258 26.6347 7.64871C26.8743 7.45709 27.1297 7.26547 27.3693 7.07386C27.7365 6.8024 28.2315 6.96208 28.3593 7.39322C28.5828 8.12775 28.7585 8.87825 28.8543 9.64471C28.9182 10.1557 28.9501 10.6667 28.998 11.1936C28.998 11.2256 29.014 11.2575 29.014 11.3054C29.014 11.5609 29.014 11.8164 29.014 12.0878C29.014 12.1198 28.998 12.1677 28.998 12.1996C28.982 12.503 28.9661 12.7904 28.9341 13.0938C28.8543 13.8603 28.6786 14.5948 28.3912 15.3134C28.3273 15.4731 28.2635 15.6327 28.1836 15.7924C28.2635 15.7924 28.3273 15.7924 28.3912 15.7924C28.6946 15.7924 28.9341 16 28.998 16.2874C28.998 16.3034 29.014 16.3353 29.014 16.3513C29.014 16.3992 29.014 16.4631 29.014 16.511C28.998 16.5908 28.9661 16.6547 28.9501 16.7345C28.5669 18.507 28.1836 20.2794 27.8004 22.0519C27.7525 22.2755 27.7046 22.499 27.6567 22.7226C28.1198 22.7226 28.5669 22.7226 29.014 22.7226C29.014 23.1537 29.014 23.5689 29.014 24C19.3693 24 9.69261 24 0.0159681 24ZM20.3752 17.0699C20.3752 17.0858 20.3752 17.1018 20.3912 17.1178C20.503 17.6607 20.6148 18.1876 20.7425 18.7305C21.0299 20.0399 21.3174 21.3493 21.5888 22.6587C21.6048 22.7226 21.6208 22.7385 21.6846 22.7385C23.2335 22.7385 24.7984 22.7385 26.3473 22.7385C26.4112 22.7385 26.4431 22.7226 26.4431 22.6587C26.523 22.2914 26.6028 21.9242 26.6826 21.5569C26.9541 20.2794 27.2415 19.002 27.513 17.7246C27.5609 17.517 27.6088 17.2934 27.6567 17.0699C25.2136 17.0699 22.7864 17.0699 20.3752 17.0699ZM23.3293 15.7924C23.3772 15.7924 23.3772 15.7924 23.3932 15.7924C24.495 15.7924 25.6128 15.7924 26.7146 15.7924C26.7465 15.7924 26.7944 15.7605 26.8104 15.7285C27.3852 14.7705 27.6886 13.7325 27.7525 12.6148C27.8164 11.513 27.7685 10.4271 27.5449 9.34132C27.497 9.13374 27.4651 8.94212 27.4172 8.71857C27.3852 8.73453 27.3693 8.7505 27.3533 8.76647C26.5549 9.40519 25.8044 10.1078 25.1657 10.9062C24.7026 11.481 24.3034 12.1038 23.984 12.7745C23.6806 13.4132 23.521 14.0998 23.4092 14.8024C23.3772 15.1377 23.3613 15.4571 23.3293 15.7924ZM20.5988 9.42116C20.5828 9.42116 20.5669 9.43713 20.5509 9.43713C20.4711 9.91617 20.3752 10.3952 20.3114 10.8743C20.1677 11.8323 20.1996 12.7904 20.4232 13.7485C20.5988 14.483 20.8862 15.1537 21.3653 15.7285C21.3812 15.7605 21.4291 15.7924 21.4611 15.7924C21.6687 15.7924 21.8762 15.7924 22.0998 15.7924C22.1158 15.6168 22.1158 15.4411 22.1317 15.2814C22.2116 14.4032 22.3872 13.5409 22.7066 12.7106C22.7226 12.6786 22.7226 12.6307 22.7066 12.5828C22.5948 12.3114 22.483 12.0399 22.3553 11.7685C22.1158 11.2735 21.8283 10.8104 21.477 10.3952C21.1737 10.0599 20.8862 9.74052 20.5988 9.42116ZM24 5.42914C23.9681 5.46108 23.9521 5.47705 23.9361 5.50898C23.2016 6.33932 22.8663 7.34531 22.7864 8.43114C22.7545 8.94212 22.7545 9.4531 22.7545 9.96408C22.7545 10.012 22.7705 10.0759 22.8024 10.1078C22.9461 10.3633 23.1058 10.6028 23.2655 10.8583C23.3293 10.9701 23.3932 11.0818 23.4571 11.2096C23.489 11.1617 23.521 11.1297 23.5369 11.0818C24.0319 10.3313 24.5908 9.66068 25.2136 9.02196C25.2455 8.99002 25.2774 8.94212 25.2774 8.89421C25.2455 8.07984 25.1018 7.28144 24.7505 6.53094C24.5269 6.11577 24.2874 5.76447 24 5.42914Z" fill="#595959"/>
<path d="M26.523 4.58283C26.507 4.5509 26.491 4.53493 26.475 4.51896C26.1397 3.99202 25.7565 3.49701 25.3094 3.0499C25.2774 3.01796 25.2615 2.97006 25.2615 2.92216C25.2615 2.49102 25.2615 2.05988 25.2615 1.64471C25.2615 1.59681 25.2615 1.53293 25.2615 1.48503C25.2455 1.34132 25.1657 1.26148 25.022 1.26148C25.006 1.26148 24.99 1.26148 24.9581 1.26148C17.1657 1.26148 9.37325 1.26148 1.58084 1.26148C1.35729 1.26148 1.27745 1.32535 1.27745 1.56487C1.27745 6.83433 1.27745 12.1038 1.27745 17.3573C1.27745 17.4052 1.27744 17.4691 1.29341 17.517C1.30938 17.5968 1.37325 17.6447 1.46906 17.6607C1.51697 17.6607 1.56487 17.6607 1.61277 17.6607C6.99401 17.6607 12.3912 17.6607 17.7725 17.6607C17.8842 17.6607 17.9321 17.6766 17.9481 17.8044C18.012 18.1557 18.0918 18.491 18.1717 18.8423C18.1717 18.8743 18.1717 18.9062 18.1876 18.9381C18.1557 18.9381 18.1238 18.9381 18.0758 18.9381C12.5669 18.9381 7.07385 18.9381 1.56487 18.9381C0.974052 18.9381 0.510978 18.7146 0.207585 18.1876C0.0479042 17.9162 0 17.6287 0 17.3253C0 16.9102 0 16.495 0 16.0798C0 11.2735 0 6.46707 0 1.66068C0 1.34132 0.0319361 1.03792 0.191617 0.766467C0.447106 0.303393 0.830339 0.0638723 1.35729 0.0159681C1.43713 6.06754e-08 1.51697 0 1.61277 0C9.38922 0 17.1497 0 24.9261 0C25.2615 0 25.5649 0.0479042 25.8523 0.239521C26.2994 0.542914 26.523 0.974052 26.5389 1.501C26.5549 2.50699 26.5389 3.51297 26.5389 4.51896C26.523 4.53493 26.523 4.5509 26.523 4.58283Z" fill="#595959"/>
<path d="M7.58496 21.4771C7.58496 21.0619 7.58496 20.6467 7.58496 20.2156C7.63287 20.2156 7.6648 20.2156 7.69674 20.2156C11.2416 20.2156 14.7866 20.2156 18.3474 20.2156C18.4273 20.2156 18.4592 20.2315 18.4911 20.3274C18.571 20.7106 18.6508 21.0938 18.7307 21.4771C15.0101 21.4771 11.3055 21.4771 7.58496 21.4771Z" fill="#595959"/>
<path d="M12.0078 6.35529C13.2533 7.60079 14.5148 8.86227 15.7603 10.1078C15.1855 10.1557 14.5946 10.2036 14.0038 10.2675C14.3072 10.9541 14.5946 11.6407 14.898 12.3114C14.6425 12.4231 14.403 12.519 14.1635 12.6307C13.892 11.9441 13.6206 11.2734 13.3491 10.5868C12.902 11.0339 12.4709 11.4651 12.0238 11.9122C12.0078 10.0439 12.0078 8.20758 12.0078 6.35529Z" fill="#595959"/>
</svg>
