<svg width="19" height="24" viewBox="0 0 19 24" fill="none" xmlns="http://www.w3.org/2000/svg">
<path d="M9.89331 7.65222L9.89332 7.65219C6.66344 7.57076 4.08661 10.0799 4.08661 13.3096V13.3144V13.3191V13.3239V13.3287V13.3334V13.3382V13.343V13.3478V13.3525V13.3573V13.3621V13.3669V13.3716V13.3764V13.3812V13.3859V13.3907V13.3955V13.4003V13.405V13.4098V13.4146V13.4194V13.4241V13.4289V13.4337V13.4385V13.4432V13.448V13.4528V13.4575V13.4623V13.4671V13.4719V13.4766V13.4814V13.4862V13.491V13.4957V13.5005V13.5053V13.51V13.5148V13.5196V13.5244V13.5291V13.5339V13.5387V13.5435V13.5482V13.553V13.5578V13.5625V13.5673V13.5721V13.5769V13.5816V13.5864V13.5912V13.596V13.6007V13.6055V13.6103V13.6151V13.6198V13.6246V13.6294V13.6341V13.6389V13.6437V13.6485V13.6532V13.658V13.6628V13.6676V13.6723V13.6771V13.6819V13.6866V13.6914V13.6962V13.701V13.7057V13.7105V13.7153V13.7201V13.7248V13.7296V13.7344V13.7391V13.7439V13.7487V13.7535V13.7582V13.763V13.7678V13.7726V13.7773V13.7821V13.7869V13.7917V13.7964V13.8012V13.806V13.8107V13.8155V13.8203V13.8251V13.8298V13.8346V13.8394V13.8442V13.8489V13.8537V13.8585V13.8632V13.868V13.8728V13.8776V13.8823V13.8871V13.8919V13.8967V13.9014V13.9062V13.911V13.9157V13.9205V13.9253V13.9301V13.9348V13.9396V13.9444V13.9492V13.9539V13.9587V13.9635V13.9683V13.973V13.9778V13.9826V13.9873V13.9921V13.9969V14.0017V14.0064V14.0112V14.016V14.0208V14.0255V14.0303V14.0351V14.0398V14.0446V14.0494V14.0542V14.0589V14.0637V14.0685V14.0733V14.078V14.0828V14.0876V14.0924V14.0971V14.1019V14.1067V14.1114V14.1162V14.121V14.1258V14.1305V14.1353V14.1401V14.1449V14.1496V14.1544V14.1592V14.1639V14.1687V14.1735V14.1783V14.183V14.1878V14.1926V14.1974V14.2021V14.2069V14.2117V14.2164V14.2212V14.226V14.2308V14.2355V14.2403V14.2451V14.2499V14.2546V14.2594V14.2642V14.269V14.2737V14.2785V14.2833V14.288V14.2928V14.2976V14.3024V14.3071V14.3119V14.3167V14.3215V14.3262V14.331V14.3358V14.3405V14.3453V14.3501V14.3549V14.3596V14.3644V14.3692V14.374V14.3787V14.3835V14.3883V14.393V14.3978V14.4026V14.4074V14.4121V14.4169V14.4217V14.4265V14.4312V14.436V14.4408V14.4456V14.4503V14.4551V14.4599V14.4646V14.4694V14.4742V14.479V14.4837V14.4885V14.4933V14.4981V14.5028V14.5076V14.5124V14.5171V14.5219V14.5267V14.5315V14.5362V14.541V14.5458V14.5506V14.5553V14.5601V14.5649V14.5696V14.5744V14.5792V14.584V14.5887V14.5935V14.5983V14.6031V14.6078V14.6126V14.6174V14.6222V14.6269V14.6317V14.6365V14.6412V14.646V14.6508V14.6556V14.6603V14.6651V14.6699V14.6747V14.6794V14.6842V14.689V14.6937V14.6985V14.7033V14.7081V14.7128V14.7176V14.7224V14.7272V14.7319V14.7367V14.7415V14.7463V14.751V14.7558V14.7606V14.7653V14.7701V14.7749V14.7797V14.7844V14.7892V14.794V14.7988V14.8035V14.8083V14.8131V14.8178V14.8226V14.8274V14.8322V14.8369V14.8417V14.8465V14.8513V14.856V14.8608V14.8656V14.8703V14.8751V14.8799V14.8847V14.8894V14.8942V14.899V14.9038V14.9085V14.9133V14.9181V14.9229V14.9276V14.9324V14.9372V14.9419V14.9467V14.9515V14.9563V14.961V14.9658V14.9706V14.9754V14.9801V14.9849V14.9897V14.9944V14.9992V15.004V15.0088V15.0135V15.0183V15.0231V15.0279V15.0326V15.0374V15.0422V15.0469V15.0517V15.0565V15.0613V15.066V15.0708V15.0756V15.0804V15.0851V15.0899V15.0947V15.0995V15.1042V15.109V15.1138V15.1185V15.1233V15.1281V15.1329V15.1376V15.1424V15.1472V15.152V15.1567V15.1615V15.1663V15.171V15.1758V15.1806V15.1854V15.1901V15.1949V15.1997V15.2045V15.2092V15.214V15.2188V15.2235V15.2283V15.2331V15.2379V15.2426V15.2474V15.2522V15.257V15.2617V15.2665V15.2713V15.2761V15.2808V15.2856V15.2904V15.2951V15.2999V15.3047V15.3095V15.3142V15.319V15.3238V15.3286V15.3333V15.3381V15.3429V15.3476V15.3524V15.3572V15.362V15.3667V15.3715V15.3763V15.3811V15.3858V15.3906V15.3954V15.4001V15.4049V15.4097V15.4145V15.4192V15.424V15.4288V15.4336V15.4383V15.4431V15.4479V15.4527V15.4574V15.4622V15.467V15.4717V15.4765V15.4813V15.4861V15.4908V15.4956V15.5004V15.5052V15.5099V15.5147V15.5195V15.5242V15.529V15.5338V15.5386V15.5433V15.5481V15.5529V15.5577V15.5624V15.5672V15.572V15.5768V15.5815V15.5863V15.5911V15.5958V15.6006V15.6054V15.6102V15.6149V15.6197V15.6245V15.6293V15.634V15.6388V15.6436V15.6483V15.6531V15.6579V15.6627V15.6674V15.6722V15.677V15.6818V15.6865V15.6913V15.6961V15.7008V15.7056V15.7104V15.7152V15.7199V15.7247V15.7295V15.7343V15.739V15.7438V15.7486V15.7534C4.08661 16.0409 4.08506 16.3279 4.08351 16.6135C4.08045 17.1804 4.07742 17.7419 4.08659 18.2921L4.08661 18.2932C4.10017 20.7075 5.64625 22.8239 7.93964 23.5974L7.94049 23.5977C8.91448 23.9359 9.93302 23.9373 10.9505 23.8548C11.7137 23.7902 12.3386 23.1279 12.3778 22.3621C12.4191 21.4251 12.4328 20.4763 12.3778 19.5422L12.3778 19.541L12.3778 19.541C12.3391 18.7031 11.6158 18.0617 10.7503 18.0348C10.6434 18.0348 10.5349 18.0363 10.4257 18.0378C10.2032 18.0409 9.9774 18.044 9.75393 18.0347C9.52797 18.0271 9.33301 17.9549 9.194 17.8179C9.05442 17.6804 8.9814 17.4875 8.98125 17.259M9.89331 7.65222L9.08125 17.2583M9.89331 7.65222H9.89584H9.89737H9.89891H9.90045H9.90198H9.90352H9.90505H9.90659H9.90812H9.90966H9.91119H9.91272H9.91426H9.91579H9.91732H9.91886H9.92039H9.92192H9.92345H9.92498H9.92652H9.92805H9.92958H9.93111H9.93264H9.93417H9.9357H9.93723H9.93875H9.94028H9.94181H9.94334H9.94487H9.94639H9.94792H9.94945H9.95097H9.9525H9.95403H9.95555H9.95708H9.9586H9.96013H9.96165H9.96318H9.9647H9.96623H9.96775H9.96927H9.9708H9.97232H9.97384H9.97537H9.97689H9.97841H9.97993H9.98145H9.98297H9.98449H9.98601H9.98754H9.98906H9.99058H9.9921H9.99361H9.99513H9.99665H9.99817H9.99969H10.0012H10.0027H10.0042H10.0058H10.0073H10.0088H10.0103H10.0118H10.0133H10.0149H10.0164H10.0179H10.0194H10.0209H10.0224H10.024H10.0255H10.027H10.0285H10.03H10.0315H10.033H10.0346H10.0361H10.0376H10.0391H10.0406H10.0421H10.0436H10.0451H10.0467H10.0482H10.0497H10.0512H10.0527H10.0542H10.0557H10.0572H10.0587H10.0603H10.0618H10.0633H10.0648H10.0663H10.0678H10.0693H10.0708H10.0723H10.0738H10.0753H10.0769H10.0784H10.0799H10.0814H10.0829H10.0844H10.0859H10.0874H10.0889H10.0904H10.0919H10.0934H10.0949H10.0964H10.098H10.0995H10.101H10.1025H10.104H10.1055H10.107H10.1085H10.11H10.1115H10.113H10.1145H10.116H10.1175H10.119H10.1205H10.122H10.1235H10.125H10.1265H10.128H10.1295H10.1311H10.1326H10.1341H10.1356H10.1371H10.1386H10.1401H10.1416H10.1431H10.1446H10.1461H10.1476H10.1491H10.1506H10.1521H10.1536H10.1551H10.1566H10.1581H10.1596H10.1611H10.1626H10.1641H10.1656H10.1671H10.1686H10.1701H10.1716H10.1731H10.1746H10.1761H10.1776H10.1791H10.1806H10.1821H10.1836H10.1851H10.1866H10.1881H10.1896H10.1911H10.1926H10.1941H10.1956H10.1971H10.1986H10.2001H10.2016H10.2031H10.2046H10.2061H10.2076H10.2091H10.2106H10.2121H10.2136H10.2151H10.2166H10.2181H10.2195H10.221H10.2225H10.224H10.2255H10.227H10.2285H10.23H10.2315H10.233H10.2345H10.236H10.2375H10.239H10.2405H10.242H10.2435H10.245H10.2465H10.248H10.2495H10.251H10.2525H10.254H10.2555H10.257H10.2585H10.26H10.2615H10.263H10.2645H10.266H10.2675H10.269H10.2704H10.2719H10.2734H10.2749H10.2764H10.2779H10.2794H10.2809H10.2824H10.2839H10.2854H10.2869H10.2884H10.2899H10.2914H10.2929H10.2944H10.2959H10.2974H10.2989H10.3004H10.3019H10.3034H10.3049H10.3064H10.3079H10.3094H10.3109H10.3124H10.3139H10.3153H10.3168H10.3183H10.3198H10.3213H10.3228H10.3243H10.3258H10.3273H10.3288H10.3303H10.3318H10.3333H10.3348H10.3363H10.3378H10.3393H10.3408H10.3423H10.3438H10.3453H10.3468H10.3483H10.3498H10.3513H10.3528H10.3543H10.3558H10.3573H10.3588H10.3603H10.3618H10.3633H10.3648H10.3663H10.3678H10.3693H10.3708H10.3723H10.3738H10.3753H10.3768H10.3783H10.3798H10.3813H10.3828H10.3843H10.3858H10.3873H10.3888H10.3903H10.3918H10.3933H10.3948H10.3963H10.3978H10.3993H10.4008H10.4023H10.4038H10.4053H10.4068H10.4083H10.4098H10.4113H10.4128H10.4143H10.4158H10.4173H10.4188H10.4203H10.4218H10.4233H10.4248H10.4263H10.4278H10.4293H10.4308H10.4323H10.4338H10.4353H10.4368H10.4383H10.4398H10.4413H10.4428H10.4443H10.4458H10.4473H10.4488H10.4503H10.4518H10.4533H10.4548H10.4564H10.4579H10.4594H10.4609H10.4624H10.4639H10.4654H10.4669H10.4684H10.4699H10.4714H10.4729H10.4744H10.4759H10.4774H10.4789H10.4804H10.482H10.4835H10.485H10.4865H10.488H10.4895H10.491H10.4925H10.494H10.4955H10.497H10.4985H10.5001H10.5016H10.5031H10.5046H10.5061H10.5076H10.5091H10.5106H10.5121H10.5137H10.5152H10.5167H10.5182H10.5197H10.5212H10.5227H10.5242H10.5257H10.5273H10.5288H10.5303H10.5318H10.5333H10.5348H10.5363H10.5379H10.5394H10.5409H10.5424H10.5439H10.5454H10.5469H10.5485H10.55H10.5515H10.553H10.5545H10.556H10.5576H10.5591H10.5606H10.5621H10.5636H10.5652H10.5667H10.5682H10.5697H10.5712H10.5727H10.5743H10.5758H10.5773H10.5788H10.5803H10.5819H10.5834H10.5849H10.5864H10.588H10.5895H10.591H10.5925H10.594H10.5956H10.5971H10.5986H10.6001H10.6017H10.6032H10.6047H10.6062H10.6078H10.6093H10.6108H10.6123H10.6139H10.6154H10.6169H10.6184H10.62H10.6215H10.623H10.6246H10.6261H10.6276H10.6291H10.6307H10.6322H10.6337H10.6353H10.6368H10.6383H10.6399H10.6414H10.6429H10.6445H10.646H10.6475H10.6491H10.6506H10.6521H10.6537H10.6552H10.6567H10.6583H10.6598H10.6613H10.6629H10.6644H10.6659H10.6675H10.669C11.6135 7.65222 12.3655 8.33154 12.3915 9.26702L12.3915 9.26737C12.4191 10.1487 12.4191 11.0301 12.3915 11.9114C12.3522 12.8222 11.6248 13.5003 10.709 13.5133L10.709 13.5133L10.7061 13.5134C10.4971 13.5225 10.2906 13.5195 10.0807 13.5164C9.97419 13.5149 9.86678 13.5133 9.75777 13.5133V13.5133L9.75455 13.5134C9.52357 13.5208 9.32745 13.5885 9.18883 13.725C9.04965 13.8621 8.98139 14.0559 8.98125 14.2891M9.89331 7.65222L9.08125 14.2898M8.98125 17.259C8.98125 17.2588 8.98125 17.2585 8.98125 17.2583H9.08125M8.98125 17.259C8.98125 17.2592 8.98125 17.2594 8.98126 17.2597L9.08125 17.2583M8.98125 17.259C8.96744 16.2644 8.96744 15.2837 8.98125 14.2891M9.08125 17.2583C9.06744 16.2642 9.06744 15.2839 9.08125 14.2898M8.98125 14.2891C8.98125 14.2894 8.98125 14.2896 8.98125 14.2898H9.08125M8.98125 14.2891C8.98125 14.2889 8.98125 14.2887 8.98126 14.2885L9.08125 14.2898M9.66049 9.12282L9.66112 9.12282C9.75681 9.12282 9.85064 9.1244 9.94349 9.12595C10.1246 9.12899 10.302 9.13197 10.4821 9.12307C10.6307 9.10862 10.7607 9.13131 10.8457 9.22728C10.9268 9.31882 10.9417 9.45056 10.9346 9.58638C10.9255 9.81322 10.9285 10.0318 10.9316 10.2554C10.9331 10.3695 10.9347 10.485 10.9347 10.6035C10.9347 10.7158 10.9332 10.8282 10.9316 10.9409C10.9286 11.166 10.9255 11.3921 10.9346 11.6204C10.9417 11.7506 10.9265 11.8755 10.8466 11.9634C10.7642 12.0539 10.6394 12.0776 10.4983 12.0702C10.3174 12.0612 10.1393 12.0642 9.95729 12.0672C9.86481 12.0688 9.77135 12.0703 9.67605 12.0703C8.48602 12.0973 7.53724 13.0218 7.51063 14.2088C7.49684 15.2569 7.49684 16.305 7.51063 17.3531C7.53725 18.5405 8.48644 19.4784 9.68982 19.5054C9.78956 19.5054 9.88755 19.507 9.98461 19.5085C10.1756 19.5116 10.3629 19.5146 10.5529 19.5056C10.6626 19.4984 10.77 19.5099 10.8476 19.579C10.9269 19.6495 10.9485 19.7556 10.9485 19.8677V19.8683C10.9485 20.6135 10.9485 21.346 10.9347 22.0924L10.9345 22.0998L10.9333 22.107C10.9224 22.1723 10.8799 22.2467 10.8374 22.3008C10.8149 22.3293 10.7884 22.3576 10.7596 22.3797C10.7343 22.3991 10.6937 22.4242 10.6445 22.4253C10.6435 22.4253 10.6424 22.4253 10.6414 22.4253V22.3253C9.52306 22.3805 8.41853 22.3391 7.45207 21.6488L9.66049 9.12282ZM9.66049 9.12282C7.41101 9.13697 5.57146 10.9618 5.55721 13.2121L9.66049 9.12282Z" fill="#595959" stroke="white" stroke-width="0.2"/>
<path d="M17.7658 3.5483C17.9867 3.76921 18.1523 4.01772 18.1109 4.33528C18.0695 4.66664 17.8762 4.91515 17.5587 5.0118L17.7658 3.5483ZM17.7658 3.5483L17.695 3.61901C17.6953 3.61924 17.6955 3.61947 17.6957 3.61971C17.696 3.61995 17.6962 3.62019 17.6965 3.62043L17.7658 3.5483ZM9.38424 0.1C9.38454 0.1 9.38484 0.1 9.38514 0.1V0L9.38333 0.0999836C9.38363 0.0999891 9.38393 0.0999945 9.38424 0.1ZM2.5496 1.96189C2.54979 1.96177 2.54999 1.96164 2.55019 1.96152C2.55038 1.96139 2.55057 1.96126 2.55077 1.96113L2.49564 1.8777L2.5496 1.96189ZM1.37851 4.73122C1.37804 4.73166 1.37756 4.7321 1.37709 4.73253C1.3766 4.73302 1.37612 4.7335 1.37563 4.73399L1.44634 4.8047L1.37851 4.73122ZM16.7451 4.73336C16.7449 4.73313 16.7446 4.7329 16.7444 4.73267C16.7442 4.73248 16.744 4.7323 16.7438 4.73211L16.675 4.8047L16.7451 4.73336Z" fill="#595959" stroke="white" stroke-width="0.2"/>
<path d="M15.3905 5.99514L15.3906 5.99525C15.6939 6.28586 15.7476 6.63739 15.5796 6.93729L15.579 6.93853C15.4209 7.23031 15.0694 7.38571 14.7459 7.27787C14.6007 7.22948 14.4479 7.11688 14.3293 6.99829L14.3293 6.99827L14.328 6.99695C11.7116 4.4785 7.52884 4.14246 4.52043 6.40893C4.25356 6.60561 4.00184 6.82952 3.76608 7.0514L3.76608 7.0514L3.76526 7.05219C3.42467 7.38017 2.98913 7.39554 2.68889 7.10731C2.388 6.81845 2.38132 6.34552 2.73047 6.00884L2.73079 6.00853C4.24714 4.53317 6.04851 3.68703 8.15198 3.46836C8.38181 3.44748 8.61899 3.4346 8.82361 3.42349C8.88583 3.42011 8.94504 3.41689 9.00012 3.41366C11.5291 3.46917 13.6296 4.30252 15.3905 5.99514Z" fill="#595959" stroke="white" stroke-width="0.2"/>
</svg>
