<svg width="10" height="15" viewBox="0 0 10 15" fill="none" xmlns="http://www.w3.org/2000/svg">
<path d="M4.85257 0.197754C4.99732 0.218432 5.14207 0.23911 5.30749 0.259789C6.17598 0.383857 6.92039 0.735386 7.58209 1.31437C8.40921 2.01743 8.92617 2.90659 9.11227 3.96118C9.29838 4.9744 9.15363 5.96696 8.67803 6.89747C7.33395 9.54428 5.98987 12.1911 4.62511 14.8379C4.62511 14.8586 4.60444 14.8792 4.58376 14.8999C4.56308 14.8792 4.56308 14.8586 4.5424 14.8172C3.17764 12.1497 1.81289 9.48224 0.468807 6.81476C0.0966007 6.09102 -0.0481457 5.30525 0.0138888 4.47813C0.0966014 3.25812 0.592876 2.22421 1.50271 1.39709C2.14374 0.79742 2.88815 0.445892 3.75663 0.280466C3.92206 0.23911 4.10816 0.23911 4.27359 0.218432C4.29426 0.218432 4.31494 0.218432 4.33562 0.197754C4.50105 0.197754 4.68715 0.197754 4.85257 0.197754ZM7.35463 4.7883C7.35463 3.2788 6.13462 2.03811 4.60444 2.03811C3.07425 2.03811 1.83357 3.25812 1.83357 4.7883C1.83357 6.29781 3.07425 7.53849 4.58376 7.53849C6.11394 7.55917 7.35463 6.31848 7.35463 4.7883Z" fill="#00A911"/>
</svg>
