<svg width="12" height="13" viewBox="0 0 12 13" fill="none" xmlns="http://www.w3.org/2000/svg">
<path d="M7.41523 12.9349C7.26963 12.9203 7.12403 12.9058 6.97843 12.8766C6.45427 12.7747 5.97379 12.5709 5.50787 12.2942C4.081 11.4643 2.94532 10.3286 2.02804 8.97457C1.37284 8.01361 0.834117 6.97985 0.470117 5.87329C0.251717 5.21809 0.0915573 4.53377 0.0333174 3.83489C-0.0103626 3.35441 -0.0249224 2.88849 0.0769975 2.40801C0.251717 1.62177 0.688517 0.99569 1.32916 0.52977C1.62036 0.311371 1.92612 0.151211 2.27556 0.0492907C2.49396 -0.00894925 2.71236 -0.0235092 2.93076 0.0492907C3.2074 0.136651 3.39668 0.32593 3.52772 0.58801C3.717 0.96657 3.84804 1.37425 3.96452 1.78193C4.05188 2.10225 4.12468 2.43713 4.19748 2.77201C4.2266 2.90305 4.21204 3.04865 4.19748 3.19425C4.16836 3.42721 4.02276 3.58737 3.83348 3.71841C3.61508 3.86401 3.38212 3.96593 3.1346 4.06785C2.93076 4.15521 2.74148 4.22801 2.53764 4.31537C2.37748 4.38817 2.31924 4.51921 2.36292 4.69393C2.79972 5.98977 3.44036 7.16913 4.25572 8.26113C4.69252 8.84353 5.15843 9.36769 5.68259 9.86273C5.84275 10.0229 6.01747 10.0083 6.14851 9.83361C6.38147 9.54241 6.61443 9.26577 6.92019 9.06193C7.10947 8.93089 7.32787 8.81441 7.57539 8.81441C7.73555 8.79985 7.89571 8.84353 8.02675 8.93089C8.69651 9.33857 9.32259 9.81905 9.83219 10.4306C9.93411 10.547 10.0069 10.6781 10.0797 10.8091C10.2253 11.1003 10.2108 11.3915 10.0652 11.6682C9.90499 11.9739 9.65747 12.2069 9.38083 12.3962C8.91491 12.731 8.39075 12.9203 7.82291 12.964C7.80835 12.964 7.77923 12.9786 7.76467 12.9786C7.67731 12.9349 7.54627 12.9349 7.41523 12.9349Z" fill="#00A911"/>
<path d="M11.9288 5.96066C11.9288 6.3829 11.8851 6.77602 11.8123 7.16914C11.7541 7.44578 11.5211 7.63506 11.2445 7.63506C10.9678 7.63506 10.7203 7.44578 10.6766 7.16914C10.6621 7.08178 10.6621 6.97986 10.6912 6.87794C10.9387 5.5093 10.6475 4.25714 9.81759 3.15058C9.11871 2.20418 8.17231 1.62178 7.03663 1.37427C6.75999 1.31603 6.55615 1.08307 6.55615 0.806425C6.55615 0.529785 6.73087 0.296825 7.00751 0.224025C7.15311 0.180345 7.29871 0.224026 7.44431 0.267706C9.62831 0.791865 11.3027 2.50994 11.8123 4.7085C11.8851 5.13074 11.9288 5.55298 11.9288 5.96066Z" fill="#00A911"/>
<path d="M9.99245 6.1645C9.99245 6.4557 9.96333 6.73234 9.90509 7.00898C9.84685 7.30018 9.58477 7.50401 9.29357 7.4749C8.98781 7.44578 8.75485 7.22738 8.74029 6.92162C8.74029 6.84882 8.75485 6.76146 8.76941 6.68866C8.90045 5.88786 8.75485 5.1453 8.30349 4.47554C7.85213 3.80578 7.22605 3.36898 6.42525 3.19426C6.14861 3.13602 5.97389 2.94674 5.93021 2.68466C5.87197 2.29154 6.22141 1.95666 6.61453 2.04402C7.83757 2.3061 8.76941 2.97586 9.41005 4.03874C9.80317 4.69394 9.99245 5.40738 9.99245 6.1645Z" fill="#00A911"/>
<path d="M8.04108 6.33922C8.01196 6.51394 8.01196 6.6741 7.96828 6.84882C7.91004 7.15458 7.58972 7.35842 7.29852 7.30018C6.9782 7.22738 6.77436 6.93618 6.8326 6.61586C6.96364 5.93154 6.58508 5.33458 6.06092 5.10162C5.959 5.05794 5.85708 5.02882 5.75516 4.9997C5.49308 4.9269 5.31836 4.69394 5.31836 4.43186C5.31836 4.15522 5.50764 3.93682 5.76972 3.86402C5.90076 3.8349 6.01724 3.86402 6.13372 3.89314C7.25484 4.18434 8.02652 5.20354 8.04108 6.33922Z" fill="#00A911"/>
</svg>
